<?xml version="1.0" encoding="UTF-8"?>
<svg width="20px" height="20px" viewBox="0 0 20 20" version="1.1" xmlns="http://www.w3.org/2000/svg" xmlns:xlink="http://www.w3.org/1999/xlink">
    <!-- Generator: Sketch 49.1 (51147) - http://www.bohemiancoding.com/sketch -->
    <title></title>
    <desc>Created with Sketch.</desc>
    <defs></defs>
    <g id="Administration" stroke="none" stroke-width="1" fill="none" fill-rule="evenodd">
        <g id="Administration---Cluster-Roles" transform="translate(-37.000000, -306.000000)" fill="#0A6ED1">
            <path d="M55.75,323.469999 C56.0885434,323.469999 56.3815092,323.593696 56.6289062,323.841093 C56.8763033,324.08849 57,324.381456 57,324.719999 C57,325.084584 56.8763033,325.384061 56.6289062,325.618437 C56.3815092,325.852813 56.0885434,325.969999 55.75,325.969999 L38.25,325.969999 C37.8854148,325.969999 37.5859387,325.852813 37.3515625,325.618437 C37.1171863,325.384061 37,325.084584 37,324.719999 C37,324.381456 37.1171863,324.08849 37.3515625,323.841093 C37.5859387,323.593696 37.8854148,323.469999 38.25,323.469999 L55.75,323.469999 Z M47.9375,320.579374 C47.677082,320.839792 47.3776059,320.969999 47.0390625,320.969999 C46.7005191,320.969999 46.4140637,320.839792 46.1796875,320.579374 L42.1953125,316.634062 C41.8828109,316.32156 41.8828109,316.022084 42.1953125,315.735624 C42.4817723,315.449165 42.7682277,315.449165 43.0546875,315.735624 L46.375,319.055937 L46.375,306.594999 C46.375,306.178331 46.5833313,305.969999 47,305.969999 C47.4166687,305.969999 47.625,306.178331 47.625,306.594999 L47.625,319.134062 L51.0234375,315.735624 C51.3098973,315.449165 51.6093734,315.449165 51.921875,315.735624 C52.2083348,316.022084 52.2083348,316.32156 51.921875,316.634062 L47.9375,320.579374 Z" id=""></path>
        </g>
    </g>
</svg>
