<svg width="161" height="21" viewBox="0 0 161 21" xmlns="http://www.w3.org/2000/svg" xmlns:xlink="http://www.w3.org/1999/xlink"><defs><path id="a" d="M6.697 21H0V.283h6.697V21z"/><path id="c" d="M.236 21h6.707V.283H.236V21z"/></defs><g fill="none" fill-rule="evenodd"><mask id="b" fill="#fff"><use xlink:href="#a"/></mask><path d="M2.458 10.697c0-3.637.76-6.52 1.168-7.805l3.07-.148V.284l-4.803.23-.295.727C1.532 1.41 0 5.25 0 10.7c0 5.448 1.532 9.294 1.598 9.456l.305.752L6.697 21v-2.46l-3.08-.062c-.41-1.29-1.16-4.147-1.16-7.78" fill="#FDB813" mask="url(#b)"/><path d="M11.192 11.057c.935-2.184 1.684-4.56 1.808-4.96l-2.44-.084c-.24.723-.634 1.876-1.1 3.057C9.003 7.874 8.63 6.707 8.414 6L6 6.122c.15.524.83 2.85 1.74 4.972C8.34 12.498 9.09 14 9.61 15l2.642-.055c-.02-.037-.737-1.36-1.493-2.92.14-.32.29-.64.43-.968z" fill="#FDB813"/><g transform="translate(12)"><mask id="d" fill="#fff"><use xlink:href="#c"/></mask><path d="M5.345 1.24L5.05.514.237.284v2.46l3.082.15c.4 1.283 1.16 4.166 1.16 7.803 0 3.613-.75 6.484-1.16 7.782l-3.09.06V21l4.8-.095.3-.752c.06-.162 1.59-4.008 1.59-9.456 0-5.452-1.53-9.295-1.6-9.456" fill="#FDB813" mask="url(#d)"/></g><path d="M28.81 13.87l1.783-.94c.78 1.548 2.004 2.32 3.674 2.32.814 0 1.47-.134 1.968-.403.498-.27.747-.71.747-1.32 0-.286-.054-.538-.162-.755-.11-.216-.283-.416-.523-.597-.24-.182-.552-.35-.936-.506-.38-.16-.85-.32-1.4-.49-.65-.19-1.25-.38-1.82-.58-.56-.2-1.05-.45-1.47-.74-.42-.29-.75-.65-.99-1.08-.23-.43-.35-.96-.35-1.59 0-.57.11-1.08.33-1.54.22-.46.53-.86.93-1.19.4-.33.88-.59 1.44-.77.56-.18 1.18-.27 1.85-.27.66 0 1.25.07 1.77.22s.99.35 1.4.62c.41.26.77.56 1.07.91.3.34.55.71.76 1.1l-1.64 1.14c-.4-.67-.88-1.16-1.44-1.47-.57-.32-1.21-.47-1.92-.47-.74 0-1.32.13-1.72.38s-.6.63-.6 1.12c0 .31.06.58.18.79.12.21.31.41.57.58.26.17.59.33.99.47.4.14.87.29 1.41.44.62.18 1.21.38 1.76.59.56.21 1.04.47 1.45.78.42.3.74.67.98 1.1.23.435.35.96.35 1.58 0 .54-.113 1.05-.342 1.524-.23.476-.556.89-.98 1.245-.425.356-.95.63-1.574.83-.62.2-1.33.3-2.13.3-1.317 0-2.435-.31-3.35-.935-.92-.62-1.59-1.44-2.01-2.45zm11.846-1.642c0-.91.144-1.678.43-2.308.288-.63.654-1.144 1.1-1.542.445-.4.937-.684 1.476-.857.54-.17 1.055-.25 1.547-.25.53 0 1.06.09 1.56.26s.95.46 1.34.87c.39.41.7.94.93 1.6.23.66.35 1.48.35 2.45v.52h-6.53c.04.87.31 1.5.78 1.9.47.4 1.06.6 1.77.6.62 0 1.13-.1 1.53-.3.4-.2.78-.47 1.14-.82l1.17 1.15c-.51.55-1.09.98-1.74 1.28-.66.3-1.42.46-2.28.46-.6 0-1.18-.09-1.73-.28-.56-.19-1.05-.48-1.47-.88-.43-.4-.77-.92-1.03-1.55s-.39-1.38-.39-2.26zm2.25-.932h4.465c-.13-1.488-.86-2.233-2.18-2.233-.27 0-.53.04-.78.115-.24.076-.47.205-.68.386-.21.182-.39.414-.53.695-.14.28-.24.62-.28 1.03zM51.344 17V7.446h2.215V9.01h.03c.3-.48.72-.89 1.26-1.234.54-.343 1.26-.514 2.17-.514h.15l-.07 2.03c-.07-.012-.17-.02-.31-.026-.14-.006-.24-.01-.3-.01-.72 0-1.32.155-1.79.462-.47.308-.86.72-1.17 1.235V17h-2.21zm6.512-9.554h2.33l2.337 7.05h.036l2.32-7.05h2.14l-3.46 9.572h-2.25l-3.46-9.572zM68.5 5.786V3.86h2.268v1.925H68.5zM68.518 17V7.446h2.232V17h-2.232zm4.262-4.772c0-.91.138-1.678.413-2.308.276-.63.636-1.144 1.08-1.542.447-.4.942-.684 1.487-.857.545-.17 1.08-.25 1.608-.25.586 0 1.1.08 1.538.23.44.15.812.36 1.116.61.305.26.563.56.774.9.21.34.39.69.536 1.06l-1.872.67c-.375-1.07-1.084-1.6-2.127-1.6-.31 0-.606.05-.888.16-.28.11-.527.29-.738.53-.21.25-.38.57-.505.97-.126.4-.19.88-.19 1.46 0 1.02.198 1.8.594 2.34.395.54.96.81 1.692.81.504 0 .936-.11 1.296-.32.36-.21.673-.66.936-1.33l1.837.67c-.17.39-.372.75-.606 1.09-.23.34-.51.64-.84.89-.33.26-.71.46-1.15.61-.44.16-.95.23-1.52.23-.55 0-1.09-.09-1.63-.29-.53-.19-1.01-.49-1.43-.89-.42-.4-.75-.91-1.01-1.54-.26-.62-.38-1.37-.38-2.25zm9.668 0c0-.91.144-1.678.43-2.308.288-.63.654-1.144 1.1-1.542.445-.4.937-.684 1.476-.857.54-.17 1.055-.25 1.547-.25.54 0 1.07.09 1.57.26.51.17.95.46 1.34.87.39.41.7.94.94 1.6.24.66.35 1.48.35 2.45v.52h-6.53c.05.87.31 1.5.79 1.9.48.4 1.07.6 1.78.6.62 0 1.14-.1 1.54-.3.4-.2.78-.47 1.15-.82l1.17 1.15c-.5.55-1.08.98-1.73 1.28-.65.3-1.41.46-2.28.46-.6 0-1.17-.09-1.73-.28-.55-.19-1.04-.48-1.46-.88-.42-.4-.76-.92-1.02-1.55s-.39-1.38-.39-2.26zm2.25-.932h4.465c-.135-1.488-.86-2.233-2.18-2.233-.275 0-.536.04-.782.115-.24.076-.47.205-.68.386-.21.182-.39.414-.53.695-.14.28-.24.62-.28 1.03zM97.926 17V3.676h8.385v2.092h-6.13v3.568h4.45v1.995h-4.44V17h-2.25zm8.182-2.303c0-.515.115-.99.343-1.424.23-.433.6-.814 1.1-1.142.51-.32 1.15-.61 1.94-.84.79-.23 1.74-.42 2.85-.55v-.28c0-.48-.12-.83-.37-1.04-.25-.21-.64-.32-1.18-.32-.67 0-1.28.14-1.81.41-.53.27-1 .57-1.4.89l-1.1-1.4c.52-.47 1.16-.87 1.94-1.21.78-.34 1.67-.51 2.67-.51.64 0 1.17.08 1.61.23.44.15.8.37 1.06.67.27.298.47.66.59 1.09.12.43.18.92.18 1.47v3.948c0 .576.02 1.05.06 1.42.04.374.11.68.21.92h-2.23c-.06-.204-.11-.39-.15-.557-.04-.17-.06-.39-.06-.665-.49.505-1.02.858-1.59 1.06-.57.2-1.21.304-1.93.304-.38 0-.74-.05-1.07-.158-.33-.105-.61-.26-.85-.465-.24-.205-.43-.46-.56-.77-.14-.307-.21-.657-.21-1.05zm2.17-.413c0 .38.12.668.362.862.24.193.565.29.975.29.574 0 1.084-.1 1.53-.3.445-.2.84-.465 1.186-.8V12.23c-1.33.18-2.33.438-3.02.77-.68.33-1.03.76-1.03 1.286zm8.07-2.056c0-.91.137-1.678.413-2.308.28-.63.64-1.144 1.09-1.542.45-.4.94-.684 1.49-.857.55-.17 1.08-.25 1.61-.25.59 0 1.1.08 1.54.23.44.15.81.36 1.12.61.31.26.57.56.78.9.21.34.39.69.54 1.06l-1.87.67c-.37-1.07-1.08-1.6-2.13-1.6-.31 0-.6.05-.88.16s-.53.29-.74.53c-.21.25-.38.57-.5.97s-.19.88-.19 1.46c0 1.02.2 1.8.6 2.34.4.54.96.81 1.69.81.51 0 .94-.11 1.3-.32.36-.21.67-.66.936-1.33l1.835.67c-.17.39-.37.75-.61 1.09-.232.34-.513.64-.842.89-.33.26-.71.46-1.15.61-.44.16-.95.23-1.52.23-.55 0-1.09-.09-1.63-.29-.533-.19-1.01-.49-1.43-.89-.42-.4-.76-.91-1.015-1.54-.26-.62-.386-1.37-.386-2.25zm9.448-3.024V7.446h1.652v-3.33h2.215v3.33h2.47v1.758h-2.47v4.737c0 .52.097.89.29 1.11.193.22.566.34 1.116.34.17 0 .34-.01.52-.04.18-.02.32-.05.43-.09V17c-.07.012-.16.026-.29.044-.13.018-.27.032-.42.044-.15.012-.31.02-.47.026-.16.006-.32.01-.46.01-.61 0-1.11-.058-1.49-.172-.38-.115-.68-.28-.9-.493-.22-.22-.37-.49-.45-.82-.08-.33-.12-.72-.12-1.15V9.2h-1.65zm7.523 3.024c0-.874.13-1.625.39-2.255.26-.63.61-1.145 1.05-1.547.43-.4.93-.696 1.49-.883.56-.188 1.13-.28 1.72-.28.58 0 1.15.092 1.7.28.55.187 1.05.482 1.49.883.44.402.79.917 1.06 1.547.27.63.4 1.38.4 2.255 0 .878-.14 1.63-.41 2.254-.27.624-.63 1.137-1.07 1.538-.44.4-.94.7-1.5.892-.56.193-1.12.29-1.7.29-.58 0-1.14-.097-1.7-.29-.56-.193-1.06-.49-1.5-.892-.44-.4-.8-.914-1.07-1.538s-.41-1.376-.41-2.254zm2.23 0c0 .457.05.874.14 1.252.09.378.24.705.44.98.19.275.44.492.75.65.31.16.67.238 1.08.238.81 0 1.41-.274 1.82-.822.4-.548.61-1.314.61-2.298 0-.44-.05-.85-.15-1.23-.1-.382-.25-.707-.45-.977-.2-.26-.45-.48-.76-.63-.31-.15-.67-.23-1.09-.23-.8 0-1.41.27-1.82.81-.41.54-.61 1.3-.61 2.27zM144.58 17V7.446h2.215V9.01h.035c.305-.48.726-.89 1.266-1.234.54-.343 1.262-.514 2.17-.514h.15l-.07 2.03c-.065-.012-.166-.02-.304-.026-.14-.006-.24-.01-.297-.01-.72 0-1.315.155-1.783.462-.47.308-.86.72-1.17 1.235V17h-2.214zm6.337 3.42l.5-1.785c.136.04.344.085.625.132.28.046.612.07 1 .07.39 0 .702-.084.93-.25.23-.168.422-.444.58-.83l.264-.704-3.665-9.607h2.31l2.46 6.96h.04l2.45-6.96h2.2l-4.07 10.6c-.16.416-.33.79-.52 1.12-.19.332-.42.61-.68.84-.26.228-.57.403-.92.523-.35.12-.76.18-1.22.18-.57 0-1.03-.04-1.38-.11-.35-.07-.64-.13-.88-.19z" fill="#FFF"/></g></svg>