<?xml version="1.0" encoding="UTF-8"?>
<svg width="26px" height="26px" viewBox="0 0 26 26" version="1.1" xmlns="http://www.w3.org/2000/svg" xmlns:xlink="http://www.w3.org/1999/xlink">
    <!-- Generator: Sketch 46.2 (44496) - http://www.bohemiancoding.com/sketch -->
    <title>if_setting_1814117</title>
    <desc>Created with Sketch.</desc>
    <defs></defs>
    <g id="Kyma-UI" stroke="none" stroke-width="1" fill="none" fill-rule="evenodd">
        <g id="Env/Service" transform="translate(-1354.000000, -7.000000)" fill-rule="nonzero" fill="#32363A">
            <g id="if_setting_1814117" transform="translate(1354.000000, 7.000000)">
                <path d="M13,19.0666667 C9.67138643,19.0666667 6.93333333,16.3286136 6.93333333,13 C6.93333333,9.67138643 9.67138643,6.93333333 13,6.93333333 C16.3286136,6.93333333 19.0666667,9.67138643 19.0666667,13 C19.0666667,16.3286136 16.3286136,19.0666667 13,19.0666667 L13,19.0666667 Z M13,8.22182891 C10.3693215,8.22182891 8.22182891,10.3693215 8.22182891,13 C8.22182891,15.6306785 10.3693215,17.7781711 13,17.7781711 C15.6306785,17.7781711 17.7781711,15.6306785 17.7781711,13 C17.7781711,10.3693215 15.6306785,8.22182891 13,8.22182891 L13,8.22182891 Z" id="Fill-45"></path>
                <path d="M14.8571429,26 L11.1428571,26 L10.105042,22.8319328 C9.39495798,22.6134454 8.7394958,22.3403361 8.08403361,22.012605 L5.07983193,23.5420168 L2.45798319,20.9201681 L3.98739496,17.9159664 C3.65966387,17.2605042 3.33193277,16.605042 3.16806723,15.894958 L0,14.8571429 L0,11.1428571 L3.16806723,10.105042 C3.38655462,9.39495798 3.65966387,8.7394958 3.98739496,8.08403361 L2.45798319,5.07983193 L5.07983193,2.45798319 L8.08403361,3.98739496 C8.7394958,3.65966387 9.39495798,3.33193277 10.105042,3.16806723 L11.1428571,0 L14.8571429,0 L15.894958,3.16806723 C16.605042,3.38655462 17.2605042,3.65966387 17.9159664,3.98739496 L20.9201681,2.45798319 L23.5420168,5.07983193 L22.012605,8.08403361 C22.3403361,8.7394958 22.6680672,9.39495798 22.8319328,10.105042 L26,11.1428571 L26,14.8571429 L22.8319328,15.894958 C22.6134454,16.605042 22.3403361,17.2605042 22.012605,17.9159664 L23.5420168,20.9201681 L20.9201681,23.5420168 L17.9159664,22.012605 C17.2605042,22.3403361 16.605042,22.6680672 15.894958,22.8319328 L14.8571429,26 L14.8571429,26 Z M12.0714286,24.7436975 L13.9285714,24.7436975 L14.9117647,21.7941176 L15.2394958,21.6848739 C16.0588235,21.4663866 16.8235294,21.1386555 17.5882353,20.7016807 L17.9159664,20.5378151 L20.7016807,21.9579832 L22.012605,20.6470588 L20.592437,17.8613445 L20.7563025,17.5336134 C21.1932773,16.8235294 21.5210084,16.0042017 21.7394958,15.1848739 L21.8487395,14.8571429 L24.7983193,13.8739496 L24.7983193,12.0168067 L21.8487395,11.0336134 L21.7394958,10.7058824 C21.5210084,9.88655462 21.1932773,9.06722689 20.7563025,8.35714286 L20.592437,8.02941176 L22.012605,5.24369748 L20.7016807,3.93277311 L17.9159664,5.35294118 L17.5882353,5.18907563 C16.8781513,4.75210084 16.0588235,4.42436975 15.2394958,4.20588235 L14.9117647,4.09663866 L13.9285714,1.14705882 L12.0714286,1.14705882 L11.0882353,4.09663866 L10.7605042,4.20588235 C9.94117647,4.42436975 9.17647059,4.75210084 8.41176471,5.18907563 L8.08403361,5.35294118 L5.29831933,3.93277311 L3.98739496,5.24369748 L5.40756303,8.02941176 L5.24369748,8.35714286 C4.80672269,9.06722689 4.4789916,9.88655462 4.2605042,10.7058824 L4.1512605,11.0336134 L1.20168067,12.0168067 L1.20168067,13.8739496 L4.1512605,14.8571429 L4.2605042,15.1848739 C4.4789916,16.0042017 4.80672269,16.8235294 5.24369748,17.5336134 L5.40756303,17.8613445 L3.98739496,20.6470588 L5.29831933,21.9579832 L8.08403361,20.5378151 L8.41176471,20.7016807 C9.12184874,21.1386555 9.94117647,21.4663866 10.7605042,21.6848739 L11.0882353,21.7941176 L12.0714286,24.7436975 L12.0714286,24.7436975 Z" id="Fill-46"></path>
            </g>
        </g>
    </g>
</svg>
