<svg xmlns="http://www.w3.org/2000/svg" xmlns:xlink="http://www.w3.org/1999/xlink" style="display:none">
<symbol id='settings' viewBox='0 0 16 16'><title id="icon-settings-title">Brand</title>
    <g id="Symbols" stroke="none" stroke-width="1" fill="none" fill-rule="evenodd">
        <g id="Header/Bright/Default-Copy" transform="translate(-1354.000000, -21.000000)">
            <g id="Page-1" transform="translate(1354.000000, 20.000000)">
                <g id="Group-3" transform="translate(0.000000, 0.001300)">
                    <mask id="mask-2" fill="white">
                        <use xlink:href="#path-1"></use>
                    </mask>
                    <g id="Clip-2"></g>
                    <path d="M7.9998,14.3036 C9.0268,14.3036 9.9228,14.9486 10.2748,15.8736 C10.6758,15.7406 11.0638,15.5736 11.4378,15.3716 C11.3928,15.1866 11.3698,14.9966 11.3698,14.8036 C11.3698,13.4606 12.4618,12.3686 13.8048,12.3686 C13.9978,12.3686 14.1868,12.3916 14.3728,12.4366 C14.5738,12.0636 14.7418,11.6746 14.8748,11.2746 C13.9488,10.9216 13.3048,10.0266 13.3048,8.9986 C13.3048,7.9716 13.9488,7.0756 14.8748,6.7236 C14.7418,6.3236 14.5738,5.9346 14.3728,5.5616 C14.1868,5.6066 13.9978,5.6286 13.8048,5.6286 C12.4618,5.6286 11.3698,4.5366 11.3698,3.1946 C11.3698,3.0006 11.3928,2.8116 11.4378,2.6256 C11.0638,2.4246 10.6758,2.2566 10.2748,2.1236 C9.9228,3.0496 9.0268,3.6946 7.9998,3.6946 C6.9728,3.6946 6.0768,3.0496 5.7248,2.1236 C5.3238,2.2566 4.9358,2.4246 4.5618,2.6256 C4.6068,2.8116 4.6298,3.0006 4.6298,3.1946 C4.6298,4.5366 3.5378,5.6286 2.1948,5.6286 C2.0018,5.6286 1.8128,5.6066 1.6268,5.5616 C1.4258,5.9346 1.2578,6.3236 1.1248,6.7236 C2.0508,7.0756 2.6948,7.9716 2.6948,8.9986 C2.6948,10.0266 2.0508,10.9216 1.1248,11.2746 C1.2578,11.6746 1.4258,12.0636 1.6268,12.4366 C1.8128,12.3916 2.0018,12.3686 2.1948,12.3686 C3.5378,12.3686 4.6298,13.4606 4.6298,14.8036 C4.6298,14.9966 4.6068,15.1866 4.5618,15.3716 C4.9358,15.5736 5.3238,15.7406 5.7248,15.8736 C6.0768,14.9486 6.9728,14.3036 7.9998,14.3036 M9.9188,16.9986 C9.8188,16.9986 9.7208,16.9696 9.6378,16.9116 C9.5188,16.8306 9.4398,16.7026 9.4228,16.5606 C9.3328,15.8436 8.7218,15.3036 7.9998,15.3036 C7.2778,15.3036 6.6668,15.8436 6.5768,16.5606 C6.5598,16.7026 6.4808,16.8306 6.3618,16.9116 C6.2448,16.9946 6.0968,17.0206 5.9578,16.9836 C5.1628,16.7816 4.4008,16.4586 3.6948,16.0256 C3.4798,15.8936 3.3968,15.6226 3.5018,15.3926 C3.5868,15.2056 3.6298,15.0076 3.6298,14.8036 C3.6298,14.0126 2.9858,13.3686 2.1948,13.3686 C1.9908,13.3686 1.7928,13.4116 1.6058,13.4966 C1.3808,13.5986 1.1038,13.5196 0.9738,13.3036 C0.5398,12.5976 0.2178,11.8356 0.0158,11.0406 C-0.0202,10.9026 0.0058,10.7546 0.0868,10.6366 C0.1678,10.5176 0.2958,10.4396 0.4378,10.4216 C1.1548,10.3316 1.6948,9.7206 1.6948,8.9986 C1.6948,8.2776 1.1548,7.6656 0.4378,7.5756 C0.2958,7.5586 0.1678,7.4806 0.0868,7.3616 C0.0058,7.2426 -0.0202,7.0956 0.0158,6.9566 C0.2178,6.1616 0.5398,5.4006 0.9738,4.6946 C1.1038,4.4796 1.3808,4.3976 1.6058,4.5006 C1.7928,4.5856 1.9908,4.6286 2.1948,4.6286 C2.9858,4.6286 3.6298,3.9856 3.6298,3.1946 C3.6298,2.9906 3.5868,2.7916 3.5018,2.6056 C3.3968,2.3746 3.4798,2.1046 3.6948,1.9726 C4.4008,1.5386 5.1628,1.2166 5.9578,1.0146 C6.0958,0.9786 6.2448,1.0046 6.3618,1.0856 C6.4808,1.1666 6.5598,1.2946 6.5768,1.4376 C6.6668,2.1546 7.2778,2.6946 7.9998,2.6946 C8.7218,2.6946 9.3328,2.1546 9.4228,1.4376 C9.4398,1.2946 9.5188,1.1666 9.6378,1.0856 C9.7548,1.0046 9.9058,0.9796 10.0418,1.0146 C10.8368,1.2166 11.5988,1.5386 12.3048,1.9726 C12.5198,2.1046 12.6028,2.3746 12.4978,2.6056 C12.4128,2.7916 12.3698,2.9906 12.3698,3.1946 C12.3698,3.9856 13.0138,4.6286 13.8048,4.6286 C14.0088,4.6286 14.2068,4.5856 14.3938,4.5006 C14.6248,4.3986 14.8958,4.4796 15.0258,4.6946 C15.4598,5.4006 15.7818,6.1616 15.9838,6.9566 C16.0198,7.0956 15.9938,7.2426 15.9128,7.3616 C15.8318,7.4806 15.7038,7.5586 15.5618,7.5756 C14.8448,7.6656 14.3048,8.2776 14.3048,8.9986 C14.3048,9.7206 14.8448,10.3316 15.5618,10.4216 C15.7038,10.4396 15.8318,10.5176 15.9128,10.6366 C15.9938,10.7546 16.0198,10.9026 15.9838,11.0406 C15.7818,11.8356 15.4598,12.5976 15.0258,13.3036 C14.8958,13.5196 14.6258,13.6026 14.3938,13.4966 C14.2068,13.4116 14.0088,13.3686 13.8048,13.3686 C13.0138,13.3686 12.3698,14.0126 12.3698,14.8036 C12.3698,15.0076 12.4128,15.2056 12.4978,15.3926 C12.6028,15.6226 12.5198,15.8936 12.3048,16.0256 C11.5988,16.4586 10.8368,16.7816 10.0418,16.9836 C10.0018,16.9936 9.9598,16.9986 9.9188,16.9986" id="Fill-1" fill="#3F5060" mask="url(#mask-2)"></path>
                </g>
                <path d="M7.9998,6.0003 C6.3458,6.0003 4.9998,7.3463 4.9998,9.0003 C4.9998,10.6543 6.3458,12.0003 7.9998,12.0003 C9.6538,12.0003 10.9998,10.6543 10.9998,9.0003 C10.9998,7.3463 9.6538,6.0003 7.9998,6.0003 M7.9998,13.0003 C5.7938,13.0003 3.9998,11.2063 3.9998,9.0003 C3.9998,6.7943 5.7938,5.0003 7.9998,5.0003 C10.2058,5.0003 11.9998,6.7943 11.9998,9.0003 C11.9998,11.2063 10.2058,13.0003 7.9998,13.0003" id="Fill-4" fill="#3F5060"></path>
            </g>
        </g>
    </g>
</symbol>
<symbol id='user' viewBox='0 0 16 16'><title id="icon-user-title">User</title>
    <g id="Symbols" stroke="none" stroke-width="1" fill="none" fill-rule="evenodd">
        <g id="Header/Bright/Default-Copy" transform="translate(-1392.000000, -21.000000)">
            <g id="Page-1" transform="translate(1392.000000, 21.000000)">
                <path d="M8,1 C6.346,1 5,2.346 5,4 C5,5.654 6.346,7 8,7 C9.654,7 11,5.654 11,4 C11,2.346 9.654,1 8,1 M8,8 C5.794,8 4,6.206 4,4 C4,1.794 5.794,0 8,0 C10.206,0 12,1.794 12,4 C12,6.206 10.206,8 8,8" id="Fill-1" fill="#3F5060"></path>
                <g id="Group-5" transform="translate(0.000000, 9.000000)">
                    <mask id="mask-2" fill="white">
                        <use xlink:href="#path-1"></use>
                    </mask>
                    <g id="Clip-4"></g>
                    <path d="M15.4999968,7 C15.2249968,7 15.0009969,6.776 14.9999969,6.501 L14.9959969,4.244 C14.9959969,2.455 13.5419972,1 11.7539975,1 L4.24299912,1 C2.45499949,1 0.999999792,2.455 0.999999792,4.243 L0.999999792,6.5 C0.999999792,6.776 0.775999838,7 0.499999896,7 C0.223999953,7 0,6.776 0,6.5 L0,4.243 C0,1.903 1.9029996,0 4.24299912,0 L11.7539975,0 C14.0929971,0 15.9959967,1.903 15.9959967,4.243 L15.9999967,6.499 C16.0009967,6.775 15.7769967,6.999 15.5009968,7 L15.4999968,7 Z" id="Fill-3" fill="#3F5060" mask="url(#mask-2)"></path>
                </g>
                <path d="M12.5,16 C12.224,16 12,15.776 12,15.5 L12,13.5 C12,13.224 12.224,13 12.5,13 C12.776,13 13,13.224 13,13.5 L13,15.5 C13,15.776 12.776,16 12.5,16" id="Fill-6" fill="#3F5060"></path>
                <path d="M3.5,16 C3.224,16 3,15.776 3,15.5 L3,13.5 C3,13.224 3.224,13 3.5,13 C3.776,13 4,13.224 4,13.5 L4,15.5 C4,15.776 3.776,16 3.5,16" id="Fill-8" fill="#3F5060"></path>
            </g>
        </g>
    </g>
</symbol>
</svg>