<svg width="10" height="10" viewBox="0 0 10 10" fill="none" xmlns="http://www.w3.org/2000/svg">
<path d="M9.20007 9.99996C9.00007 9.99996 8.79007 9.91996 8.63007 9.76996L5.00007 6.13996L1.37007 9.76996C1.06007 10.08 0.550068 10.08 0.240068 9.76996C-0.0699316 9.45996 -0.0699316 8.94996 0.240068 8.63996L3.87007 5.00996L0.240068 1.37996C-0.0699316 1.06996 -0.0699316 0.559956 0.240068 0.249956C0.550068 -0.0600439 1.06007 -0.0600439 1.37007 0.249956L5.00007 3.87996L8.63007 0.249956C8.94007 -0.0600439 9.45007 -0.0600439 9.76007 0.249956C10.0701 0.559956 10.0701 1.06996 9.76007 1.37996L6.13007 5.00996L9.76007 8.63996C10.0701 8.94996 10.0701 9.45996 9.76007 9.76996C9.60007 9.92996 9.40007 9.99996 9.19007 9.99996H9.20007Z" fill="#556B82"/>
</svg>
