<svg width="320" height="240" viewBox="0 0 320 240" fill="none" xmlns="http://www.w3.org/2000/svg">
<path d="M29.6118 133.019C29.6118 131.938 26.4727 131.072 22.2785 130.875C22.0387 126.687 21.1154 123.572 20.0339 123.574C18.9524 123.577 18.0531 126.715 17.8229 130.926C13.6167 131.214 10.4896 132.153 10.504 133.237C10.5183 134.321 13.643 135.187 17.8373 135.381C18.0891 139.57 19.0003 142.685 20.0795 142.682C21.1586 142.68 22.0627 139.541 22.2929 135.331C26.4991 135.043 29.6238 134.103 29.6118 133.019Z" fill="#D1EFFF"/>
<path d="M297.168 172.858C297.168 171.952 294.539 171.228 291.027 171.063C290.827 167.555 290.054 164.947 289.148 164.949C288.242 164.951 287.489 167.579 287.297 171.105C283.774 171.346 281.156 172.133 281.168 173.041C281.18 173.948 283.797 174.673 287.309 174.836C287.519 178.343 288.282 180.951 289.186 180.949C290.09 180.947 290.847 178.319 291.039 174.793C294.562 174.552 297.178 173.765 297.168 172.858Z" fill="#D1EFFF"/>
<path d="M200.832 50.3864C200.832 49.0281 196.889 47.9409 191.621 47.694C191.32 42.4326 190.16 38.5204 188.802 38.5234C187.443 38.5265 186.314 42.4687 186.025 47.7572C180.742 48.1186 176.814 49.2992 176.832 50.6605C176.85 52.0217 180.775 53.109 186.043 53.3529C186.359 58.6143 187.504 62.5264 188.859 62.5234C190.215 62.5204 191.35 58.5781 191.639 53.2897C196.922 52.9283 200.847 51.7477 200.832 50.3864Z" fill="#D1EFFF"/>
<path fill-rule="evenodd" clip-rule="evenodd" d="M278.404 119.386L254.656 131.748L263.142 148.049L263.142 148.049C264.317 150.305 270.585 149.367 277.143 145.953C283.701 142.539 288.064 137.943 286.89 135.686C286.884 135.676 286.879 135.665 286.873 135.654L278.404 119.386Z" fill="#9EDDFF"/>
<ellipse cx="266.516" cy="125.543" rx="13.3863" ry="4.60565" transform="rotate(-27.5 266.516 125.543)" fill="#B8E6FF"/>
<path fill-rule="evenodd" clip-rule="evenodd" d="M270.738 114.315L254.895 122.562L257.824 128.189L257.824 128.189C257.824 128.189 257.824 128.189 257.824 128.189C258.555 129.594 262.695 128.886 267.07 126.609C271.445 124.331 274.399 121.346 273.668 119.941C273.664 119.934 273.66 119.928 273.657 119.921L270.738 114.315Z" fill="#9EDDFF"/>
<ellipse cx="262.816" cy="118.439" rx="8.93099" ry="2.86759" transform="rotate(-27.5 262.816 118.439)" fill="#B8E6FF"/>
<path fill-rule="evenodd" clip-rule="evenodd" d="M231.719 50.445C232.546 48.7099 232.578 46.6208 231.622 44.7843C230.005 41.679 226.177 40.4721 223.072 42.0886C219.967 43.7052 218.76 47.533 220.376 50.6383C221.333 52.4755 223.063 53.6482 224.96 53.9649L258.075 117.579C259.047 119.446 261.348 120.171 263.214 119.199C265.081 118.228 265.806 115.927 264.835 114.06L231.719 50.445Z" fill="#B8E6FF"/>
<path d="M280.632 43.329C283.065 42.9192 284.537 45.9293 282.719 47.5976L246.913 80.4622C246.341 80.9875 245.426 80.8265 245.067 80.1375L231.067 53.2438C230.697 52.5327 231.128 51.6673 231.918 51.5341L280.632 43.329Z" fill="#9EDDFF"/>
<path d="M279.561 45.5079C281.96 45.0697 283.482 47.9947 281.748 49.708L248.201 82.8447C247.635 83.4033 246.69 83.2549 246.323 82.5498L232.34 55.6886C231.973 54.9835 232.393 54.1246 233.175 53.9817L279.561 45.5079Z" fill="#D1EFFF"/>
<path d="M150.505 157.311L119.736 130.726L242.501 144.861L272.03 170.716L150.505 157.311Z" fill="#64EDD2"/>
<path d="M119.754 130.758L150.442 157.229L137.533 189.421L107.504 161.431L119.754 130.758Z" fill="#64EDD2"/>
<path d="M150.428 157.271L271.994 170.717L259.494 202.017L137.536 189.522L150.428 157.271Z" fill="#00A58A"/>
<path d="M189.588 128.506L158.818 101.92L240.357 112.204L270.109 138.045L189.588 128.506Z" fill="#F58B00"/>
<path d="M158.836 101.955L189.524 128.426L176.957 160.149L146.586 132.628L158.836 101.955Z" fill="#F58B00"/>
<path d="M189.508 128.468L270.162 138.019L257.661 169.319L176.882 160.226L189.508 128.468Z" fill="#CC7400"/>
<path fill-rule="evenodd" clip-rule="evenodd" d="M191.586 105.891L172.492 98.2656L170.084 104.295L170.085 104.295C170.085 104.295 170.085 104.295 170.085 104.295C169.537 105.667 173.367 108.486 178.64 110.591C183.912 112.697 188.631 113.292 189.179 111.92C189.181 111.913 189.184 111.906 189.187 111.899L191.586 105.891Z" fill="#CC7400"/>
<ellipse cx="182.039" cy="102.078" rx="10.2801" ry="2.67452" transform="rotate(21.7698 182.039 102.078)" fill="#F58B00"/>
<path fill-rule="evenodd" clip-rule="evenodd" d="M217.992 109.446L198.898 101.82L196.491 107.849L196.491 107.849C196.491 107.85 196.491 107.85 196.491 107.85C195.943 109.221 199.773 112.041 205.046 114.146C210.318 116.252 215.037 116.847 215.584 115.475C215.586 115.471 215.587 115.468 215.589 115.464L217.992 109.446Z" fill="#CC7400"/>
<ellipse cx="208.446" cy="105.632" rx="10.2801" ry="2.67452" transform="rotate(21.7698 208.446 105.632)" fill="#F58B00"/>
<path fill-rule="evenodd" clip-rule="evenodd" d="M243.453 112.043L224.359 104.418L221.952 110.447L221.952 110.447C221.952 110.447 221.952 110.447 221.952 110.447C221.404 111.819 225.234 114.638 230.507 116.744C235.779 118.85 240.498 119.444 241.046 118.073C241.048 118.067 241.05 118.06 241.053 118.054L243.453 112.043Z" fill="#CC7400"/>
<ellipse cx="233.907" cy="108.23" rx="10.2801" ry="2.67452" transform="rotate(21.7698 233.907 108.23)" fill="#F58B00"/>
<path fill-rule="evenodd" clip-rule="evenodd" d="M258.512 127.684L239.418 120.059L237.01 126.088L237.01 126.088C237.01 126.088 237.01 126.088 237.01 126.088C236.462 127.46 240.293 130.279 245.565 132.384C250.838 134.49 255.556 135.085 256.104 133.713C256.105 133.71 256.107 133.706 256.108 133.703L258.512 127.684Z" fill="#CC7400"/>
<ellipse cx="248.965" cy="123.871" rx="10.2801" ry="2.67452" transform="rotate(21.7698 248.965 123.871)" fill="#F58B00"/>
<path fill-rule="evenodd" clip-rule="evenodd" d="M233.84 125.2L214.746 117.574L212.338 123.603L212.339 123.603C212.339 123.603 212.338 123.604 212.338 123.604C211.791 124.975 215.621 127.794 220.893 129.9C226.166 132.006 230.884 132.601 231.432 131.229C231.435 131.223 231.437 131.217 231.439 131.211L233.84 125.2Z" fill="#CC7400"/>
<ellipse cx="224.293" cy="121.386" rx="10.2801" ry="2.67452" transform="rotate(21.7698 224.293 121.386)" fill="#F58B00"/>
<path fill-rule="evenodd" clip-rule="evenodd" d="M207.434 121.645L188.34 114.02L185.932 120.049L185.932 120.049C185.932 120.049 185.932 120.049 185.932 120.049C185.384 121.421 189.214 124.24 194.487 126.345C199.76 128.451 204.478 129.046 205.026 127.674C205.027 127.671 205.029 127.667 205.03 127.664L207.434 121.645Z" fill="#CC7400"/>
<ellipse cx="197.887" cy="117.832" rx="10.2801" ry="2.67452" transform="rotate(21.7698 197.887 117.832)" fill="#F58B00"/>
<path fill-rule="evenodd" clip-rule="evenodd" d="M152.504 134.694L133.41 127.068L131.002 133.097L131.003 133.098C131.003 133.098 131.003 133.098 131.003 133.098C130.455 134.47 134.285 137.289 139.558 139.394C144.83 141.5 149.549 142.095 150.096 140.723C150.099 140.717 150.101 140.71 150.104 140.704L152.504 134.694Z" fill="#00A58A"/>
<ellipse cx="142.957" cy="130.88" rx="10.2801" ry="2.67452" transform="rotate(21.7698 142.957 130.88)" fill="#64EDD2"/>
<path fill-rule="evenodd" clip-rule="evenodd" d="M168.352 150.448L149.258 142.822L146.851 148.848C146.851 148.849 146.85 148.85 146.85 148.852C146.302 150.223 150.132 153.042 155.405 155.148C160.678 157.254 165.396 157.849 165.944 156.477C165.944 156.477 165.944 156.477 165.944 156.477L168.352 150.448Z" fill="#00A58A"/>
<ellipse cx="158.805" cy="146.634" rx="10.2801" ry="2.67452" transform="rotate(21.7698 158.805 146.634)" fill="#64EDD2"/>
<path d="M77.1355 91.0385L36.4802 91.8732L103.953 44.9511L143.355 44.2444L77.1355 91.0385Z" fill="#0070F2"/>
<path d="M36.5157 91.8849L77.0339 91.0203L88.407 121.875L47.9386 122.875L36.5157 91.8849Z" fill="#004DA5"/>
<path d="M77.0511 91.0625L143.376 44.1885L155.033 75.8128L88.4089 121.876L77.0511 91.0625Z" fill="#005DC9"/>
<path fill-rule="evenodd" clip-rule="evenodd" d="M63.4867 72.8951L44.1953 80.0059L46.4406 86.0973L46.4407 86.0973C46.4407 86.0973 46.4408 86.0974 46.4408 86.0975C46.9516 87.4834 51.6843 87.0151 57.0115 85.0516C62.3386 83.088 66.243 80.3727 65.7322 78.9867C65.7307 78.9827 65.7291 78.9786 65.7276 78.9746L63.4867 72.8951Z" fill="#004DA5"/>
<ellipse cx="53.8402" cy="76.4502" rx="10.2801" ry="2.67452" transform="rotate(-20.2337 53.8402 76.4502)" fill="#005DC9"/>
<path fill-rule="evenodd" clip-rule="evenodd" d="M85.4867 57.8658L66.1953 64.9766L68.4406 71.068L68.4409 71.0679C68.4409 71.068 68.441 71.0681 68.441 71.0682C68.9518 72.4541 73.6845 71.9859 79.0117 70.0223C84.3388 68.0587 88.2432 65.3434 87.7324 63.9575C87.73 63.951 87.7275 63.9445 87.7249 63.9381L85.4867 57.8658Z" fill="#004DA5"/>
<ellipse cx="75.8402" cy="61.4209" rx="10.2801" ry="2.67452" transform="rotate(-20.2337 75.8402 61.4209)" fill="#005DC9"/>
<path fill-rule="evenodd" clip-rule="evenodd" d="M106.147 42.7584L86.8555 49.8691L89.1008 55.9606L89.1008 55.9606C89.1008 55.9607 89.1009 55.9608 89.1009 55.961C89.6118 57.3469 94.3444 56.8786 99.6716 54.9151C104.999 52.9515 108.903 50.2362 108.392 48.8502C108.392 48.8484 108.391 48.8467 108.39 48.8449L106.147 42.7584Z" fill="#004DA5"/>
<ellipse cx="96.5004" cy="46.3135" rx="10.2801" ry="2.67452" transform="rotate(-20.2337 96.5004 46.3135)" fill="#005DC9"/>
<path fill-rule="evenodd" clip-rule="evenodd" d="M127.803 44.3033L108.512 51.4141L110.757 57.5055L110.757 57.5054C110.757 57.5055 110.757 57.5056 110.757 57.5057C111.268 58.8917 116.001 58.4234 121.328 56.4598C126.655 54.4962 130.56 51.7809 130.049 50.395C130.046 50.3885 130.044 50.3821 130.041 50.3757L127.803 44.3033Z" fill="#004DA5"/>
<ellipse cx="118.157" cy="47.8584" rx="10.2801" ry="2.67452" transform="rotate(-20.2337 118.157 47.8584)" fill="#005DC9"/>
<path fill-rule="evenodd" clip-rule="evenodd" d="M107.807 58.9674L88.5156 66.0781L90.76 72.1672C90.7604 72.1681 90.7607 72.169 90.761 72.1699C91.2719 73.5559 96.0045 73.0876 101.332 71.124C106.659 69.1605 110.563 66.4451 110.052 65.0592C110.052 65.0591 110.052 65.059 110.052 65.0589L107.807 58.9674Z" fill="#004DA5"/>
<ellipse cx="98.1605" cy="62.5225" rx="10.2801" ry="2.67452" transform="rotate(-20.2337 98.1605 62.5225)" fill="#005DC9"/>
<path fill-rule="evenodd" clip-rule="evenodd" d="M85.807 73.9967L66.5156 81.1074L68.7609 87.1989L68.7612 87.1988C68.7612 87.1988 68.7612 87.1989 68.7612 87.1989C69.2721 88.5849 74.0047 88.1166 79.3319 86.153C84.6591 84.1894 88.5635 81.4741 88.0526 80.0882C88.0503 80.0818 88.0478 80.0755 88.0453 80.0692L85.807 73.9967Z" fill="#004DA5"/>
<ellipse cx="76.1605" cy="77.5518" rx="10.2801" ry="2.67452" transform="rotate(-20.2337 76.1605 77.5518)" fill="#005DC9"/>
<rect x="59.375" y="140.338" width="18.3605" height="45.4466" transform="rotate(44.3357 59.375 140.338)" fill="#D1EFFF"/>
<rect x="72.5078" y="153.17" width="35.3742" height="45.4466" transform="rotate(44.3357 72.5078 153.17)" fill="#B8E6FF"/>
<rect x="82.125" y="162.568" width="21.9245" height="45.4466" transform="rotate(44.3357 82.125 162.568)" fill="#9EDDFF"/>
<rect x="63.2266" y="162.668" width="16.9292" height="20.1533" transform="rotate(44.3357 63.2266 162.668)" fill="#9EDDFF"/>
<path d="M74.1712 187.12C70.4094 191.224 64.7527 192.161 61.5367 189.213C58.3206 186.265 58.7629 180.549 62.5247 176.445C66.2864 172.341 71.9431 171.403 75.1592 174.351C78.3753 177.299 77.9329 183.016 74.1712 187.12Z" fill="#9EDDFF"/>
<path fill-rule="evenodd" clip-rule="evenodd" d="M63.5637 187.002C65.0866 188.398 68.8293 188.508 71.9596 185.093C75.0899 181.678 74.6549 177.959 73.1321 176.563C71.6092 175.167 67.8666 175.057 64.7362 178.472C61.6059 181.887 62.0409 185.606 63.5637 187.002ZM61.5367 189.213C64.7527 192.161 70.4094 191.224 74.1712 187.12C77.9329 183.016 78.3753 177.299 75.1592 174.351C71.9431 171.403 66.2864 172.341 62.5247 176.445C58.7629 180.549 58.3206 186.265 61.5367 189.213Z" fill="#B8E6FF"/>
<path fill-rule="evenodd" clip-rule="evenodd" d="M92.153 177.957L72.5734 158.826L46.4034 185.61L65.983 204.741L92.153 177.957ZM72.5078 153.17L40.747 185.676L66.0486 210.398L97.8095 177.892L72.5078 153.17Z" fill="#D1EFFF"/>
</svg>
