<?xml version="1.0" encoding="utf-8"?>
<!-- Generator: Adobe Illustrator 22.0.1, SVG Export Plug-In . SVG Version: 6.00 Build 0)  -->
<svg version="1.1" id="Ebene_1" xmlns="http://www.w3.org/2000/svg" xmlns:xlink="http://www.w3.org/1999/xlink" x="0px" y="0px"
     width="15px" height="15px" viewBox="0 0 15 15" style="enable-background:new 0 0 15 15;" xml:space="preserve">
<style type="text/css">
    .st0{fill:#63758B;}
</style>
<g>
    <path class="st0" d="M12.5,6.6c-0.3,0-0.5,0.2-0.5,0.5v4c0,0.5-0.4,0.8-0.8,0.8H3.8C3.4,12,3,11.6,3,11.1V3.8C3,3.3,3.4,3,3.8,3h4
        c0.3,0,0.5-0.2,0.5-0.5S8.1,2,7.8,2h-4C2.8,2,2,2.8,2,3.8v7.3c0,1,0.8,1.8,1.8,1.8h7.3c1,0,1.8-0.8,1.8-1.8v-4
        C13,6.9,12.8,6.6,12.5,6.6z"/>
    <path class="st0" d="M15,0.3c-0.1-0.1-0.1-0.2-0.3-0.3c-0.1,0-0.1,0-0.2,0h-4C10.2,0,10,0.2,10,0.5S10.2,1,10.5,1h2.8L6.8,7.4
        C6.6,7.6,6.6,8,6.8,8.2C6.9,8.3,7,8.3,7.2,8.3s0.3,0,0.4-0.1L14,1.7v2.8C14,4.7,14.2,5,14.5,5S15,4.7,15,4.5v-4
        C15,0.4,15,0.3,15,0.3z"/>
</g>
</svg>
