<svg width="320" height="240" viewBox="0 0 320 240" fill="none" xmlns="http://www.w3.org/2000/svg">
<path d="M188.487 169.155L191.029 134.968L156.035 163.36L167.94 191.23C169.056 193.842 172.573 194.284 174.3 192.028L185.191 177.809C187.107 175.306 188.253 172.299 188.487 169.155Z" fill="#DF1278"/>
<path d="M189.791 151.6C187.285 154.478 184.514 157.107 182.236 158.981C176.377 163.804 179.325 176.839 174.189 182.427L169.311 187.732C168.661 188.439 167.861 188.883 167.022 189.084L156.034 163.361L191.029 134.968L189.791 151.6Z" fill="#9B015D"/>
<path d="M167.55 77.7015C126.467 109.513 100.918 143.114 97.9378 161.27C97.41 179.241 113.4 188.946 122.68 189.745C137.696 188.064 159.832 167.464 187.145 145.082C221.915 116.588 262.841 52.249 252.711 41.6036C243.138 31.5441 213.368 42.2236 167.55 77.7015Z" fill="#FFEAF4"/>
<path d="M178.858 151.61C181.124 124.375 162.251 112.957 147.726 107.69C146.574 107.272 145.868 108.789 146.88 109.481C157.541 116.775 170.351 127.693 171.69 140.751C173.303 156.495 177.534 151.61 178.858 151.61Z" fill="#FFB2D2"/>
<path d="M252.053 40.9754C252.281 41.1749 252.5 41.3836 252.708 41.6029C262.839 52.2484 221.914 116.588 187.144 145.081C159.831 167.463 137.694 188.063 122.678 189.744C113.399 188.945 97.4082 179.24 97.9358 161.27C100.111 148.019 114.308 126.543 137.79 103.539C134.28 123.466 135.169 142.377 153.514 152.633L189.503 127.447L190.288 126.913C198.533 121.294 202.231 111.011 199.453 101.428L234.578 76.8309C244.062 67.7114 250.158 51.4675 252.053 40.9754Z" fill="#FFB2D2"/>
<path d="M213.535 47.2941C233.493 37.0504 246.867 35.462 252.711 41.6038C256.822 45.9245 252.524 59.0876 243.641 75.1094C243.251 70.6174 241.643 65.6371 237.893 60.724C232.268 53.3545 222.407 49.3253 213.535 47.2941Z" fill="#DF1278"/>
<path d="M242.965 76.5301C252.882 59.0649 257.014 46.1256 252.711 41.6042C252.506 41.3884 252.288 41.1812 252.058 40.9826C252.586 48.2735 247.197 58.9267 241.843 67.6015C243.554 71.8618 243.264 72.9417 242.965 76.5301Z" fill="#9B015D"/>
<path d="M105.152 143.523C113.131 142.153 123.182 145.821 131.049 153.774C139.708 162.527 143.149 173.869 140.427 182.116C133.736 186.403 127.794 189.172 122.679 189.745C113.4 188.945 97.4102 179.24 97.9378 161.27C98.7425 156.367 101.194 150.339 105.152 143.523Z" fill="#DF1278"/>
<ellipse cx="111.549" cy="173.605" rx="16.0465" ry="7.62008" transform="rotate(49.2452 111.549 173.605)" fill="#9B015D"/>
<path d="M93.0746 104.879L102.218 97.8615C106.731 94.3985 112.201 92.4114 117.884 92.1711L150.838 90.7773C149.491 104.871 125.126 121.627 120.143 123.323L94.227 113.095C90.7801 111.735 90.1349 107.135 93.0746 104.879Z" fill="#DF1278"/>
<ellipse cx="170.316" cy="141.739" rx="6.97196" ry="24.1305" transform="rotate(50.9269 170.316 141.739)" fill="#DF1278"/>
<path d="M230.267 103.764C223.416 114.543 211.557 118.26 202.919 112.77C194.28 107.28 192.887 94.9159 199.737 84.1367C206.1 75.1226 217.235 70.3504 226.779 75.1226C235.418 80.6125 237.117 92.9843 230.267 103.764Z" fill="#DF1278"/>
<ellipse cx="218.481" cy="96.2429" rx="13.6223" ry="16.8587" transform="rotate(32.437 218.481 96.2429)" fill="#56BDFF"/>
<path d="M208.632 86.6708C209.823 85.2347 211.153 84.0074 212.56 83.0126L231.801 90.0826C231.993 91.6861 231.939 93.3886 231.631 95.1214L208.632 86.6708Z" fill="white"/>
<path d="M230.979 97.7114C230.437 99.3979 229.66 101.081 228.634 102.696C227.773 104.052 226.795 105.271 225.736 106.341L203.758 98.2659C204.005 95.1938 205.068 91.9478 206.982 88.9358C206.989 88.9243 206.996 88.9126 207.004 88.9012L230.979 97.7114Z" fill="white"/>
<path d="M228.76 82.9018C234.151 87.3457 234.867 96.3096 230.183 103.68C225.189 111.537 215.948 114.608 209.542 110.537C209.253 110.353 208.976 110.157 208.708 109.951C215.556 110.547 222.677 107.175 226.813 100.667C230.377 95.0587 230.891 88.4326 228.76 82.9018Z" fill="#9B015D"/>
<path d="M79.9031 201.307C99.3284 192.934 136.599 173.268 126.551 162.215C112.213 146.443 87.5412 191.543 79.9031 201.307Z" fill="#FFDF72"/>
<path d="M130.989 153.73C140.55 163.394 142.81 175.185 140.617 181.969C133.97 186.63 127.301 189.176 122.62 189.701C120.263 189.498 117.473 188.72 114.63 187.378L115.777 186.06C118.321 186.98 120.547 186.938 121.965 185.716C125.153 182.968 123.048 175.299 117.262 168.586C111.477 161.873 104.202 158.658 101.014 161.405C99.4983 162.711 99.1795 165.131 99.8841 168.032L98.7652 169.092C98.1208 166.676 97.7949 164.053 97.878 161.226C98.627 156.662 100.664 150.994 105.05 143.455C113.292 141.031 122.452 145.1 130.989 153.73Z" fill="#DF1278"/>
<path d="M150.75 91.4913C148.675 105.431 125.043 121.656 120.144 123.323L92.4934 112.411C89.81 111.352 89.3077 107.771 91.5959 106.014L93.0845 104.871C104.935 112.512 127.67 117.236 150.75 91.4913Z" fill="#9B015D"/>
<path d="M70.2961 168.353C70.2961 167.757 68.5642 167.279 66.2501 167.17C66.1178 164.859 65.6085 163.141 65.0118 163.142C64.4151 163.144 63.9189 164.875 63.7919 167.198C61.4713 167.357 59.746 167.876 59.7539 168.474C59.7619 169.071 61.4858 169.549 63.7999 169.656C63.9388 171.967 64.4415 173.686 65.0369 173.684C65.6323 173.683 66.1311 171.951 66.2581 169.628C68.5787 169.47 70.3027 168.951 70.2961 168.353Z" fill="#56BDFF"/>
<path d="M266.486 171.535C266.486 170.938 264.754 170.46 262.44 170.352C262.308 168.041 261.798 166.322 261.201 166.324C260.605 166.325 260.109 168.057 259.982 170.38C257.661 170.538 255.936 171.057 255.944 171.655C255.952 172.253 257.676 172.73 259.99 172.838C260.128 175.149 260.631 176.867 261.227 176.866C261.822 176.865 262.321 175.133 262.448 172.81C264.768 172.651 266.492 172.133 266.486 171.535Z" fill="#56BDFF"/>
<path d="M292 106.888C292 106.408 290.606 106.024 288.744 105.936C288.638 104.077 288.228 102.694 287.747 102.695C287.267 102.696 286.868 104.089 286.766 105.959C284.898 106.087 283.51 106.504 283.516 106.985C283.523 107.466 284.91 107.851 286.772 107.937C286.884 109.797 287.289 111.18 287.768 111.179C288.247 111.177 288.648 109.784 288.75 107.914C290.618 107.787 292.005 107.369 292 106.888Z" fill="#56BDFF"/>
<circle cx="49.26" cy="154.769" r="1.17135" fill="#56BDFF"/>
<path d="M45.3989 99.1352C45.3989 98.2071 42.7049 97.4642 39.1053 97.2955C38.8995 93.7004 38.1071 91.0273 37.1789 91.0294C36.2507 91.0314 35.4789 93.7251 35.2813 97.3387C31.6715 97.5856 28.9877 98.3923 29 99.3225C29.0124 100.253 31.6941 100.995 35.2937 101.162C35.5098 104.757 36.2919 107.43 37.218 107.428C38.1441 107.426 38.92 104.733 39.1176 101.119C42.7275 100.872 45.4092 100.065 45.3989 99.1352Z" fill="#56BDFF"/>
<circle cx="236.966" cy="181.281" r="1.17135" fill="#56BDFF"/>
</svg>
