<svg width="161" height="161" viewBox="0 0 161 161" fill="none" xmlns="http://www.w3.org/2000/svg">
<rect x="0.5" y="46" width="160" height="69" rx="12" fill="#89D1FF"/>
<path d="M94.7041 71.5003C94.5839 71.33 94.3484 71.295 94.1781 71.4202L88.6973 74.8225C88.5922 74.9026 88.4053 74.8064 88.3702 74.9266C87.9176 74.4877 88.1318 74.8375 88.0291 74.7213C88.0291 74.7013 87.8565 74.9467 87.8615 74.9266C87.8715 74.8565 87.8765 74.7814 87.8815 74.7062C87.8815 74.6311 87.8865 74.5509 87.8916 74.4658C87.8916 74.4458 87.8916 74.4207 87.8916 74.4007C87.8916 74.3356 87.8916 74.2704 87.8916 74.2053V74.1352C87.8916 74.0651 87.8916 73.9899 87.8916 73.9148C87.8916 73.8947 87.8916 73.8797 87.8916 73.8597C87.8916 73.7645 87.8865 73.6693 87.8765 73.5691C87.7463 71.2348 86.8396 67.7735 83.4684 66.406C82.3413 65.9501 81.1742 65.6496 79.992 65.3991C79.8117 65.359 79.6264 65.334 79.441 65.319C79.3058 65.1787 79.1655 65.0435 79.0303 64.9082C78.885 64.7629 78.7347 64.6227 78.5844 64.4824C77.5175 63.4706 76.3954 62.5138 75.2984 61.5621C73.2647 59.8038 71.2009 57.695 68.5109 57.0037C67.0532 56.628 65.6106 56.107 64.3733 55.2505C63.9074 54.9299 63.3915 54.6494 62.8305 54.5642C61.6082 54.3839 60.421 53.9731 59.3491 53.362C58.5276 52.8911 57.7912 52.1998 56.9446 51.754C56.8845 51.724 56.8244 51.6939 56.7643 51.6639C56.7543 51.6639 56.7493 51.6589 56.7393 51.6538C56.6842 51.6288 56.6341 51.6038 56.579 51.5837C56.5539 51.5737 56.5289 51.5637 56.5088 51.5537C56.4688 51.5386 56.4287 51.5236 56.3836 51.5086C56.3135 51.4835 56.2434 51.4635 56.1782 51.4435C56.0781 51.4184 55.9628 51.3984 55.8827 51.4635C55.7374 51.5737 55.8326 51.8041 55.9378 51.9544C56.3285 52.5154 56.7192 53.0765 57.11 53.6375C57.1701 53.7226 57.2352 53.8128 57.2953 53.903C57.3554 53.9931 57.4205 54.0833 57.4856 54.1735C57.5508 54.2636 57.6159 54.3588 57.681 54.454C57.7461 54.5492 57.8162 54.6393 57.8814 54.7345C57.9465 54.8297 58.0166 54.9249 58.0817 55.02C58.1168 55.0701 58.1469 55.1152 58.1819 55.1653C58.247 55.2605 58.3172 55.3556 58.3823 55.4508C58.4174 55.4959 58.4474 55.546 58.4825 55.5911C58.5827 55.7313 58.6828 55.8716 58.778 56.0068C58.8431 56.097 58.9083 56.1872 58.9734 56.2773C59.0385 56.3675 59.0986 56.4527 59.1637 56.5378C59.319 56.7532 59.4643 56.9536 59.6045 57.1439C59.6847 57.2541 59.7648 57.3643 59.84 57.4645C60.1155 57.8302 60.3259 58.1057 60.4461 58.2359C60.7901 58.6103 59.0438 58.5978 58.6879 58.5816C58.237 58.5615 57.8062 58.2961 57.4406 58.0506C57.0799 57.8052 56.7443 57.5347 56.3786 57.2992C56.0981 57.1189 55.8025 56.9636 55.482 56.8734C55.2215 56.7983 54.956 56.7733 54.6905 56.7282C52.6568 56.3976 51.1239 55.1803 49.4258 54.1334C49.2755 54.0382 49.1303 53.9581 48.995 53.8829C48.995 53.8829 48.995 53.8829 48.99 53.8829C48.9499 53.8629 48.9099 53.8429 48.8698 53.8228C48.8598 53.8228 48.8548 53.8128 48.8448 53.8078C48.8147 53.7928 48.7796 53.7777 48.7496 53.7627C48.7396 53.7577 48.7295 53.7527 48.7195 53.7477C48.6895 53.7327 48.6644 53.7226 48.6394 53.7126C48.6294 53.7126 48.6193 53.7026 48.6093 53.7026C48.5843 53.6926 48.5592 53.6826 48.5342 53.6776C48.5242 53.6776 48.5141 53.6726 48.5041 53.6675C48.4791 53.6575 48.454 53.6525 48.434 53.6475C48.429 53.6475 48.419 53.6475 48.414 53.6475C48.3589 53.6375 48.3088 53.6325 48.2637 53.6425C48.2587 53.6425 48.2537 53.6425 48.2487 53.6425C48.2336 53.6425 48.2186 53.6525 48.2086 53.6575C48.2036 53.6575 48.1986 53.6625 48.1885 53.6675C48.1785 53.6726 48.1685 53.6826 48.1585 53.6876C48.1535 53.6926 48.1485 53.6976 48.1435 53.7026C48.1385 53.7126 48.1284 53.7226 48.1234 53.7327C48.0934 53.7928 48.0884 53.8679 48.1034 53.933C48.1034 53.9531 48.1134 53.9731 48.1184 53.9881C48.1385 54.0432 48.1735 54.0933 48.2086 54.1384C48.2436 54.1885 48.2787 54.2336 48.3138 54.2837C48.3388 54.3238 48.3639 54.3588 48.3939 54.3939C48.424 54.439 48.454 54.479 48.4841 54.5241C48.5192 54.5742 48.5492 54.6193 48.5843 54.6694C48.6193 54.7245 48.6594 54.7746 48.6945 54.8297C48.7345 54.8898 48.7746 54.9449 48.8147 55.005C48.8598 55.0651 48.8999 55.1302 48.9449 55.1903C48.99 55.2555 49.0351 55.3206 49.0802 55.3857C49.1303 55.4558 49.1754 55.521 49.2255 55.5911C49.2755 55.6612 49.3256 55.7364 49.3757 55.8065C49.4258 55.8816 49.4809 55.9568 49.531 56.0269C49.5861 56.102 49.6362 56.1772 49.6913 56.2523C49.7464 56.3274 49.8015 56.4076 49.8566 56.4877C49.9117 56.5679 49.9668 56.648 50.0219 56.7232C50.077 56.8033 50.1321 56.8835 50.1922 56.9636C50.2473 57.0438 50.3074 57.1239 50.3625 57.204C50.4176 57.2842 50.4778 57.3643 50.5329 57.4445C50.588 57.5246 50.6481 57.6048 50.7032 57.6849C50.7583 57.7651 50.8134 57.8452 50.8735 57.9204C50.9286 58.0005 50.9837 58.0757 51.0388 58.1558C51.0939 58.2309 51.149 58.3111 51.2041 58.3862C51.2592 58.4614 51.3093 58.5365 51.3644 58.6116C51.4145 58.6818 51.4696 58.7569 51.5197 58.827C51.5698 58.8972 51.6199 58.9673 51.675 59.0374C51.725 59.1025 51.7701 59.1727 51.8202 59.2378C51.8653 59.3029 51.9154 59.368 51.9605 59.4281C52.0056 59.4882 52.0506 59.5484 52.0957 59.6085C52.1358 59.6636 52.1809 59.7187 52.221 59.7738C52.261 59.8239 52.2961 59.874 52.3362 59.9291C52.3712 59.9741 52.4063 60.0192 52.4414 60.0693C52.4664 60.0994 52.4864 60.1294 52.5065 60.1545C52.6067 60.2797 52.6868 60.3749 52.7419 60.44C52.7519 60.45 52.7569 60.46 52.767 60.4701C52.7519 60.4701 52.7419 60.4701 52.7269 60.465C52.6017 60.445 52.4814 60.43 52.3562 60.4049C52.3512 60.4049 52.3412 60.4049 52.3362 60.4049C52.0807 60.3599 51.8252 60.3048 51.5698 60.2396C51.5597 60.2396 51.5547 60.2396 51.5447 60.2346C51.4195 60.1996 51.2993 60.1645 51.174 60.1244C51.169 60.1244 51.159 60.1244 51.154 60.1194C50.9035 60.0393 50.6531 59.9441 50.4126 59.8289C50.2573 59.7587 50.1071 59.6786 49.9568 59.5934C49.3156 59.2228 48.7646 58.7268 48.2436 58.2009C47.7377 57.695 47.2168 57.2391 46.6808 56.7582C45.7441 55.9167 44.8023 55.0801 43.8606 54.2436C42.8587 53.352 41.8569 52.4653 40.85 51.5837C40.3291 51.1279 39.8031 50.6821 39.2872 50.2212C38.7812 49.7704 38.2603 49.3346 37.6942 48.9689C37.6241 48.9238 37.559 48.8838 37.4889 48.8387C37.3135 48.7335 37.1282 48.6333 36.9529 48.5231C36.8978 48.488 36.8477 48.4479 36.7926 48.4079C36.7826 48.3728 36.7726 48.3428 36.7625 48.3077C36.6774 48.2376 36.5872 48.1724 36.492 48.1274C36.467 48.1123 36.4419 48.1073 36.4219 48.1023H36.4169C36.3768 48.0973 36.3468 48.1173 36.3368 48.1624C36.3117 48.1775 36.2967 48.2075 36.2967 48.2626C36.2967 48.3177 36.3217 48.4179 36.3618 48.5381C36.5822 49.1593 36.9028 49.7353 37.2084 50.3164C37.2985 50.4867 37.5289 50.9075 37.6792 51.183C37.6892 51.198 37.6892 51.218 37.6892 51.2331C37.6642 51.2481 37.6341 51.2531 37.6091 51.2331C37.1883 50.9626 36.3919 50.4767 36.2716 50.632C36.2616 50.642 36.2616 50.652 36.2566 50.667C36.2466 50.667 36.2416 50.677 36.2366 50.6821C36.2065 50.7221 36.2215 50.8023 36.2917 50.9375C36.497 51.3182 36.7976 51.7891 37.0631 52.1948C37.0781 52.2199 37.1933 52.3852 37.3186 52.5705C37.3586 52.6256 37.3586 52.6857 37.3336 52.7358C37.2835 52.7909 37.2033 52.816 37.1232 52.7709C36.0913 52.2199 34.1177 51.178 34.1227 51.4935C34.0926 51.5036 34.0826 51.5286 34.0926 51.5637C34.1778 51.9243 36.9529 55.2454 40.5144 58.6267C40.5996 58.7068 40.6898 58.792 40.7749 58.8721C40.7849 58.8821 40.7899 58.8871 40.8 58.8972C40.8851 58.9773 40.9703 59.0575 41.0554 59.1376C41.0654 59.1476 41.0705 59.1526 41.0805 59.1627C41.1656 59.2428 41.2558 59.3229 41.346 59.4081C41.346 59.4081 41.356 59.4181 41.361 59.4181C41.8218 59.8439 42.2977 60.2647 42.7736 60.6804C42.7786 60.6855 42.7886 60.6905 42.7936 60.6955C42.8738 60.7656 42.9589 60.8407 43.0441 60.9109C43.0641 60.9259 43.0842 60.9459 43.1042 60.961C43.1843 61.0261 43.2595 61.0962 43.3396 61.1613C43.3647 61.1814 43.3897 61.2014 43.4098 61.2214C43.4849 61.2866 43.565 61.3517 43.6402 61.4118C43.6652 61.4318 43.6903 61.4569 43.7153 61.4769C43.7905 61.542 43.8706 61.6021 43.9457 61.6673C43.9708 61.6873 43.9908 61.7073 44.0159 61.7224C44.096 61.7875 44.1762 61.8526 44.2563 61.9177C44.2713 61.9277 44.2814 61.9378 44.2964 61.9478C44.6671 62.2433 45.0327 62.5238 45.4034 62.8043C45.4285 62.8194 45.4485 62.8394 45.4736 62.8544C45.5487 62.9095 45.6238 62.9646 45.694 63.0197C45.724 63.0398 45.7541 63.0648 45.7841 63.0849C45.8543 63.135 45.9244 63.185 45.9995 63.2401C46.0346 63.2652 46.0646 63.2902 46.0997 63.3103C46.1698 63.3604 46.24 63.4055 46.3101 63.4555C46.3452 63.4806 46.3802 63.5006 46.4103 63.5257C46.4804 63.5758 46.5505 63.6208 46.6207 63.6709C46.6507 63.691 46.6858 63.716 46.7158 63.7361C46.786 63.7862 46.8611 63.8312 46.9312 63.8813C46.9563 63.8964 46.9813 63.9164 47.0064 63.9314C47.2819 64.1117 47.5524 64.2821 47.8229 64.4424C47.898 64.4874 47.9681 64.5275 48.0433 64.5726C48.0733 64.5876 48.1034 64.6077 48.1284 64.6227L48.3288 64.7379C48.3639 64.7579 48.3989 64.778 48.434 64.798C48.4991 64.8331 48.5642 64.8681 48.6243 64.9032C48.6594 64.9232 48.6945 64.9433 48.7345 64.9633C48.7997 64.9984 48.8598 65.0284 48.9249 65.0585C48.96 65.0785 48.995 65.0936 49.0351 65.1136C49.1002 65.1436 49.1603 65.1737 49.2204 65.2038C49.2555 65.2188 49.2906 65.2388 49.3256 65.2538C49.3306 65.2538 49.3357 65.2589 49.3407 65.2639C49.3407 65.2639 49.3457 65.2639 49.3507 65.2689C49.4058 65.2939 49.4609 65.319 49.516 65.344C49.546 65.359 49.5761 65.3691 49.6062 65.3841C49.6262 65.3941 49.6462 65.4041 49.6663 65.4091C49.6963 65.4192 49.7214 65.4342 49.7464 65.4442C49.7664 65.4542 49.7865 65.4642 49.8065 65.4692H49.8115C49.9017 65.5093 49.9919 65.5444 50.082 65.5794C50.8641 66.2216 51.3154 68.8178 51.7301 70.3382C51.7351 70.3582 51.7401 70.3783 51.7451 70.3983C51.8353 70.6989 51.9855 71.0094 52.1508 71.2699C52.2711 71.4603 52.4213 71.6306 52.6067 71.7608C52.7419 71.851 53.0525 71.9562 52.9874 72.1766C52.9874 72.1816 52.9824 72.1866 52.9774 72.1966C52.9774 72.1966 52.9774 72.1966 52.9723 72.2016C52.9573 72.2167 52.9423 72.2317 52.9223 72.2417C52.9072 72.2517 52.8872 72.2617 52.8671 72.2718C52.8421 72.2818 52.8171 72.2918 52.787 72.3018C52.787 72.3018 52.787 72.3018 52.782 72.3018C52.7569 72.3118 52.7269 72.3168 52.6968 72.3218C52.6918 72.3218 52.6868 72.3218 52.6818 72.3218C52.6518 72.3218 52.6217 72.3269 52.5916 72.3319C52.5816 72.3319 52.5766 72.3319 52.5666 72.3319C52.4514 72.3319 52.3011 72.3068 52.246 72.432C52.226 72.4521 52.2059 72.4771 52.2009 72.5172C52.1759 72.6074 52.216 72.7076 52.256 72.7927C52.5967 73.5341 53.2779 74.1101 54.0644 74.3255C54.1345 74.3456 54.2246 74.3957 54.2146 74.4608C54.1996 74.4708 54.1796 74.4808 54.1595 74.4858C53.854 74.601 53.5334 74.6762 53.2128 74.7213C53.0525 74.7463 52.8371 74.7213 52.6768 74.7313C52.6117 74.7313 52.4564 74.7513 52.4664 74.8214C52.4163 74.8465 52.4063 74.8916 52.5165 74.9617C53.0876 75.3374 53.6786 75.683 54.2848 75.9936C54.8157 76.2641 55.3267 76.5596 55.9127 76.6949C56.0179 76.7199 56.1231 76.74 56.2183 76.78C56.2434 76.7901 56.2684 76.8051 56.2784 76.8301C56.2784 76.8351 56.2784 76.8452 56.2784 76.8502C56.2634 76.8602 56.2434 76.8702 56.2233 76.8802C55.9228 76.9704 55.6122 77.0105 55.3016 76.9954C55.1914 76.9904 54.941 76.9253 54.8959 77.0706C54.8809 77.0856 54.8658 77.1006 54.8608 77.1257C54.8508 77.1607 54.8508 77.2108 54.8658 77.2659C54.8809 77.316 54.9009 77.3661 54.9309 77.4262C55.3016 78.1426 56.1231 78.6535 56.8946 78.8138C57.11 78.8589 57.3354 78.8789 57.5458 78.944C57.686 78.9841 57.8463 79.0843 57.8313 79.2295C57.8313 79.2596 57.8162 79.2897 57.8012 79.3147C57.7962 79.3247 57.7862 79.3347 57.7812 79.3398C57.701 79.4399 57.4305 79.5201 57.2051 79.5702C57.145 79.5852 57.1049 79.6203 57.0849 79.6654C57.0198 79.7355 57.0148 79.8557 57.0999 79.9258C57.15 79.9659 57.1901 80.001 57.2101 80.016C57.6059 80.3566 58.0567 80.6472 58.5376 80.8525C58.9784 81.0479 59.4593 81.108 59.9151 81.2783C60.5312 81.5087 61.1073 81.8193 61.7034 82.0948C61.7886 82.1649 62.1292 82.4555 62.58 82.8512C62.6852 82.9414 62.7954 83.0416 62.9056 83.1417C63.0208 83.2419 63.136 83.3521 63.2563 83.4573C63.3164 83.5124 63.3765 83.5675 63.4366 83.6226C63.5819 83.7529 63.7221 83.8881 63.8674 84.0184C64.1779 84.3089 64.4835 84.6044 64.774 84.915C64.739 84.92 64.7039 84.93 64.6688 84.93C63.1911 85.0853 61.3978 85.0452 60.2407 86.1222C59.9902 86.3526 59.7799 86.6332 59.5394 86.8686C59.3942 87.0089 59.2389 87.1391 59.0535 87.2293C58.9383 87.2894 58.8131 87.3294 58.6879 87.3645C58.4775 87.4246 58.2621 87.4597 58.0517 87.5298C57.8112 87.6049 57.5908 87.7202 57.3704 87.8454C57.2602 87.9105 57.155 87.9756 57.0448 88.0408C56.9396 88.1059 56.8294 88.176 56.7242 88.2411C55.1764 89.1778 53.348 89.6487 51.5698 89.8841C50.623 90.0094 49.3958 89.6437 48.5943 90.2648C48.1585 90.6005 47.9281 91.1364 47.7427 91.6574C46.6808 94.6479 46.5756 97.7185 46.5305 100.849C46.4804 104.546 46.4904 108.318 46.6056 111.98C46.6657 113.012 46.6908 114.039 46.6858 115.06H54.2597C54.2597 114.885 54.2647 114.715 54.2697 114.539C54.2898 113.397 54.3098 112.215 54.3148 111.058C54.3248 109.761 54.3599 108.453 54.3899 107.186C54.4601 104.406 54.5402 101.526 54.3399 98.7004C54.2547 97.4731 54.1345 96.1707 54.9309 95.1388C55.0361 95.0036 55.1514 94.8733 55.3066 94.7982C55.3918 94.7531 55.487 94.728 55.5821 94.708C55.8326 94.6479 56.0931 94.6078 56.3486 94.5828C56.8395 94.5427 57.3354 94.5678 57.8213 94.4876C58.6428 94.3524 59.2489 93.9065 59.84 93.3505C60.5162 92.7194 61.1223 92.0131 61.7485 91.3318C62.3947 90.6305 63.1511 90.0344 63.9776 89.5686C64.3232 89.3732 64.6889 89.1979 65.0596 89.0526C66.7675 88.3816 69.0585 88.3967 70.8652 88.6769C72.6717 88.9679 73.3893 89.1143 75.1481 88.9073C76.3203 88.7771 77.4574 88.4215 78.5644 88.0257C79.3058 87.7602 80.0471 87.4747 80.8286 87.3294C80.9187 87.3144 81.0089 87.2994 81.1041 87.2844C81.1942 87.2693 81.2794 87.2593 81.3696 87.2543C81.3846 87.2543 81.3946 87.2543 81.4096 87.2543C81.4948 87.2443 81.5799 87.2393 81.6651 87.2343C81.6801 87.2343 81.6952 87.2343 81.7102 87.2343C81.7953 87.2293 81.8805 87.2243 81.9657 87.2192C81.9807 87.2192 81.9957 87.2192 82.0107 87.2192C82.1009 87.2192 82.1861 87.2142 82.2762 87.2092H82.3013C82.6068 87.1992 82.9074 87.1992 83.213 87.1942L86.2285 91.9329C86.4289 92.2535 86.8597 92.519 87.2103 92.4789L101.787 81.5188L94.6941 71.4903L94.7041 71.5003ZM72.0224 85.977C72.0474 86.002 72.0725 86.0321 72.0975 86.0571C72.2077 86.1773 72.3179 86.3076 72.4181 86.4378C71.5164 86.2775 70.3693 86.0521 69.7482 85.9319C69.5979 85.8968 69.4526 85.8718 69.3074 85.8417H69.3024C68.1052 85.6263 67.2436 85.6363 66.7326 85.6413C66.6425 85.5462 66.5323 85.436 66.4171 85.3157C66.6725 85.1454 66.9631 84.9451 67.2786 84.7397L68.2154 83.7378C68.6512 83.9532 69.2122 84.2438 69.7782 84.5493C69.8133 84.5694 69.8534 84.5894 69.8884 84.6094C70.7751 85.0953 71.6467 85.6163 72.0124 85.977H72.0224ZM65.9462 83.3922C65.9462 83.3922 65.9863 83.3972 66.0063 83.4022C66.3419 83.4623 66.6926 83.5224 67.0582 83.5725C67.1334 83.5826 67.2085 83.5926 67.2837 83.6026C67.3488 83.6126 67.4139 83.6176 67.484 83.6276C67.6293 83.6427 67.7746 83.6577 67.9198 83.6727L66.6224 84.2438L66.0163 84.5443C66.0163 84.5443 66.0063 84.5443 66.0013 84.5443C65.9212 84.5794 65.841 84.6145 65.7659 84.6495C65.4303 84.3039 65.0546 83.9282 64.6789 83.5475C64.4835 83.3521 64.2932 83.1568 64.1028 82.9614C64.6588 83.1217 65.27 83.267 65.9462 83.3922ZM76.736 86.4077C76.2301 86.5079 75.7192 86.5731 75.2032 86.5981C75.0229 86.6081 74.8376 86.6131 74.6572 86.6181H74.5821C74.4568 86.6181 74.3316 86.6181 74.2064 86.6131C74.1262 86.4077 74.016 86.2124 73.8758 86.0371C73.6604 85.7766 73.3849 85.6213 73.0893 85.466C72.9541 85.3859 72.7988 85.2907 72.6285 85.1855C72.5734 85.1504 72.5133 85.1154 72.4532 85.0803C71.842 84.7146 71.0656 84.2488 70.3092 83.798C70.755 83.798 71.2109 83.798 71.6868 83.7779C71.847 83.7729 72.0073 83.7629 72.1576 83.7529C72.1977 83.7529 72.2378 83.7479 72.2778 83.7429C72.4131 83.7328 72.5433 83.7278 72.6686 83.7128C72.6886 83.7128 72.7086 83.7128 72.7287 83.7128C72.8789 83.6978 73.0242 83.6877 73.1645 83.6677C73.1895 83.6677 73.2096 83.6677 73.2346 83.6627C73.3598 83.6477 73.4851 83.6326 73.6103 83.6176C73.6253 83.6176 73.6404 83.6176 73.6604 83.6126C73.9409 83.5725 74.2064 83.5275 74.4568 83.4774C74.4669 83.4774 74.4719 83.4774 74.4769 83.4774C74.7324 83.4273 74.9728 83.3672 75.2032 83.307C75.2032 83.302 75.2032 83.292 75.2082 83.287C75.2082 83.292 75.2082 83.297 75.2082 83.302C76.3503 82.9965 77.1368 82.5757 77.6828 82.1098C77.9733 81.8644 78.2288 81.5739 78.4392 81.2583C78.4392 81.2583 78.4392 81.2583 78.4442 81.2533C78.5694 81.0679 78.6796 80.8776 78.7698 80.6772C79.0152 80.1412 78.9752 79.5 79.3659 79.0392C79.5162 78.8589 79.7416 78.6735 79.9469 78.5333C79.9469 78.5333 79.9469 78.5333 79.952 78.5333C80.0121 78.4882 80.0772 78.4481 80.1423 78.403C80.1473 78.403 80.1523 78.393 80.1623 78.388C81.1992 77.6667 81.3613 78.4331 82.6788 78.403C82.8391 78.403 83.0527 78.363 83.213 78.388C83.3232 78.408 83.5601 78.4536 83.6754 78.4686C83.7906 78.4836 83.9555 78.5333 83.9605 78.5333C84.1909 78.5633 84.3219 78.383 84.5473 78.388L84.9563 78.4686L85.3036 78.5844C85.1533 78.5743 85.5973 78.9059 85.4721 79.001L80.3076 81.5381C80.0571 81.7235 79.997 82.0741 80.1623 82.3346L81.5799 84.6044L82.2762 85.6964C81.4197 85.6964 80.5631 85.7115 79.7065 85.8016C79.5763 85.8167 79.446 85.8317 79.3158 85.8517C79.3058 85.8517 79.2907 85.8517 79.2807 85.8567C78.4241 85.992 77.5976 86.2324 76.7511 86.4128H76.7461L76.736 86.4077Z" fill="#1B90FF"/>
<path d="M103.37 77.7117C102.694 77.6215 101.997 77.6115 101.316 77.6115C100.034 77.6115 98.7514 77.6115 97.4741 77.7468C96.1967 77.882 94.9745 78.2627 93.7172 78.5232C92.1092 78.8488 90.4762 78.8538 88.8432 78.6735C87.6711 78.4781 85.7826 78.1074 84.8459 77.9221C84.6555 77.882 84.4702 77.8419 84.2899 77.8119H84.2848C81.1942 77.2509 79.8617 77.877 80.4778 77.2358C80.8285 77.0004 81.2543 76.7099 81.7151 76.4043L83.308 74.7012L80.8736 75.7731L80.1072 76.1589C80.1072 76.1589 80.0971 76.1589 80.0921 76.1589C79.7164 76.3292 79.3357 76.4895 78.93 76.5746C78.7597 76.6047 78.5844 76.6347 78.409 76.6548C76.5306 76.8501 74.2564 76.8 72.7837 78.1726C72.2778 78.6434 71.8971 79.2696 71.2809 79.5801C70.8852 79.7805 70.4344 79.8256 70.0086 79.9608C69.4025 80.1562 68.8715 80.5319 68.3255 80.8625C66.3569 82.0547 64.0376 82.6508 61.7785 82.9463C60.5762 83.1016 59.0134 82.6408 57.9965 83.4322C57.4455 83.863 57.1499 84.5393 56.9145 85.1955C55.562 88.9975 55.4268 92.8946 55.3767 96.8719C55.3116 101.571 55.3266 106.359 55.4769 111.008C55.552 112.32 55.5821 113.623 55.5771 114.92H65.1947C65.1947 114.7 65.1997 114.479 65.2048 114.259C65.2298 112.806 65.2549 111.308 65.2649 109.836C65.2749 108.188 65.32 106.53 65.36 104.922C65.4502 101.39 65.5504 97.7335 65.2949 94.1419C65.1847 92.5841 65.0294 90.931 66.0463 89.6186C66.1765 89.4483 66.3268 89.283 66.5222 89.1878C66.6324 89.1327 66.7526 89.1027 66.8678 89.0726C67.1884 88.9975 67.514 88.9424 67.8396 88.9173C68.4607 88.8622 69.0919 88.8973 69.708 88.7971C70.75 88.6218 71.5214 88.0557 72.2728 87.3544C73.1293 86.553 73.9007 85.6563 74.6972 84.7947C75.5137 83.9031 76.4755 83.1467 77.5274 82.5556C77.9682 82.3052 78.4291 82.0898 78.8999 81.8994C80.0471 81.4436 81.2693 81.1781 82.5016 81.108C83.7338 81.0378 85.0262 81.2282 86.2785 81.4285C87.6911 81.654 89.1237 81.8393 90.5614 81.8042C90.9471 81.7942 91.3328 81.7692 91.7185 81.7291C93.2062 81.5588 94.6489 81.113 96.0615 80.607C97.0032 80.2714 97.945 79.9057 98.9368 79.7254C100.039 79.525 101.176 79.5601 102.298 79.5301C102.573 79.525 102.854 79.51 103.124 79.4449C103.916 79.2495 104.522 78.6134 105.278 78.3078C104.692 77.9772 104.046 77.8069 103.38 77.7167L103.37 77.7117Z" fill="#C35500"/>
<path d="M59.1036 114.78C58.6228 113.983 58.2871 113.102 58.0016 112.225C57.6159 111.043 57.3705 109.806 57.1601 108.578C56.9397 107.266 56.7894 105.949 56.6792 104.621C56.4638 102.026 56.3786 99.4065 56.3686 96.8017C56.3536 94.3021 56.2183 91.4118 58.3272 89.6435C58.7079 89.3229 59.1738 89.0524 59.6747 89.0775C60.1005 89.1025 60.4862 89.343 60.912 89.383C61.6433 89.4482 62.3546 88.797 62.3546 88.0656C62.3546 87.4795 61.9639 86.9385 62.009 86.3525C62.039 85.9317 62.2945 85.551 62.6201 85.2855C64.183 83.9831 66.5373 83.8378 68.4508 83.4521C70.2391 83.0965 71.9873 82.6707 73.5552 81.6939C74.9227 80.8423 75.9697 79.3346 77.6578 79.0741C78.4693 78.9489 79.2807 79.1993 80.0421 79.4949C80.5781 79.7002 81.4698 79.9808 82.0208 80.121C82.4516 80.2312 82.8824 80.3314 83.3182 80.4166C84.2699 80.6069 85.2317 80.7071 86.1985 80.6971C87.03 80.6871 87.8265 80.5318 88.6079 80.2513C89.7099 79.8555 90.7218 79.2644 91.7837 78.7735C90.812 78.8286 89.8301 78.7886 88.8584 78.6784C87.6862 78.483 85.7977 78.1123 84.861 77.927C84.6707 77.8869 84.4853 77.8468 84.305 77.8168H84.3C81.2093 77.2557 79.8768 77.8819 80.493 77.2407C80.8436 77.0053 81.2694 76.7147 81.7302 76.4092L83.3232 74.7061L80.8887 75.778L80.1223 76.1637C80.1223 76.1637 80.1123 76.1637 80.1073 76.1637C79.7316 76.334 79.3509 76.4943 78.9451 76.5795C78.7748 76.6096 78.5995 76.6396 78.4242 76.6596C76.5457 76.855 74.2715 76.8049 72.7988 78.1774C72.2929 78.6483 71.9122 79.2745 71.2961 79.585C70.9003 79.7854 70.4495 79.8305 70.0237 79.9657C69.4176 80.1611 68.8866 80.5368 68.3406 80.8674C66.372 82.0596 64.0527 82.6557 61.7936 82.9512C60.5914 83.1065 59.0285 82.6457 58.0116 83.4371C57.4606 83.8679 57.1651 84.5441 56.9297 85.2003C55.5772 89.0023 55.4419 92.8995 55.3918 96.8768C55.3267 101.575 55.3417 106.364 55.492 111.013C55.5671 112.325 55.5972 113.628 55.5922 114.925H59.2088C59.1788 114.88 59.1487 114.835 59.1237 114.79L59.1036 114.78Z" fill="#8D2A00"/>
<path d="M103.37 77.7118C102.694 77.6216 101.997 77.6116 101.316 77.6116C100.034 77.6116 98.7514 77.6116 97.474 77.7468C97.1384 77.7819 96.8078 77.837 96.4722 77.8971C96.7026 77.9221 96.938 77.9522 97.1634 77.9923C98.0801 78.1576 98.8465 78.6184 99.2072 79.5C99.2272 79.5551 99.2523 79.6102 99.2673 79.6653C100.259 79.5251 101.276 79.5551 102.278 79.5251C102.553 79.5201 102.834 79.5051 103.104 79.4399C103.896 79.2446 104.502 78.6084 105.258 78.3028C104.672 77.9722 104.026 77.8019 103.36 77.7118H103.37Z" fill="#8D2A00"/>
<path d="M98.4612 73.058L106.942 86.102L107.032 86.2423L125.551 72.3217L116.539 59.5833L110.433 64.1817L98.4612 73.053V73.058Z" fill="white"/>
<path d="M124.724 71.6356L116.785 70.804C117.18 69.1159 117.531 67.3828 117.631 65.6546C117.721 64.1819 117.576 62.7042 117.556 61.2314C117.456 68.5098 114.691 74.2804 113.734 74.7263C110.839 76.0838 98.4561 73.0632 98.4561 73.0632C98.5462 73.1083 98.6364 73.1534 98.7266 73.1984C99.6232 73.6493 100.545 74.055 101.477 74.4307C103.57 75.2773 105.754 75.9836 107.994 76.3142C108.294 76.3593 108.595 76.3943 108.895 76.4244L106.461 81.9195C105.92 83.1417 106.09 84.5593 106.907 85.6163L109.942 76.4895C110.824 76.5045 111.7 76.4194 112.547 76.1739C113.328 75.9485 114.07 75.5878 114.691 75.0619C115.748 74.1652 116.264 72.8178 116.619 71.4903L124.729 71.6406L124.724 71.6356Z" fill="#0040B0"/>
<path d="M110.303 69.8423C108.885 68.6901 106.431 67.0471 106.431 67.0471L105.835 67.6532L105.679 67.4428L105.664 67.4228C105.474 67.4078 105.284 67.4629 105.123 67.5831L98.411 72.6374C98.0954 72.8778 98.0153 73.3187 98.2257 73.6543L99.8587 76.224L100.976 77.9772L101.011 78.0323L105.795 85.5562C106.05 85.9619 106.596 86.2975 107.037 86.2474L98.7366 73.1934C98.6464 73.1483 98.5563 73.1033 98.4661 73.0582L99.508 72.412L106.381 68.1542C106.826 68.4347 107.277 68.7553 107.438 68.8605C107.798 69.0909 108.109 69.3864 108.409 69.687C108.555 69.8322 108.7 69.9825 108.85 70.1228C109.031 70.2981 109.211 70.4734 109.411 70.6237C109.557 70.7339 109.727 70.8541 109.912 70.8691C110.042 70.8792 110.143 70.809 110.198 70.6938C110.273 70.5385 110.293 70.3532 110.298 70.1829C110.298 70.0727 110.298 69.9575 110.298 69.8473L110.303 69.8423Z" fill="#0040B0"/>
<path d="M109 65.2638L116.539 59.5884C116.384 59.373 116.083 59.3229 115.873 59.4832L108.6 64.9582C108.464 65.0584 108.374 65.1987 108.334 65.354C108.349 65.369 108.369 65.384 108.384 65.399C108.915 65.905 109.351 66.3959 109.717 66.8617C109.578 66.435 109.245 65.6901 109 65.2638Z" fill="#0040B0"/>
<path d="M91.884 46.9551C89.2992 44.721 86.6794 42.0411 83.2631 41.1645C81.6552 40.7487 80.2025 40.1075 78.7448 39.3111C77.6177 38.6949 76.4656 38.0638 75.1983 37.7933C73.931 37.5228 72.7838 37.1972 71.6267 36.536C70.2792 35.7696 69.1271 34.5223 67.5993 34.1065C67.4741 34.0714 67.3288 34.0514 67.2236 34.1265C67.0383 34.2668 67.1585 34.5573 67.2937 34.7477C67.7897 35.459 68.2856 36.1753 68.7865 36.8866C68.8616 36.9968 68.9418 37.107 69.0219 37.2222C69.1021 37.3374 69.1822 37.4527 69.2624 37.5679C69.3425 37.6831 69.4277 37.8033 69.5128 37.9235C69.598 38.0437 69.6831 38.159 69.7633 38.2842C69.8484 38.4044 69.9336 38.5246 70.0188 38.6448C70.0638 38.705 70.1039 38.7651 70.149 38.8252C70.2342 38.9454 70.3193 39.0656 70.4045 39.1858C70.4496 39.246 70.4896 39.3061 70.5297 39.3662C70.6549 39.5465 70.7852 39.7218 70.9054 39.8972C70.9905 40.0124 71.0707 40.1276 71.1508 40.2428C71.231 40.353 71.3111 40.4682 71.3913 40.5734C71.5866 40.8439 71.777 41.1044 71.9523 41.3398C72.0575 41.4851 72.1577 41.6203 72.2529 41.7455C72.5985 42.2114 72.874 42.557 73.0193 42.7223C73.2397 42.9578 73.2297 43.0179 73.0894 42.9979C72.6736 42.9277 72.2829 42.7223 71.8571 42.6572C71.767 42.6422 71.6768 42.6322 71.5866 42.6572C71.4564 42.6973 71.3662 42.8075 71.3011 42.9277C71.236 43.0479 71.1859 43.1882 71.216 43.3285C71.241 43.4487 71.3262 43.5439 71.4063 43.634C72.3531 44.6559 73.5753 45.4273 74.7274 46.1937C75.7393 46.865 76.7662 47.4961 77.8131 48.1072C79.8068 49.2644 81.8806 50.3965 84.0696 51.1328C84.3651 51.233 84.6607 51.3232 84.9612 51.3933C89.3042 52.4302 97.1937 51.779 97.1937 51.779C95.5106 50.0759 93.6672 48.508 91.8739 46.9601H91.879L91.884 46.9551Z" fill="#FFB2D2"/>
<path d="M91.8088 46.89C91.6285 46.89 91.4482 46.895 91.2678 46.9C89.8753 46.91 88.4777 46.8349 87.0952 46.6997C85.6275 46.5544 84.1548 46.3741 82.7071 46.0986C79.3159 45.4474 75.8244 44.2301 73.41 41.6604C72.1527 40.3229 71.1909 38.725 70.1841 37.1972C69.628 36.3556 69.0921 35.479 68.6863 34.5573C68.3407 34.367 67.98 34.2117 67.5993 34.1065C67.4741 34.0714 67.3288 34.0514 67.2236 34.1265C67.0383 34.2668 67.1585 34.5573 67.2937 34.7477C67.7897 35.459 68.2856 36.1753 68.7865 36.8866C68.8616 36.9968 68.9418 37.107 69.0219 37.2222C69.1021 37.3374 69.1822 37.4527 69.2624 37.5679C69.3425 37.6831 69.4277 37.8033 69.5128 37.9235C69.598 38.0437 69.6831 38.159 69.7633 38.2842C69.8484 38.4044 69.9336 38.5246 70.0188 38.6448C70.0638 38.705 70.1039 38.7651 70.149 38.8252C70.2342 38.9454 70.3193 39.0656 70.4045 39.1858C70.4496 39.246 70.4896 39.3061 70.5297 39.3662C70.6549 39.5465 70.7852 39.7218 70.9054 39.8972C70.9905 40.0124 71.0707 40.1276 71.1508 40.2428C71.231 40.353 71.3111 40.4682 71.3913 40.5734C71.5866 40.8439 71.777 41.1044 71.9523 41.3398C72.0575 41.4851 72.1577 41.6203 72.2529 41.7455C72.5985 42.2114 72.874 42.557 73.0193 42.7223C73.2397 42.9578 73.2297 43.0179 73.0894 42.9979C72.6736 42.9277 72.2829 42.7223 71.8571 42.6572C71.767 42.6422 71.6768 42.6322 71.5866 42.6572C71.4564 42.6973 71.3662 42.8075 71.3011 42.9277C71.236 43.0479 71.1859 43.1882 71.216 43.3285C71.241 43.4487 71.3262 43.5439 71.4063 43.634C72.3531 44.6559 73.5753 45.4273 74.7274 46.1937C75.7393 46.86 76.7662 47.4961 77.8131 48.1072C79.8068 49.2644 81.8806 50.3965 84.0696 51.1328C84.3651 51.233 84.6607 51.3232 84.9612 51.3933C89.3042 52.4302 97.1937 51.779 97.1937 51.779C95.5106 50.0759 93.6672 48.508 91.8739 46.9601C91.8489 46.9401 91.8239 46.9151 91.7988 46.895L91.8088 46.89Z" fill="#DF1278"/>
<path d="M82.9574 82.6257C82.9674 82.4805 82.9424 82.3352 82.9223 82.1949C82.757 81.2332 82.5266 80.2413 82.1509 79.3397C81.9055 78.7185 81.6049 78.1475 81.2543 77.7818C81.0789 77.6015 80.8084 77.326 80.4828 76.9854C79.9168 76.4043 79.1704 75.6479 78.414 74.8815C78.0133 74.4757 77.6126 74.07 77.2319 73.6843C76.6057 73.4889 76.0347 73.2886 75.5237 73.0882C75.2282 72.973 74.9527 72.8578 74.6972 72.7476L74.6221 73.013C74.6221 73.013 75.103 73.4188 75.7642 73.9999C75.8944 74.1151 76.0347 74.2403 76.1799 74.3705C76.3252 74.5008 76.4755 74.636 76.6258 74.7713C76.7009 74.8414 76.776 74.9115 76.8562 74.9817C77.6877 75.7481 78.5343 76.5295 79.2356 77.4212C79.3708 77.5915 79.501 77.7718 79.5612 77.9822C79.6112 78.1575 79.6112 78.3429 79.6112 78.5232C79.6112 78.984 79.6663 79.4449 79.6613 79.9057C79.6613 80.3716 79.6413 80.8575 79.8617 81.2833C79.9469 81.4486 80.0571 81.5938 80.1723 81.7441C80.3476 81.9695 80.4578 82.26 80.4378 82.5506C80.4127 82.8411 80.2524 83.1116 80.047 83.322C79.9068 83.4673 79.7515 83.5975 79.6213 83.7528C79.6012 83.7728 79.5862 83.7979 79.5812 83.8229C79.5762 83.853 79.5812 83.883 79.6062 83.8931C79.6213 83.9031 79.6413 83.9031 79.6613 83.8981C79.7565 83.883 79.8517 83.848 79.9368 83.8029C80.0771 83.7277 80.2123 83.6426 80.3376 83.5424C80.6181 83.322 80.8786 83.0515 81.0489 82.7309C81.2693 82.3101 81.2743 81.8844 81.2593 81.4235C81.2392 80.7773 81.1891 80.1261 81.1491 79.4799C81.1391 79.3146 81.129 79.1493 81.1391 78.984C81.1391 78.9389 81.1491 78.8889 81.1641 78.8438C81.1641 78.8287 81.1791 78.8087 81.1942 78.8037C81.2142 78.7937 81.2392 78.8187 81.2543 78.8338C81.4997 79.1543 81.655 79.53 81.7903 79.9107C81.9305 80.3115 82.0608 80.7122 82.176 81.118C82.3112 81.5838 82.4565 82.0897 82.4014 82.5806C82.3914 82.6708 82.3763 82.756 82.3463 82.8411C82.3112 82.9513 82.1158 83.2619 81.9556 83.5224C81.8904 83.6276 82.0157 83.7428 82.1158 83.6726C82.4565 83.4272 82.9073 83.0215 82.9674 82.7209C82.9724 82.6858 82.9774 82.6508 82.9824 82.6157L82.9574 82.6257Z" fill="#FFF8D6"/>
<path d="M90.7969 79.9909C90.7619 79.6754 90.7018 79.3648 90.6116 79.0692C90.5014 78.7036 90.3361 78.3479 90.0906 78.0474C89.8151 77.7168 89.4645 77.5164 89.0888 77.321C88.8634 77.1808 88.5879 77.0155 88.2773 76.8301C87.3506 76.2741 86.1284 75.5428 84.9963 74.8665C84.5805 74.8565 84.1748 74.8415 83.779 74.8214C83.1429 74.7864 82.5368 74.7313 81.9607 74.6611C82.3013 74.8264 83.5937 75.4526 84.8911 76.1539C86.0682 76.79 87.2454 77.4913 87.7313 77.9672C87.7664 78.0023 87.7964 78.0373 87.8265 78.0724C88.2723 78.5483 88.673 79.1193 88.9335 79.7355C88.9636 79.8006 88.9886 79.8657 89.0087 79.9358C89.0087 79.9408 89.0137 79.9509 89.0137 79.9559C89.209 80.5219 89.2791 81.118 89.1389 81.7091C89.1138 81.8093 89.0888 81.9045 89.0537 81.9996C88.9936 82.1749 88.9135 82.3603 88.7882 82.5005C88.7482 82.5506 88.7983 82.6158 88.8534 82.5957C89.2391 82.4505 89.5547 82.18 89.6749 81.7792C89.75 81.5338 89.755 81.2733 89.74 81.0178C89.7099 80.552 89.6047 80.0911 89.4996 79.6403C89.4845 79.5752 89.2791 78.7236 89.2691 78.7286C89.3843 78.7036 89.8953 79.9809 89.9804 80.3015C90.2509 81.3334 90.4864 82.8863 89.5797 83.6927C89.5547 83.7128 89.4545 83.7579 89.4445 83.7879C89.4194 83.8631 89.4645 83.833 89.5396 83.823C90.3261 83.6927 90.6116 82.5106 90.7318 81.8744C90.842 81.2733 90.8671 80.6171 90.7919 79.9859L90.7969 79.9909Z" fill="#FFF8D6"/>
<path d="M85.0362 76.2389C86.1883 76.4994 87.3455 76.7198 88.5026 76.9703C88.4275 76.9252 88.3573 76.8801 88.2822 76.835C87.3555 76.279 86.1332 75.5476 85.0012 74.8714C84.5854 74.8614 84.1796 74.8463 83.7839 74.8263C83.1478 74.7912 82.5416 74.7361 81.9656 74.666C82.3062 74.8313 83.5986 75.4575 84.896 76.1588C84.9411 76.1838 84.9911 76.2089 85.0362 76.2339V76.2389Z" fill="#FFDF72"/>
<path d="M76.1751 74.3755C76.3203 74.5058 76.4706 74.641 76.6209 74.7763C76.696 74.8464 76.7711 74.9165 76.8513 74.9867C77.0316 75.152 77.217 75.3223 77.3973 75.4926C77.5325 75.5878 77.6728 75.6829 77.8081 75.7731C78.87 76.4594 79.977 77.0755 81.069 77.7167C81.1492 77.7668 81.2293 77.8119 81.3095 77.862C81.2895 77.8369 81.2694 77.8169 81.2494 77.7918C81.0741 77.6115 80.8036 77.336 80.478 76.9954C79.9119 76.4143 79.1656 75.6579 78.4092 74.8915C78.0084 74.4857 77.6077 74.08 77.227 73.6943C76.6008 73.4989 76.0298 73.2986 75.5188 73.0982C75.2233 72.983 74.9478 72.8678 74.6923 72.7576L74.6172 73.0231C74.6172 73.0231 75.0981 73.4288 75.7593 74.0099C75.8895 74.1251 76.0298 74.2503 76.1751 74.3806V74.3755Z" fill="#FFDF72"/>
<path d="M107.888 62.9244C107.888 62.8342 107.888 62.739 107.888 62.6439C107.888 62.6238 107.888 62.5988 107.888 62.5737C107.888 62.4535 107.878 62.3333 107.873 62.2081C107.713 59.2426 106.556 54.8495 102.273 53.1113C100.84 52.5303 99.3626 52.1496 97.8549 51.834C96.2469 51.4934 94.5287 51.9492 92.9659 51.3431C92.48 51.1577 92.0442 50.8722 91.5984 50.6017C88.3674 48.6381 84.871 47.3658 81.1041 47.0051C78.4492 46.7546 75.7893 46.5342 73.1294 46.3339C70.179 46.1085 67.2285 45.9582 64.2831 45.7077C62.7002 45.5725 61.0973 45.2719 59.7247 44.4805C58.9133 44.0096 58.207 43.3784 57.5508 42.7122C56.8945 42.046 56.2433 41.49 55.5671 40.8788C54.3749 39.8119 53.1827 38.7449 51.9855 37.683C50.7132 36.5509 49.4408 35.4238 48.1585 34.3017C47.4973 33.7207 46.831 33.1546 46.1748 32.5686C45.5186 31.9875 44.8724 31.4465 44.1511 30.9806C44.066 30.9255 43.9758 30.8704 43.8906 30.8203C43.6652 30.6851 43.4348 30.5599 43.2144 30.4196C42.994 30.2794 42.8137 30.089 42.5882 29.9788C42.5532 29.9638 42.5231 29.9538 42.4981 29.9487H42.4931C42.4279 29.9387 42.3829 29.9788 42.3829 30.094C42.3829 30.1691 42.4129 30.2894 42.468 30.4396C42.7485 31.2311 43.1543 31.9624 43.545 32.6988C43.6602 32.9192 43.9507 33.4502 44.1461 33.8008C44.1962 33.891 44.091 33.9862 44.0109 33.9311C43.4749 33.5854 42.468 32.9743 42.3127 33.1747C42.2727 33.2248 42.2927 33.325 42.3829 33.5003C42.6433 33.9812 43.024 34.5773 43.3647 35.0982C43.3847 35.1283 43.525 35.3387 43.6853 35.5741C43.8155 35.7694 43.6001 36.0049 43.3947 35.8947C42.0472 35.1784 39.4625 33.8108 39.5777 34.3017C39.6879 34.7626 43.2144 38.9804 47.7327 43.2732C47.8429 43.3784 47.9531 43.4836 48.0633 43.5888C48.0733 43.5988 48.0833 43.6089 48.0934 43.6189C48.2036 43.7191 48.3088 43.8192 48.419 43.9244C48.429 43.9345 48.439 43.9445 48.449 43.9545C48.5592 44.0597 48.6694 44.1599 48.7846 44.2651C48.7846 44.2651 48.7947 44.2751 48.7997 44.2801C49.3857 44.8211 49.9868 45.3571 50.598 45.883C50.608 45.8881 50.613 45.8981 50.623 45.9031C50.7282 45.9932 50.8334 46.0834 50.9386 46.1736C50.9636 46.1936 50.9887 46.2187 51.0137 46.2387C51.1139 46.3239 51.2141 46.409 51.3143 46.4892C51.3443 46.5142 51.3744 46.5392 51.4044 46.5643C51.5046 46.6444 51.5998 46.7296 51.7 46.8097C51.73 46.8348 51.7651 46.8648 51.8002 46.8899C51.9004 46.97 51.9955 47.0502 52.0957 47.1303C52.1258 47.1554 52.1558 47.1804 52.1859 47.2005C52.2911 47.2856 52.3913 47.3658 52.4914 47.4459C52.5115 47.4609 52.5265 47.471 52.5415 47.486C53.0074 47.8567 53.4783 48.2223 53.9441 48.573C53.9742 48.593 54.0042 48.6181 54.0293 48.6381C54.1245 48.7082 54.2196 48.7784 54.3098 48.8435C54.3499 48.8685 54.3849 48.8986 54.425 48.9286C54.5152 48.9938 54.6053 49.0589 54.6955 49.124C54.7406 49.1541 54.7807 49.1841 54.8257 49.2142C54.9159 49.2793 55.0011 49.3394 55.0912 49.3995C55.1363 49.4296 55.1764 49.4596 55.2215 49.4897C55.3116 49.5498 55.3968 49.6099 55.487 49.67C55.527 49.6951 55.5671 49.7251 55.6072 49.7502C55.6973 49.8103 55.7925 49.8704 55.8827 49.9355C55.9127 49.9555 55.9478 49.9756 55.9779 49.9956C56.3285 50.226 56.6741 50.4414 57.0198 50.6468C57.115 50.7019 57.2051 50.757 57.3003 50.8121C57.3354 50.8321 57.3754 50.8572 57.4105 50.8772C57.4957 50.9273 57.5808 50.9724 57.666 51.0225C57.711 51.0475 57.7511 51.0726 57.7962 51.0976C57.8764 51.1427 57.9615 51.1878 58.0417 51.2329C58.0867 51.2579 58.1318 51.283 58.1819 51.308C58.2621 51.3481 58.3422 51.3932 58.4224 51.4332C58.4674 51.4583 58.5125 51.4783 58.5626 51.5034C58.6428 51.5435 58.7229 51.5835 58.798 51.6186C58.8431 51.6386 58.8882 51.6587 58.9283 51.6837C58.9333 51.6837 58.9433 51.6887 58.9483 51.6937C58.9483 51.6937 58.9583 51.6937 58.9633 51.6987C59.0335 51.7338 59.1036 51.7639 59.1737 51.7989C59.2138 51.819 59.2489 51.834 59.2889 51.849C59.314 51.859 59.339 51.869 59.3641 51.8841C59.3992 51.8991 59.4342 51.9141 59.4693 51.9292C59.4943 51.9392 59.5194 51.9492 59.5444 51.9642H59.5494C59.6646 52.0143 59.7748 52.0644 59.8901 52.1095C59.8901 52.1095 60.0403 55.5759 62.2995 57.0836C62.4598 57.1938 62.605 57.289 62.7353 57.3842C63.116 57.6597 63.5418 57.9552 63.7872 58.361C63.8173 58.4161 63.8473 58.4712 63.8573 58.5313C63.8674 58.5914 63.8473 58.6615 63.7972 58.6966C63.7271 58.7517 63.6219 58.7217 63.5368 58.6866C63.2512 58.5764 62.9607 58.4612 62.6852 58.3209C62.5499 58.2508 62.4147 58.1706 62.2895 58.0855C62.2444 58.0554 62.029 57.84 61.9689 57.8851C61.9589 57.8951 61.9488 57.9102 61.9488 57.9352C61.9488 57.9452 61.9488 57.9602 61.9488 57.9753C61.9488 58.0204 61.9639 58.0805 61.9789 58.1556C61.9839 58.1807 61.9939 58.2057 61.9989 58.2307C62.1141 58.6114 62.3045 59.0022 62.5149 59.3328C62.6702 59.5732 62.8605 59.7936 63.0959 59.9589C63.2663 60.0741 63.662 60.2044 63.5818 60.4849C63.5818 60.4949 63.5718 60.5049 63.5668 60.5149C63.5568 60.535 63.5418 60.56 63.5217 60.5801C63.5017 60.6001 63.4817 60.6151 63.4566 60.6302C63.4366 60.6452 63.4115 60.6552 63.3865 60.6702C63.3564 60.6853 63.3214 60.6953 63.2863 60.7053C63.2863 60.7053 63.2863 60.7053 63.2813 60.7053C63.2462 60.7153 63.2112 60.7203 63.1711 60.7253C63.1661 60.7253 63.1611 60.7253 63.1511 60.7253C63.116 60.7253 63.0759 60.7354 63.0358 60.7354C63.0258 60.7354 63.0158 60.7354 63.0058 60.7354C62.8455 60.7354 62.6351 60.6953 62.585 60.9057C62.555 61.0209 62.605 61.1461 62.6501 61.2563C63.0859 62.198 63.9475 62.9294 64.9494 63.2049C65.0495 63.2299 65.1798 63.3101 65.1347 63.4003C65.1147 63.4403 65.0696 63.4604 65.0295 63.4754C64.6438 63.6207 64.233 63.7158 63.8273 63.7709C63.6219 63.801 63.3514 63.7709 63.146 63.781C63.0358 63.781 62.7102 63.826 62.9807 64.0114C63.7021 64.4923 64.4534 64.9281 65.2299 65.3238C65.9011 65.6644 66.5573 66.0401 67.2987 66.2154C67.4289 66.2455 67.5642 66.2755 67.6894 66.3206C67.7194 66.3357 67.7545 66.3507 67.7645 66.3807C67.7846 66.4408 67.7094 66.4859 67.6543 66.501C67.2736 66.6162 66.8779 66.6663 66.4822 66.6512C66.3419 66.6462 66.0163 66.5611 65.9662 66.7514C65.9512 66.7965 65.9562 66.8566 65.9762 66.9267C65.9913 66.9868 66.0213 67.057 66.0564 67.1271C66.5222 68.0388 67.5742 68.69 68.551 68.8903C68.8265 68.9454 69.107 68.9705 69.3775 69.0506C69.5578 69.1057 69.7582 69.231 69.7432 69.4163C69.7332 69.4965 69.6881 69.5616 69.638 69.6217C69.5328 69.7519 69.1922 69.8521 68.9016 69.9122C68.7213 69.9523 68.6662 70.1827 68.8115 70.2979C68.8766 70.348 68.9267 70.3931 68.9517 70.4131C69.4526 70.8489 70.0287 71.2146 70.6398 71.4801C71.2009 71.7256 71.812 71.8057 72.388 72.0211C73.1995 72.3267 73.9659 72.7424 74.7574 73.1031C75.5488 73.4638 76.3954 73.7693 77.242 74.0248C77.3622 74.0599 77.4824 74.0999 77.6076 74.135C78.334 74.3454 79.1405 74.5407 80.0271 74.706C80.0521 74.706 80.0772 74.7161 80.1022 74.7211C80.528 74.8012 80.9738 74.8713 81.4397 74.9365C81.5349 74.9515 81.615 74.9665 81.7102 74.9815C81.7953 74.9916 81.8955 74.9966 81.9807 75.0066C82.5617 75.0717 83.1628 75.1268 83.799 75.1669C84.1897 75.1869 84.6005 75.202 85.0163 75.212C85.1665 75.212 85.3168 75.222 85.4671 75.222C86.0632 75.227 86.6793 75.222 87.3205 75.1969C87.5259 75.1869 87.7262 75.1769 87.9216 75.1669C87.9717 75.1669 88.0218 75.1619 88.0719 75.1569C88.2422 75.1469 88.4075 75.1368 88.5728 75.1218C88.5978 75.1218 88.6229 75.1218 88.6479 75.1168C88.8383 75.1018 89.0236 75.0817 89.1989 75.0617C89.229 75.0617 89.2591 75.0567 89.2891 75.0517C89.4494 75.0316 89.6097 75.0116 89.765 74.9916C89.785 74.9916 89.8051 74.9916 89.8251 74.9815C90.1808 74.9315 90.5214 74.8764 90.837 74.8112C90.847 74.8112 90.857 74.8112 90.867 74.8112C91.1926 74.7461 91.4982 74.676 91.7887 74.5958C91.7887 74.5858 91.7887 74.5808 91.7937 74.5708C91.7937 74.5808 91.7937 74.5858 91.7937 74.5908C93.2414 74.2001 94.2382 73.6641 94.9345 73.078C95.4955 72.6022 95.9664 71.991 96.277 71.3198C96.5875 70.6486 96.5825 69.812 97.0434 69.2009C97.2337 68.9454 97.4942 68.7501 97.7597 68.5698C99.2524 67.5278 101.567 65.8998 103.5 66.2355C103.646 66.2605 103.786 66.2805 103.931 66.3006C103.941 66.3006 103.951 66.3006 103.956 66.3006C104.247 66.3357 104.542 66.3607 104.833 66.3607H104.953C104.953 66.3607 107.337 66.2805 107.332 66.1553C107.563 65.9299 107.643 64.8629 107.683 64.7778C107.683 64.7628 107.693 64.7527 107.698 64.7377C107.698 64.7327 107.698 64.7227 107.703 64.7177C107.703 64.7177 107.703 64.7077 107.703 64.7026C107.718 64.6676 107.728 64.6275 107.738 64.5874C107.743 64.5674 107.753 64.5424 107.758 64.5223C107.763 64.5023 107.768 64.4772 107.778 64.4572C107.783 64.4372 107.788 64.4121 107.793 64.3921C107.803 64.357 107.808 64.327 107.818 64.2869C107.818 64.2618 107.828 64.2318 107.833 64.2067C107.833 64.1867 107.833 64.1717 107.843 64.1516C107.843 64.1316 107.848 64.1166 107.853 64.0965C107.853 64.0715 107.863 64.0464 107.863 64.0214C107.863 63.9963 107.873 63.9663 107.873 63.9412C107.883 63.8511 107.893 63.7609 107.898 63.6607C107.898 63.5656 107.908 63.4654 107.913 63.3602C107.913 63.3351 107.913 63.3051 107.913 63.28C107.913 63.1999 107.913 63.1147 107.913 63.0296V62.9444L107.888 62.9244Z" fill="#FFB2D2"/>
<path d="M79.3658 48.8936C80.1172 49.3895 80.9137 49.8103 81.7652 50.1008C82.6669 50.4064 83.6086 50.5216 84.5604 50.5567C85.5271 50.5917 86.4989 50.5567 87.4657 50.6118C88.3724 50.6619 89.264 50.7921 90.1507 50.9925C91.7786 51.3631 93.3816 51.9342 95.0547 52.0945C95.8662 52.1696 96.6877 52.1396 97.4841 51.9292C97.6044 51.8991 97.7196 51.8641 97.8348 51.824C96.2318 51.4934 94.5237 51.9392 92.9708 51.3381C92.4849 51.1528 92.0491 50.8672 91.6033 50.5967C88.3724 48.6331 84.876 47.3608 81.109 47.0001C79.5011 46.8498 77.8931 46.7096 76.2852 46.5793C77.3271 47.3357 78.3039 48.1773 79.3708 48.8936H79.3658Z" fill="#9B015D"/>
<path d="M87.5861 65.7147C89.5247 65.2739 91.1627 64.262 91.4082 61.9378C91.4132 61.8927 91.4132 61.8576 91.4132 61.8426C91.2929 60.2196 87.6613 56.0068 86.1785 54.5191C86.1084 54.5542 86.0333 54.5892 85.9631 54.6243C85.5674 54.8046 85.1767 55 84.7158 54.9699C84.2199 54.9349 83.734 54.7495 83.2632 54.6343C81.8606 54.2887 80.438 54.0032 79.0104 53.7377C76.1501 53.2017 73.2698 52.7408 70.4646 51.9995C69.2975 51.6889 68.2406 51.2281 67.1636 50.7422C66.6476 50.5067 66.1267 50.2713 65.5857 50.081C65.3502 49.9958 65.1048 49.9207 64.8593 49.8656C64.6389 49.8155 64.3083 49.8205 64.133 49.6902C63.8625 49.4849 63.6421 49.2043 63.3315 49.0691C63.1913 49.3296 63.3466 49.6802 63.4317 49.9758C64.9846 55.2304 69.1422 59.7237 73.4201 63.0398C74.8176 64.1218 76.3605 65.0535 78.0436 65.6145C79.7718 66.1906 81.4098 66.0603 83.188 66.0603C84.5255 66.0603 86.1435 66.0453 87.5911 65.7147H87.5861Z" fill="#9B015D"/>
<path d="M94.5043 67.9486C95.0904 67.5178 95.6013 66.9919 96.0922 66.4609C96.5831 65.9249 97.0941 65.3939 97.6952 64.9832C97.9957 64.7828 98.3163 64.6125 98.662 64.4923C98.9875 64.3821 99.3232 64.332 99.6638 64.3019C100.801 64.2017 101.988 64.2168 103.085 64.5724C103.3 64.6425 103.511 64.7277 103.711 64.8279L103.596 64.5023C103.391 63.9262 103.075 63.3952 102.664 62.9394C101.302 61.4266 98.156 57.9302 97.9056 57.6296C97.7503 57.4443 96.9688 56.7029 96.4529 56.3723C96.4379 56.4625 97.5299 58.2007 97.9056 58.8769C98.2262 59.453 98.5267 60.1042 98.3714 60.7754C98.2863 61.1461 98.0709 61.4717 97.8154 61.7472C97.4748 62.1129 97.064 62.4335 96.6332 62.694C95.7566 63.2299 94.7598 63.5756 93.9833 64.2719C93.5876 64.6275 93.237 65.0383 92.9114 65.459C92.6609 65.7846 92.4255 66.1203 92.145 66.4208C91.8394 66.7414 91.4838 67.0019 91.093 67.2022C90.9828 67.2624 90.8626 67.3024 90.7424 67.3325C90.0561 67.5028 89.3548 67.608 88.6586 67.7482C88.0274 67.8735 87.3912 68.0137 86.7901 68.2492C86.4044 68.4045 85.8534 68.6499 85.7682 69.1108C85.7232 69.3462 85.8284 69.6117 85.9937 69.777C86.2742 70.0575 86.7 70.1276 87.0807 70.1577C87.9573 70.2228 88.7638 70.0976 89.6053 70.4482C90.0261 70.6235 90.4168 70.864 90.7975 71.1194C90.9377 71.2146 91.7943 71.9009 91.8995 71.8408C90.8175 72.4519 89.0693 72.7174 87.837 72.9228C85.9486 73.2383 82.4471 73.1933 80.5537 72.9528C78.6652 72.7124 73.8062 70.6887 72.4087 69.6718C71.8076 69.236 71.1914 68.7351 70.7356 68.144C70.3649 67.6731 70.1495 67.1071 69.9492 66.546C69.6185 65.6093 69.3631 64.6626 68.2911 64.332C68.1859 64.3019 68.0707 64.2719 68.0006 64.1867C67.8904 64.0615 67.9304 63.8661 67.9906 63.7108C68.0557 63.5555 68.1358 63.3902 68.0957 63.2299C68.0306 62.9494 67.685 62.8743 67.4145 62.7841C66.7683 62.5737 66.3175 62.0528 66.1722 61.3916C66.052 60.8305 66.1522 60.2394 66.3525 59.7035C66.3676 59.6734 66.3776 59.6383 66.3926 59.6033C66.7583 58.7417 66.4828 57.7398 65.7013 57.2189C65.1904 56.8783 64.7245 56.5627 64.6444 56.5076C63.8079 55.8864 63.0314 55.1401 62.6056 54.1683C62.3251 53.5371 62.2149 52.8358 62.27 52.1446C62.3452 51.2329 62.5706 51.1878 61.694 50.732C57.381 48.4979 53.4638 45.6276 49.4915 42.8525C47.558 41.5 45.5292 40.0924 44.4072 38.0136C43.9864 37.2371 46.7816 39.1607 48.0539 39.7818C48.1641 39.8369 48.2643 39.6917 48.1741 39.6065C47.007 38.5245 44.1467 35.8095 44.2118 34.958C44.2218 34.8227 44.302 34.6774 44.4473 34.6474C44.7077 34.5973 45.3439 34.9529 45.8198 35.1633C45.955 35.2234 46.0753 35.0581 45.9851 34.9479C45.389 34.2116 44.4122 33.1146 44.0165 32.5185C43.5406 31.8022 43.1599 31.0307 42.9345 30.2092C42.8243 30.1241 42.7141 30.0389 42.5939 29.9788C42.5588 29.9638 42.5287 29.9538 42.5037 29.9487H42.4987C42.4336 29.9387 42.3885 29.9788 42.3885 30.094C42.3885 30.1691 42.4185 30.2894 42.4736 30.4396C42.7541 31.2311 43.1599 31.9624 43.5506 32.6988C43.6658 32.9192 43.9564 33.4502 44.1517 33.8058C44.2018 33.896 44.1016 33.9862 44.0165 33.9361C43.4855 33.5904 42.4686 32.9743 42.3183 33.1747C42.2783 33.2248 42.2983 33.325 42.3885 33.5003C42.649 33.9812 43.0297 34.5773 43.3703 35.0982C43.3903 35.1283 43.5306 35.3387 43.6909 35.5741C43.8211 35.7694 43.6057 36.0049 43.4003 35.8997C42.0529 35.1834 39.4681 33.8209 39.5833 34.3068C39.6935 34.7676 43.22 38.9854 47.7383 43.2783C47.8485 43.3834 47.9587 43.4886 48.0689 43.5938C48.0789 43.6039 48.089 43.6139 48.099 43.6239C48.2092 43.7241 48.3144 43.8243 48.4246 43.9295C48.4346 43.9395 48.4446 43.9495 48.4546 43.9595C48.5648 44.0647 48.675 44.1649 48.7902 44.2701C48.7902 44.2701 48.8003 44.2801 48.8053 44.2851C49.3914 44.8261 49.9925 45.3621 50.6036 45.8881C50.6136 45.8931 50.6186 45.9031 50.6286 45.9081C50.7338 45.9983 50.839 46.0884 50.9442 46.1786C50.9693 46.1986 50.9943 46.2237 51.0193 46.2437C51.1195 46.3289 51.2197 46.414 51.3199 46.4942C51.35 46.5192 51.38 46.5443 51.4101 46.5693C51.5102 46.6495 51.6054 46.7346 51.7056 46.8148C51.7357 46.8398 51.7707 46.8699 51.8058 46.8949C51.906 46.975 52.0012 47.0552 52.1013 47.1353C52.1314 47.1604 52.1614 47.1854 52.1915 47.2055C52.2967 47.2906 52.3969 47.3708 52.4971 47.4509C52.5171 47.466 52.5321 47.476 52.5472 47.491C53.013 47.8617 53.4839 48.2274 53.9497 48.578C53.9798 48.598 54.0098 48.6231 54.0349 48.6431C54.1301 48.7132 54.2252 48.7834 54.3154 48.8485C54.3555 48.8735 54.3905 48.9036 54.4306 48.9337C54.5208 48.9988 54.611 49.0639 54.7011 49.129C54.7462 49.1591 54.7863 49.1891 54.8314 49.2192C54.9215 49.2843 55.0067 49.3444 55.0968 49.4045C55.1419 49.4346 55.182 49.4646 55.2271 49.4947C55.3172 49.5548 55.4024 49.6149 55.4926 49.675C55.5326 49.7001 55.5727 49.7301 55.6128 49.7552C55.703 49.8153 55.7981 49.8754 55.8883 49.9405C55.9184 49.9605 55.9534 49.9806 55.9835 50.0006C56.3341 50.231 56.6798 50.4464 57.0254 50.6518C57.1206 50.7069 57.2107 50.762 57.3059 50.8171C57.341 50.8372 57.381 50.8622 57.4161 50.8822C57.5013 50.9323 57.5864 50.9774 57.6716 51.0275C57.7167 51.0525 57.7567 51.0776 57.8018 51.1026C57.882 51.1477 57.9671 51.1928 58.0473 51.2379C58.0924 51.2629 58.1374 51.288 58.1875 51.313C58.2677 51.3531 58.3478 51.3982 58.428 51.4383C58.4731 51.4633 58.5181 51.4833 58.5682 51.5084C58.6484 51.5485 58.7285 51.5885 58.8037 51.6236C58.8487 51.6436 58.8938 51.6637 58.9339 51.6887C58.9389 51.6887 58.9489 51.6937 58.9539 51.6987C58.9539 51.6987 58.964 51.6987 58.969 51.7037C59.0391 51.7388 59.1092 51.7689 59.1793 51.8039C59.2194 51.824 59.2545 51.839 59.2946 51.854C59.3196 51.864 59.3447 51.8741 59.3697 51.8891C59.4048 51.9041 59.4398 51.9191 59.4749 51.9342C59.4999 51.9442 59.525 51.9542 59.55 51.9692H59.555C59.6703 52.0193 59.7805 52.0694 59.8957 52.1145C59.8957 52.1145 60.0459 55.5809 62.3051 57.0886C62.4654 57.1989 62.6107 57.294 62.7409 57.3892C63.1216 57.6647 63.5474 57.9603 63.7928 58.366C63.8229 58.4211 63.8529 58.4762 63.863 58.5363C63.873 58.5964 63.8529 58.6665 63.8029 58.7016C63.7327 58.7567 63.6275 58.7267 63.5424 58.6916C63.2568 58.5814 62.9663 58.4662 62.6908 58.3259C62.5556 58.2558 62.4203 58.1756 62.2951 58.0905C62.25 58.0604 62.0346 57.845 61.9745 57.8901C61.9645 57.9001 61.9545 57.9152 61.9545 57.9402C61.9545 57.9502 61.9545 57.9653 61.9545 57.9803C61.9545 58.0254 61.9695 58.0855 61.9845 58.1606C61.9895 58.1857 61.9995 58.2107 62.0045 58.2358C62.1198 58.6165 62.3101 59.0072 62.5205 59.3378C62.6758 59.5782 62.8661 59.7986 63.1016 59.9639C63.2719 60.0791 63.6676 60.2094 63.5875 60.4899C63.5875 60.4999 63.5774 60.5099 63.5724 60.52C63.5624 60.54 63.5474 60.565 63.5273 60.5851C63.5073 60.6051 63.4873 60.6201 63.4622 60.6352C63.4422 60.6502 63.4171 60.6602 63.3921 60.6752C63.362 60.6903 63.327 60.7003 63.2919 60.7103C63.2919 60.7103 63.2919 60.7103 63.2869 60.7103C63.2518 60.7203 63.2168 60.7253 63.1767 60.7303C63.1717 60.7303 63.1667 60.7303 63.1567 60.7303C63.1216 60.7303 63.0815 60.7404 63.0415 60.7404C63.0314 60.7404 63.0214 60.7404 63.0114 60.7404C62.8511 60.7404 62.6407 60.7003 62.5906 60.9107C62.5606 61.0259 62.6107 61.1511 62.6557 61.2613C63.0915 62.2031 63.9531 62.9344 64.955 63.2099C65.0552 63.235 65.1854 63.3151 65.1403 63.4053C65.1203 63.4453 65.0752 63.4654 65.0351 63.4804C64.6494 63.6257 64.2387 63.7208 63.8329 63.7759C63.6275 63.806 63.357 63.7759 63.1517 63.786C63.0415 63.786 62.7159 63.831 62.9864 64.0164C63.7077 64.4973 64.4591 64.9331 65.2355 65.3288C65.9067 65.6694 66.5629 66.0451 67.3043 66.2204C67.4345 66.2505 67.5698 66.2805 67.695 66.3256C67.7251 66.3407 67.7601 66.3557 67.7701 66.3857C67.7902 66.4459 67.715 66.4909 67.6599 66.506C67.2792 66.6212 66.8835 66.6713 66.4878 66.6562C66.3475 66.6512 66.0219 66.5661 65.9718 66.7564C65.9568 66.8015 65.9618 66.8616 65.9819 66.9317C65.9969 66.9919 66.0269 67.062 66.062 67.1321C66.5279 68.0438 67.5798 68.695 68.5566 68.8954C68.8321 68.9505 69.1126 68.9755 69.3831 69.0557C69.5634 69.1108 69.7638 69.236 69.7488 69.4213C69.7388 69.5015 69.6937 69.5666 69.6436 69.6267C69.5384 69.7569 69.1978 69.8571 68.9072 69.9172C68.7269 69.9573 68.6718 70.1877 68.8171 70.3029C68.8822 70.353 68.9323 70.3981 68.9573 70.4182C69.4583 70.854 70.0343 71.2196 70.6454 71.4851C71.2065 71.7306 71.8176 71.8107 72.3937 72.0261C73.2051 72.3317 73.9716 72.7474 74.763 73.1081C75.5645 73.4738 76.401 73.7743 77.2476 74.0298C77.3678 74.0649 77.488 74.1049 77.6132 74.14C78.3396 74.3504 79.1461 74.5457 80.0327 74.7111C80.0577 74.7111 80.0828 74.7211 80.1078 74.7261C80.5336 74.8062 80.9794 74.8764 81.4453 74.9415C81.5405 74.9565 81.6356 74.9615 81.7308 74.9765C81.816 74.9866 81.8961 74.9966 81.9813 75.0066C82.5623 75.0717 83.1635 75.1268 83.7996 75.1669C84.1903 75.1869 84.6011 75.202 85.0169 75.212C85.1671 75.212 85.3174 75.222 85.4677 75.222C86.0638 75.227 86.6799 75.222 87.3211 75.1969C87.5265 75.1869 87.7268 75.1769 87.9222 75.1669C87.9723 75.1669 88.0224 75.1619 88.0725 75.1569C88.2428 75.1469 88.4081 75.1318 88.5734 75.1218C88.5984 75.1218 88.6235 75.1218 88.6485 75.1168C88.8389 75.1018 89.0192 75.0817 89.1996 75.0617C89.2296 75.0617 89.2597 75.0567 89.2897 75.0517C89.45 75.0316 89.6103 75.0116 89.7656 74.9916C89.7856 74.9916 89.8057 74.9916 89.8257 74.9815C90.1814 74.9315 90.522 74.8764 90.8376 74.8112C90.8476 74.8112 90.8576 74.8112 90.8676 74.8112C91.1932 74.7461 91.4988 74.676 91.7893 74.5958C91.7893 74.5858 91.7893 74.5808 91.7943 74.5708C91.7943 74.5808 91.7943 74.5858 91.7893 74.5908C93.237 74.2001 94.2338 73.6641 94.9301 73.078C95.4911 72.6022 95.962 71.991 96.2726 71.3198C96.5831 70.6386 96.538 69.8221 97.0289 69.236C97.2243 69.0056 97.5048 68.7751 97.7653 68.5898C99.1028 67.6581 101.147 66.0802 103.26 66.2054C102.394 65.8898 101.066 65.7947 100.15 65.98C98.6519 66.2906 97.4547 67.1972 96.3727 68.2341C95.5763 68.9955 93.4924 70.5384 93.4774 70.5334C93.4674 70.5334 93.4674 70.4232 93.4724 70.2829C93.4824 69.8471 93.8782 68.4095 94.5043 67.9486Z" fill="#DF1278"/>
<path d="M80.498 71.425C81.3446 70.8539 85.0213 69.7369 84.6206 68.9103C81.7904 69.9422 75.9747 69.0256 72.9992 68.3143C72.2879 68.1439 71.8671 67.5478 72.4181 67.0469C72.7287 66.7664 73.2547 66.6312 73.8959 66.566C74.537 66.5009 74.5821 65.5291 73.9159 65.4239C66.888 64.2969 70.3043 62.0628 68.1102 61.4967C67.434 61.3214 66.7627 61.1361 66.0915 60.9457C66.0815 60.5199 66.1717 60.0941 66.3219 59.6934C66.3319 59.6633 66.347 59.6333 66.357 59.5982C66.7227 58.7266 66.4422 57.7198 65.6557 57.1988C65.1498 56.8632 64.6889 56.5526 64.6088 56.4925C63.7722 55.8714 62.9958 55.125 62.57 54.1532C62.2895 53.5221 62.1793 52.8208 62.2344 52.1295C62.3096 51.2178 62.535 51.1727 61.6584 50.7169C59.3291 49.5097 54.6705 46.404 52.0757 44.6457C51.2743 44.1047 50.1772 44.8962 50.5279 45.7978C50.5379 45.8179 50.5429 45.8329 50.5529 45.8429C50.568 45.8429 50.583 45.863 50.598 45.873C50.7032 45.9632 50.8084 46.0533 50.9136 46.1435C50.9386 46.1635 50.9637 46.1886 50.9887 46.2086C51.0889 46.2938 51.1891 46.3789 51.2893 46.4591C51.3193 46.4841 51.3494 46.5092 51.3795 46.5342C51.4796 46.6143 51.5748 46.6995 51.675 46.7797C51.7051 46.8047 51.7401 46.8348 51.7752 46.8598C51.8754 46.9399 51.9705 47.0201 52.0707 47.1002C52.1008 47.1253 52.1308 47.1503 52.1609 47.1704C52.2661 47.2555 52.3663 47.3357 52.4665 47.4158C52.4865 47.4309 52.5015 47.4409 52.5165 47.4559C52.9824 47.8266 53.4533 48.1923 53.9191 48.5429C53.9492 48.5629 53.9792 48.588 54.0043 48.608C54.0995 48.6781 54.1946 48.7483 54.2848 48.8134C54.3249 48.8384 54.3599 48.8685 54.4 48.8985C54.4902 48.9637 54.5803 49.0288 54.6705 49.0939C54.7156 49.124 54.7557 49.154 54.8007 49.1841C54.8909 49.2492 54.9761 49.3093 55.0662 49.3694C55.1113 49.3995 55.1514 49.4295 55.1965 49.4596C55.2866 49.5197 55.3718 49.5798 55.462 49.6399C55.502 49.665 55.5421 49.695 55.5822 49.7201C55.6723 49.7802 55.7675 49.8403 55.8577 49.9054C55.8877 49.9254 55.9228 49.9455 55.9529 49.9655C56.3035 50.1959 56.6491 50.4113 56.9948 50.6167C57.09 50.6718 57.1801 50.7269 57.2753 50.782C57.3104 50.802 57.3504 50.8271 57.3855 50.8471C57.4707 50.8972 57.5558 50.9423 57.641 50.9924C57.686 51.0174 57.7261 51.0425 57.7712 51.0675C57.8514 51.1126 57.9365 51.1577 58.0167 51.2028C58.0617 51.2278 58.1068 51.2529 58.1569 51.2779C58.2371 51.318 58.3172 51.3631 58.3974 51.4032C58.4424 51.4282 58.4875 51.4482 58.5376 51.4733C58.6178 51.5134 58.6979 51.5534 58.7781 51.5885C58.8231 51.6085 58.8682 51.6286 58.9083 51.6536C58.9133 51.6536 58.9233 51.6586 58.9283 51.6636C58.9283 51.6636 58.9384 51.6636 58.9434 51.6686C59.0135 51.7037 59.0836 51.7338 59.1537 51.7688C59.1938 51.7889 59.2289 51.8039 59.269 51.8189C59.294 51.8289 59.3191 51.839 59.3441 51.854C59.3792 51.869 59.4142 51.884 59.4493 51.8991C59.4743 51.9091 59.4994 51.9191 59.5244 51.9341H59.5294C59.6447 51.9842 59.7549 52.0343 59.8701 52.0794C59.8701 52.0794 60.0203 55.5458 62.2795 57.0535C62.4398 57.1637 62.5851 57.2589 62.7153 57.3541C63.096 57.6296 63.5218 57.9251 63.7672 58.3309C63.7973 58.386 63.8273 58.4411 63.8374 58.5012C63.8474 58.5613 63.8273 58.6314 63.7772 58.6665C63.7071 58.7216 63.6019 58.6916 63.5168 58.6565C63.2312 58.5463 62.9407 58.4311 62.6652 58.2908C62.53 58.2207 62.3947 58.1405 62.2695 58.0554C62.2244 58.0253 62.009 57.8099 61.9489 57.855C61.9389 57.865 61.9289 57.8801 61.9289 57.9051C61.9289 57.9151 61.9289 57.9302 61.9289 57.9452C61.9289 57.9903 61.9439 58.0504 61.9589 58.1255C61.9639 58.1506 61.9739 58.1756 61.9789 58.2007C62.0942 58.5814 62.2845 58.9721 62.4949 59.3027C62.6502 59.5431 62.8405 59.7635 63.076 59.9288C63.1761 59.999 63.3465 60.0691 63.4617 60.1743C63.4717 60.1843 63.4817 60.1893 63.4917 60.1993C63.5118 60.2194 63.5268 60.2394 63.5368 60.2645C63.5368 60.2645 63.5418 60.2695 63.5418 60.2745C63.5719 60.3296 63.5769 60.3897 63.5568 60.4598C63.5568 60.4698 63.5468 60.4798 63.5418 60.4899C63.5318 60.5099 63.5168 60.5349 63.4967 60.555C63.4767 60.575 63.4567 60.59 63.4366 60.6051C63.4166 60.6201 63.3915 60.6301 63.3665 60.6451C63.3364 60.6602 63.3014 60.6702 63.2663 60.6802C63.2663 60.6802 63.2663 60.6802 63.2613 60.6802C63.2262 60.6902 63.1912 60.6952 63.1511 60.7053C63.1461 60.7053 63.1411 60.7053 63.1311 60.7053C63.096 60.7053 63.0559 60.7153 63.0158 60.7153C63.0058 60.7153 62.9958 60.7153 62.9858 60.7153C62.9457 60.7153 62.9006 60.7153 62.8606 60.7153C62.7303 60.7153 62.6051 60.7303 62.565 60.8856C62.535 61.0008 62.5851 61.126 62.6301 61.2362C63.0659 62.178 63.9275 62.9093 64.9294 63.1848C65.0296 63.2099 65.1598 63.29 65.1147 63.3802C65.0947 63.4203 65.0496 63.4403 65.0095 63.4553C64.6238 63.6006 64.2131 63.6958 63.8073 63.7509C63.7071 63.7659 63.5869 63.7659 63.4667 63.7659C63.3465 63.7659 63.2312 63.7609 63.1261 63.7659C63.0159 63.7659 62.6903 63.811 62.9607 63.9963C63.6821 64.4772 64.4335 64.913 65.2099 65.3087C65.8811 65.6544 66.5373 66.0301 67.2787 66.2004C67.4089 66.2304 67.5442 66.2605 67.6694 66.3056C67.6995 66.3156 67.7295 66.3356 67.7395 66.3657C67.7596 66.4258 67.6844 66.4709 67.6293 66.4859C67.2486 66.6011 66.8529 66.6512 66.4572 66.6362C66.3169 66.6312 65.9913 66.546 65.9412 66.7363C65.9262 66.7814 65.9312 66.8415 65.9512 66.9117C65.9663 66.9718 65.9963 67.0419 66.0314 67.112C66.4973 68.0237 67.5492 68.6749 68.526 68.8753C68.8015 68.9304 69.082 68.9554 69.3525 69.0356C69.4877 69.0757 69.633 69.1558 69.6881 69.271C69.7082 69.3111 69.7182 69.3512 69.7132 69.3962C69.7031 69.4764 69.6581 69.5415 69.608 69.6016C69.5028 69.7319 69.1621 69.832 68.8716 69.8922C68.7364 69.9222 68.6712 70.0625 68.7113 70.1777C68.7213 70.2178 68.7464 70.2528 68.7815 70.2829C68.8466 70.333 68.8967 70.378 68.9217 70.3981C69.4226 70.8339 69.9987 71.1996 70.6098 71.465C71.1708 71.7105 71.782 71.7906 72.358 72.006C73.1695 72.3116 73.9359 72.7274 74.7274 73.088C75.5289 73.4537 76.3654 73.7543 77.212 74.0097C77.3322 74.0448 77.4524 74.0849 77.5776 74.1199C78.304 74.3303 79.1104 74.5257 79.9971 74.691C80.0221 74.691 80.0472 74.701 80.0722 74.706C80.498 74.7862 80.9338 74.8613 81.3997 74.9264C81.4948 74.9414 81.595 74.9515 81.6902 74.9615C81.7753 74.9715 81.9857 75.0066 82.0709 75.0116C82.652 75.0767 83.1328 75.1067 83.769 75.1418C83.8993 75.1518 84.0345 75.1568 84.1697 75.1618C84.1748 75.1618 84.1848 75.1618 84.1898 75.1568C84.4553 75.1669 84.7107 75.1819 84.9862 75.1869C85.1365 75.1869 85.2868 75.1969 85.4371 75.1969C86.0332 75.2019 86.6493 75.1969 87.2905 75.1719C87.4959 75.1618 87.6962 75.1518 87.8916 75.1418C87.9417 75.1418 87.9918 75.1368 88.0419 75.1318C88.2122 75.1218 88.3775 75.1118 88.5378 75.0967C88.5628 75.0967 88.5879 75.0967 88.6129 75.0917C88.8033 75.0767 88.9836 75.0566 89.1639 75.0366C89.194 75.0366 89.224 75.0316 89.2541 75.0266C89.4144 75.0066 89.5747 74.9865 89.73 74.9665C89.75 74.9665 89.77 74.9665 89.7901 74.9565C89.8352 74.9515 89.8903 74.9014 89.9554 74.8262C90.7068 73.9346 93.2915 72.3066 89.7851 72.7524C81.7703 73.7743 78.7698 72.5771 80.478 71.425H80.498Z" fill="#9B015D"/>
<path d="M102.649 62.9196C102.649 62.9196 102.634 62.8995 102.624 62.8945C102.128 63.3454 101.632 63.7962 101.126 64.242C101.787 64.262 102.438 64.3522 103.065 64.5576C103.28 64.6277 103.49 64.7129 103.691 64.8131L103.575 64.4875C103.37 63.9114 103.055 63.3804 102.644 62.9246L102.649 62.9196Z" fill="#9B015D"/>
<path d="M106.806 64.4925C105.845 64.7329 104.848 64.7129 103.876 64.5325C103.776 64.5125 103.676 64.4925 103.575 64.4674C103.37 63.8964 103.054 63.3704 102.649 62.9196C102.023 62.2283 101.026 61.1162 100.099 60.0894C99.8937 60.4901 99.6783 60.8858 99.4629 61.2765C99.4629 61.2866 99.4529 61.2916 99.4478 61.3016C98.5813 62.8795 97.354 64.227 95.8763 65.2589C95.8112 65.3039 95.185 65.7247 94.3885 66.2657C92.3849 67.6182 92.3548 70.5786 94.3485 71.9411C94.3735 71.9562 94.3936 71.9712 94.4136 71.9862C94.7292 72.1916 95.0598 72.402 95.4004 72.5823C95.741 72.2016 96.0316 71.7708 96.242 71.31C96.5525 70.6287 96.5475 69.8022 97.0084 69.1911C97.1987 68.9356 97.4592 68.7403 97.7247 68.5599C99.2174 67.518 101.532 65.89 103.465 66.2256C103.61 66.2507 103.751 66.2707 103.896 66.2908C103.906 66.2908 103.916 66.2908 103.921 66.2908C104.212 66.3258 104.507 66.3509 104.798 66.3509H104.918C104.918 66.3509 107.302 66.2707 107.297 66.1455C107.528 65.9201 107.608 64.8531 107.648 64.768C107.648 64.7529 107.658 64.7429 107.663 64.7279C107.663 64.7229 107.663 64.7129 107.668 64.7078C107.668 64.7078 107.668 64.6978 107.668 64.6928C107.683 64.6578 107.693 64.6177 107.703 64.5776C107.708 64.5576 107.718 64.5325 107.723 64.5125C107.728 64.4925 107.733 64.4674 107.743 64.4474C107.748 64.4273 107.753 64.4023 107.758 64.3822C107.768 64.3472 107.773 64.3171 107.783 64.2771C107.783 64.252 107.793 64.222 107.798 64.1969C107.798 64.1769 107.798 64.1618 107.808 64.1418C107.483 64.2921 107.147 64.4123 106.801 64.4975L106.806 64.4925Z" fill="#9B015D"/>
<path d="M100.034 61.1212C99.9839 61.2715 99.9538 61.4268 99.9538 61.5921C99.9538 61.9728 100.099 62.3134 100.34 62.5739C100.605 62.8594 100.981 63.0448 101.406 63.0448C101.527 63.0448 101.637 63.0297 101.747 62.9997C101.837 62.9796 101.922 62.9496 102.003 62.9145C101.988 62.9245 102.038 62.9797 102.128 63.0598C102.363 63.2752 102.859 63.6609 102.919 63.696C103.305 63.9114 103.21 64.3722 103.565 64.6327C104.131 65.0485 105.043 65.3991 105.714 65.6596C106.225 65.8599 106.766 66.0102 107.302 66.1455C107.302 66.1455 107.212 65.91 107.047 65.5794C106.997 65.4792 106.942 65.3741 106.877 65.2639C106.586 64.7529 106.16 64.1568 105.634 63.8563C104.848 63.4104 103.42 62.4587 102.789 62.0329C102.834 61.8927 102.859 61.7474 102.859 61.5971C102.859 60.7956 102.208 60.1494 101.406 60.1494C101.246 60.1494 101.096 60.1745 100.951 60.2246C100.324 59.4782 97.7998 56.648 96.4824 56.2974C96.4824 56.2974 96.5926 56.3975 96.788 56.6029C97.1386 56.9686 97.7598 57.6699 98.5061 58.7268C98.977 59.388 99.498 60.1845 100.034 61.1262V61.1212ZM101.427 60.435C101.647 60.435 101.822 60.6103 101.822 60.8307C101.822 61.0511 101.647 61.2264 101.427 61.2264C101.206 61.2264 101.031 61.0511 101.031 60.8307C101.031 60.6103 101.206 60.435 101.427 60.435Z" fill="#00144A"/>
<path d="M101.426 61.3767C101.727 61.3767 101.967 61.1362 101.967 60.8357C101.967 60.5351 101.727 60.2947 101.426 60.2947C101.126 60.2947 100.88 60.5351 100.88 60.8357C100.88 61.1362 101.126 61.3767 101.426 61.3767Z" fill="#FFF8D6"/>
<path d="M109.717 66.8667C109.351 66.4008 108.91 65.9099 108.384 65.404C108.369 65.389 108.349 65.3739 108.334 65.3589C108.124 65.1585 107.898 64.9532 107.658 64.7478C107.658 64.7478 107.658 64.7578 107.648 64.7678C107.608 64.853 107.413 65.2437 107.187 65.4691C107.142 65.5142 107.092 65.5543 107.047 65.5793C107.212 65.9099 107.302 66.1453 107.302 66.1453C106.766 66.0101 106.225 65.8648 105.714 65.6595C105.038 65.394 104.131 65.0483 103.565 64.6326L103.701 64.8129L104.858 66.3557L105.664 67.4327L105.679 67.4528L105.81 67.6281L106.511 67.1071C106.511 67.1071 108.89 68.7 110.313 69.8522C110.824 70.2679 111.199 70.6186 111.28 70.8089C111.515 71.375 111.801 69.5115 109.732 66.8767L109.717 66.8667Z" fill="#FFF8D6"/>
<path d="M109.581 68.8603C108.835 68.2342 108.099 67.583 107.503 66.8016C107.327 66.5711 107.167 66.3307 107.042 66.0752C106.591 65.96 106.14 65.8298 105.714 65.6595C105.038 65.394 104.131 65.0483 103.565 64.6326L103.701 64.8129L104.853 66.3557L105.659 67.4327L105.674 67.4528L105.805 67.6281L106.431 67.057C106.431 67.057 108.885 68.7 110.303 69.8522C110.814 70.2679 111.189 70.6186 111.27 70.8089C111.35 70.9993 111.43 70.9141 111.43 70.6236C110.884 69.9574 110.238 69.4214 109.581 68.8704V68.8603Z" fill="#FFDF72"/>
<path d="M106.05 65.7947C106.05 65.7947 106.05 65.7847 106.05 65.7797C105.94 65.7396 105.825 65.6995 105.714 65.6595C105.038 65.394 104.131 65.0483 103.565 64.6326L103.701 64.8129L104.853 66.3557L105.828 67.6817L106.506 67.1071L106.571 67.1522C106.32 66.7414 106.16 66.2505 106.055 65.7997L106.05 65.7947Z" fill="#FFDF72"/>
<path d="M91.5083 60.9257C91.5083 60.8456 91.4932 60.7604 91.4832 60.6753C91.4682 60.555 91.4431 60.4298 91.4131 60.2996C91.4031 60.2595 91.393 60.2144 91.383 60.1743C91.1626 59.3628 90.6517 58.336 89.6248 57.0586C89.5647 56.9835 89.5046 56.9083 89.4395 56.8282C89.4194 56.8031 89.3994 56.7781 89.3793 56.7581C89.3793 56.7581 89.3693 56.748 89.3693 56.743C89.3443 56.713 89.3192 56.6829 89.2942 56.6529C89.2792 56.6328 89.2591 56.6128 89.2391 56.5877C89.219 56.5627 89.194 56.5326 89.169 56.5076C89.1339 56.4675 89.0988 56.4325 89.0688 56.3924C89.0487 56.3673 89.0237 56.3423 88.9986 56.3172C88.9836 56.2972 88.9686 56.2822 88.9536 56.2621C88.8834 56.182 88.8083 56.1018 88.7332 56.0217C88.7332 56.0217 88.7332 56.0217 88.7332 56.0167C88.7231 56.0067 88.7131 55.9967 88.7031 55.9866C88.673 55.9566 88.648 55.9265 88.6179 55.8965C88.5729 55.8514 88.5328 55.8013 88.4877 55.7562C88.4877 55.7562 88.4877 55.7562 88.4827 55.7462C88.4677 55.7312 88.4476 55.7111 88.4376 55.6961C88.4176 55.6761 88.3975 55.651 88.3775 55.631C88.3424 55.5959 88.3074 55.5558 88.2723 55.5208C88.2623 55.5108 88.2523 55.5007 88.2423 55.4907C88.2222 55.4707 88.1972 55.4456 88.1771 55.4206C87.8315 55.0599 87.4809 54.6893 87.1152 54.3486C87.1002 54.3336 87.0851 54.3186 87.0701 54.3035C86.9399 54.1783 86.8096 54.0481 86.6744 53.9228C86.6694 53.9178 86.6593 53.9078 86.6543 53.9028C86.5191 53.7726 86.3838 53.6423 86.2436 53.5071C86.2235 53.487 86.2035 53.467 86.1835 53.447C86.0482 53.3167 85.913 53.1915 85.7727 53.0613C85.7527 53.0412 85.7276 53.0212 85.7076 52.9961C85.5673 52.8659 85.4221 52.7306 85.2818 52.6004C85.2267 52.5503 84.821 52.1746 84.7859 52.1496C84.6356 52.0143 84.4853 51.8741 84.3351 51.7388C84.32 51.7238 84.3 51.7088 84.285 51.6937C84.1347 51.5585 83.9894 51.4283 83.8392 51.293C83.8241 51.278 83.8041 51.263 83.7891 51.2479C83.4735 50.9674 83.1579 50.6869 82.8373 50.4064C81.9607 49.64 81.0741 48.8786 80.1824 48.1272C79.3309 47.4109 78.4843 46.6745 77.5726 46.0333C76.0749 44.9814 74.4218 44.1549 72.6786 43.6039C72.4432 43.5287 72.2128 43.4586 71.9924 43.3985C71.9373 43.3835 71.8872 43.3684 71.8371 43.3584C71.5015 43.2682 71.1558 43.1881 70.8052 43.1731C70.2291 43.153 69.6881 42.8124 69.2223 42.5018C68.7564 42.1863 68.3356 41.8456 67.8698 41.5451C67.5141 41.3147 67.1384 41.1193 66.7327 41.0041C66.4071 40.9089 66.0615 40.8738 65.7259 40.8187C63.1411 40.398 61.1975 38.8501 59.0386 37.5227C58.8432 37.4025 58.6629 37.2973 58.4926 37.2071C58.4926 37.2071 58.4926 37.2071 58.4825 37.2071C58.4324 37.1821 58.3823 37.152 58.3323 37.132C58.3222 37.132 58.3122 37.1219 58.3022 37.1169C58.2621 37.0969 58.2221 37.0769 58.182 37.0618C58.167 37.0568 58.1569 37.0518 58.1419 37.0468C58.1068 37.0318 58.0718 37.0168 58.0367 37.0067C58.0217 37.0067 58.0117 36.9967 57.9966 36.9917C57.9666 36.9817 57.9315 36.9717 57.9015 36.9617C57.8914 36.9617 57.8764 36.9516 57.8664 36.9516C57.8363 36.9416 57.8013 36.9366 57.7762 36.9266C57.7662 36.9266 57.7612 36.9266 57.7512 36.9266C57.6811 36.9116 57.6159 36.9116 57.5608 36.9166C57.5508 36.9166 57.5458 36.9166 57.5408 36.9166C57.5208 36.9166 57.5057 36.9266 57.4907 36.9316C57.4807 36.9316 57.4757 36.9416 57.4707 36.9466C57.4556 36.9566 57.4456 36.9617 57.4356 36.9717C57.4306 36.9767 57.4206 36.9867 57.4156 36.9917C57.4056 37.0017 57.4005 37.0168 57.3955 37.0318C57.3504 37.132 57.3505 37.2572 57.3855 37.3574C57.4056 37.4275 57.4556 37.4926 57.5007 37.5527C57.5458 37.6129 57.5909 37.678 57.631 37.7381C57.666 37.7882 57.6961 37.8333 57.7312 37.8833C57.7712 37.9384 57.8063 37.9936 57.8464 38.0487C57.8914 38.1088 57.9315 38.1739 57.9766 38.234C58.0217 38.2991 58.0718 38.3692 58.1169 38.4344C58.167 38.5095 58.2221 38.5796 58.2671 38.6548C58.3222 38.7349 58.3773 38.8101 58.4324 38.8902C58.4926 38.9754 58.5477 39.0555 58.6078 39.1407C58.6679 39.2258 58.728 39.316 58.7931 39.4011C58.8532 39.4863 58.9183 39.5815 58.9835 39.6716C59.0486 39.7618 59.1137 39.862 59.1788 39.9522C59.2439 40.0473 59.3141 40.1475 59.3792 40.2427C59.4443 40.3379 59.5194 40.438 59.5846 40.5382C59.6547 40.6384 59.7248 40.7386 59.7949 40.8388C59.8651 40.939 59.9402 41.0392 60.0103 41.1443C60.0805 41.2445 60.1556 41.3497 60.2257 41.4499C60.2959 41.5501 60.371 41.6553 60.4411 41.7555C60.5113 41.8557 60.5864 41.9558 60.6565 42.061C60.7267 42.1662 60.8018 42.2614 60.8719 42.3616C60.9421 42.4618 61.0122 42.562 61.0823 42.6571C61.1524 42.7573 61.2226 42.8525 61.2927 42.9477C61.3628 43.0478 61.4279 43.138 61.4981 43.2332C61.5682 43.3284 61.6333 43.4185 61.6984 43.5087C61.7636 43.5989 61.8287 43.689 61.8938 43.7742C61.9589 43.8593 62.019 43.9445 62.0791 44.0297C62.1443 44.1148 62.1994 44.1899 62.2595 44.2701C62.3146 44.3452 62.3697 44.4204 62.4298 44.5005C62.4849 44.5706 62.535 44.6408 62.5901 44.7109C62.6402 44.776 62.6903 44.8411 62.7354 44.9063C62.7804 44.9664 62.8255 45.0215 62.8706 45.0816C62.9007 45.1166 62.9307 45.1567 62.9558 45.1918C63.081 45.3521 63.1862 45.4723 63.2563 45.5575C63.8224 46.1786 62.8506 45.5875 62.1192 45.4923C61.9389 45.4673 61.7686 45.4723 61.6433 45.5374C61.6433 45.5374 61.6433 45.5374 61.6333 45.5374C61.6133 45.5474 61.5983 45.5575 61.5832 45.5725C61.5782 45.5725 61.5732 45.5825 61.5632 45.5875C61.5482 45.5975 61.5382 45.6126 61.5281 45.6226C61.5281 45.6276 61.5181 45.6326 61.5131 45.6426C61.4981 45.6627 61.4881 45.6827 61.473 45.7077C61.463 45.7278 61.453 45.7578 61.448 45.7829C61.448 45.7929 61.448 45.8029 61.443 45.8079C61.443 45.828 61.433 45.853 61.433 45.878C61.433 45.8881 61.433 45.8981 61.433 45.9081C61.3879 46.6194 61.8337 47.5561 62.1242 48.1873C62.4949 48.9888 62.9708 49.7452 63.5218 50.4364C64.6138 51.814 66.0014 52.906 67.2937 54.0731C67.3138 54.0932 67.3288 54.1082 67.3488 54.1232C67.3889 54.1633 67.434 54.1983 67.4741 54.2384C67.5041 54.2635 67.5292 54.2885 67.5592 54.3136C67.5993 54.3486 67.6394 54.3837 67.6794 54.4188C67.6995 54.4388 67.7245 54.4588 67.7496 54.4789C67.7947 54.5189 67.8447 54.564 67.8898 54.6041C67.9099 54.6191 67.9249 54.6342 67.9449 54.6542C68.005 54.7093 68.0652 54.7594 68.1253 54.8145C68.1503 54.8395 68.1804 54.8646 68.2054 54.8846C68.2305 54.9046 68.2555 54.9297 68.2805 54.9497C68.2906 54.9597 68.3056 54.9698 68.3156 54.9798C68.3407 55.0048 68.3707 55.0299 68.3958 55.0499C68.4308 55.08 68.4659 55.115 68.501 55.1451C68.526 55.1701 68.5561 55.1952 68.5861 55.2202C68.6262 55.2553 68.6663 55.2904 68.7063 55.3304C68.7264 55.3505 68.7464 55.3655 68.7664 55.3805C68.8266 55.4306 68.8817 55.4857 68.9418 55.5358C68.9618 55.5558 68.9818 55.5709 69.0019 55.5859C69.0419 55.621 69.082 55.656 69.1221 55.6911C69.1421 55.7111 69.1672 55.7262 69.1872 55.7462C69.2273 55.7813 69.2624 55.8113 69.3024 55.8464C69.3225 55.8664 69.3475 55.8865 69.3675 55.9065C69.3726 55.9115 69.3826 55.9215 69.3876 55.9265C69.4226 55.9566 69.4627 55.9916 69.4978 56.0217C69.5078 56.0317 69.5228 56.0417 69.5328 56.0518C69.588 56.1018 69.6431 56.1469 69.6931 56.192C69.7132 56.207 69.7282 56.2221 69.7432 56.2371C69.7783 56.2672 69.8134 56.3022 69.8484 56.3323C69.8685 56.3523 69.8885 56.3673 69.9136 56.3874C69.9486 56.4174 69.9787 56.4475 70.0137 56.4725C70.0338 56.4876 70.0488 56.5026 70.0638 56.5176C70.1089 56.5577 70.154 56.5928 70.1941 56.6278C70.1991 56.6278 70.2041 56.6378 70.2141 56.6428C70.2592 56.6829 70.3093 56.723 70.3544 56.7581C70.3694 56.7731 70.3844 56.7831 70.3994 56.7931C70.4295 56.8182 70.4596 56.8432 70.4896 56.8683C70.5046 56.8833 70.5197 56.8933 70.5397 56.9083C70.5698 56.9334 70.5998 56.9584 70.6249 56.9785C70.6399 56.9885 70.6499 56.9985 70.6649 57.0135C70.7451 57.0786 70.8202 57.1438 70.8954 57.1989C70.9054 57.2089 70.9154 57.2189 70.9254 57.2239C70.9505 57.2439 70.9705 57.259 70.9955 57.279C71.0056 57.289 71.0206 57.299 71.0306 57.3041C71.0506 57.3191 71.0707 57.3341 71.0957 57.3542C71.1057 57.3592 71.1158 57.3692 71.1258 57.3742C71.1558 57.3942 71.1809 57.4143 71.2059 57.4343C71.3111 57.5094 71.4113 57.5846 71.5165 57.6747C71.6167 57.7599 71.7169 57.8451 71.8171 57.9352C71.8772 57.9853 71.9323 58.0404 71.9874 58.0955C72.0024 58.1105 72.0174 58.1256 72.0324 58.1406C72.0926 58.2007 72.1527 58.2558 72.2128 58.3159C72.2228 58.3259 72.2378 58.341 72.2478 58.351C72.313 58.4161 72.3731 58.4812 72.4382 58.5463C72.4432 58.5564 72.4532 58.5614 72.4582 58.5714C72.5234 58.6415 72.5885 58.7116 72.6536 58.7818C72.6536 58.7818 72.6536 58.7818 72.6586 58.7918C73.1796 59.3679 73.5953 60.0391 74.1363 60.5901C74.4569 60.9107 74.8376 61.1612 75.2233 61.4016C76.6409 62.2782 78.1437 63.0246 79.7066 63.6006C80.3277 63.8311 80.9989 64.0465 81.7052 64.2318C82.3965 64.4171 83.1178 64.5674 83.8442 64.6676C84.1247 64.7077 84.4002 64.7377 84.6807 64.7578C84.7058 64.7578 84.7308 64.7578 84.7508 64.7628C85.0514 64.7828 85.3519 64.7978 85.6475 64.7978H85.6575C85.8128 64.7978 85.9681 64.7978 86.1183 64.7878C86.4239 64.7728 86.7295 64.7477 87.025 64.7077C87.3206 64.6676 87.6161 64.6075 87.9016 64.5374C88.4076 64.4071 88.8834 64.2218 89.3343 63.9813C89.6599 63.806 89.9704 63.6006 90.261 63.3552C90.7519 62.9394 91.2678 62.4686 91.4532 61.8324C91.4982 61.6771 91.5333 61.5018 91.5483 61.3014C91.5584 61.1812 91.5584 61.0509 91.5483 60.9107H91.5433L91.5083 60.9257Z" fill="#FFB2D2"/>
<path d="M91.5083 60.9258C91.5083 60.8457 91.4932 60.7605 91.4832 60.6754C91.4682 60.5552 91.4431 60.4299 91.4131 60.2997C91.4031 60.2596 91.3931 60.2145 91.383 60.1745C91.1626 59.363 90.6517 58.3361 89.6248 57.0587C89.5647 56.9836 89.5046 56.9085 89.4395 56.8283C89.4194 56.8033 89.3994 56.7782 89.3794 56.7582C89.3794 56.7582 89.3693 56.7482 89.3693 56.7432C89.3443 56.7131 89.3192 56.683 89.2942 56.653C89.2792 56.633 89.2591 56.6129 89.2391 56.5879C89.2191 56.5628 89.194 56.5328 89.169 56.5077C89.1339 56.4676 89.0988 56.4326 89.0688 56.3925C89.0487 56.3675 89.0237 56.3424 88.9987 56.3174C88.9836 56.2973 88.9686 56.2823 88.9536 56.2623C88.8985 56.2022 88.8434 56.142 88.7883 56.0769C88.7983 56.3174 88.8033 56.5528 88.8083 56.7932C88.8183 58.0906 88.7582 59.6886 87.8265 60.7054C86.9499 61.6572 85.4672 61.8025 84.2599 61.6472C82.7422 61.4568 81.2945 60.8958 79.922 60.2446C78.5995 59.6184 77.3322 58.8871 76.0999 58.1107C74.6372 57.189 73.2146 56.1921 71.8121 55.1803C70.0638 53.913 68.3557 52.5855 66.7678 51.1228C66.7678 51.1228 66.7578 51.1128 66.7527 51.1078C65.821 50.2462 65.5155 48.8937 65.9913 47.7166C66.0214 47.6364 66.0565 47.5663 66.0865 47.5012C66.357 46.9702 66.7527 46.4943 67.2787 46.2639C66.5674 45.4774 65.8311 44.716 65.0947 43.9546C63.8925 42.7174 62.7404 41.43 61.6333 40.1026C61.1525 39.5215 60.6465 38.9154 60.2157 38.2692C59.825 38.0137 59.4293 37.7633 59.0285 37.5128C58.8332 37.3926 58.6529 37.2874 58.4825 37.1972C58.4825 37.1972 58.4825 37.1972 58.4725 37.1972C58.4224 37.1722 58.3723 37.1421 58.3222 37.1221C58.3122 37.1221 58.3022 37.1121 58.2922 37.107C58.2521 37.087 58.212 37.067 58.172 37.0519C58.1569 37.0469 58.1469 37.0419 58.1319 37.0369C58.0968 37.0219 58.0618 37.0069 58.0267 36.9968C58.0117 36.9968 58.0017 36.9868 57.9866 36.9818C57.9566 36.9718 57.9215 36.9568 57.8915 36.9518C57.8814 36.9518 57.8664 36.9417 57.8564 36.9417C57.8263 36.9317 57.7913 36.9267 57.7662 36.9217C57.7562 36.9217 57.7512 36.9217 57.7412 36.9217C57.671 36.9067 57.6059 36.9067 57.5508 36.9117C57.5408 36.9117 57.5358 36.9117 57.5308 36.9117C57.5108 36.9117 57.4957 36.9217 57.4807 36.9267C57.4707 36.9267 57.4657 36.9367 57.4607 36.9417C57.4456 36.9518 57.4356 36.9568 57.4256 36.9668C57.4206 36.9718 57.4106 36.9818 57.4056 36.9868C57.3955 36.9968 57.3905 37.0119 57.3855 37.0269C57.3404 37.1271 57.3404 37.2523 57.3755 37.3525C57.3955 37.4226 57.4456 37.4877 57.4907 37.5479C57.5358 37.608 57.5809 37.6731 57.621 37.7332C57.656 37.7833 57.6861 37.8284 57.7211 37.8785C57.7612 37.9336 57.7963 37.9887 57.8364 38.0438C57.8814 38.1039 57.9215 38.169 57.9666 38.2291C58.0117 38.2942 58.0618 38.3644 58.1068 38.4295C58.1569 38.5046 58.212 38.5747 58.2571 38.6499C58.3122 38.73 58.3673 38.8052 58.4224 38.8853C58.4825 38.9705 58.5376 39.0506 58.5978 39.1358C58.6579 39.2209 58.718 39.3111 58.7831 39.3963C58.8482 39.4864 58.9083 39.5766 58.9734 39.6668C59.0386 39.7619 59.1037 39.8571 59.1688 39.9473C59.2339 40.0424 59.3041 40.1426 59.3692 40.2378C59.4393 40.338 59.5094 40.4332 59.5745 40.5333C59.6447 40.6335 59.7148 40.7337 59.7849 40.8339C59.8551 40.9341 59.9302 41.0343 60.0003 41.1395C60.0705 41.2396 60.1456 41.3448 60.2157 41.445C60.2859 41.5452 60.361 41.6504 60.4311 41.7506C60.5013 41.8508 60.5764 41.951 60.6465 42.0561C60.7166 42.1563 60.7918 42.2565 60.8619 42.3567C60.932 42.4569 61.0022 42.5571 61.0723 42.6522C61.1424 42.7524 61.2126 42.8476 61.2827 42.9428C61.3528 43.038 61.4179 43.1331 61.4881 43.2283C61.5532 43.3185 61.6233 43.4136 61.6884 43.5038C61.7536 43.594 61.8187 43.6841 61.8838 43.7693C61.9489 43.8545 62.009 43.9396 62.0691 44.0248C62.1292 44.1049 62.1894 44.1851 62.2495 44.2652C62.3046 44.3403 62.3597 44.4155 62.4198 44.4956C62.4749 44.5658 62.525 44.6359 62.5801 44.706C62.6302 44.7711 62.6803 44.8363 62.7253 44.9014C62.7704 44.9615 62.8155 45.0166 62.8606 45.0767C62.8906 45.1118 62.9207 45.1518 62.9457 45.1869C63.071 45.3472 63.1762 45.4674 63.2463 45.5526C63.8123 46.1737 62.8406 45.5826 62.1092 45.4875C61.9289 45.4624 61.7586 45.4674 61.6333 45.5325C61.6333 45.5325 61.6333 45.5325 61.6233 45.5325C61.6033 45.5426 61.5883 45.5526 61.5732 45.5676C61.5682 45.5676 61.5632 45.5776 61.5532 45.5826C61.5382 45.5927 61.5281 45.6077 61.5181 45.6177C61.5181 45.6227 61.5081 45.6277 61.5031 45.6377C61.4881 45.6578 61.478 45.6778 61.463 45.7029C61.453 45.7229 61.443 45.7529 61.438 45.778C61.438 45.788 61.438 45.798 61.433 45.803C61.433 45.8281 61.4229 45.8481 61.4229 45.8732C61.4229 45.8832 61.4229 45.8932 61.4229 45.9032C61.3779 46.6145 61.8237 47.5513 62.1142 48.1824C62.4849 48.9839 62.9608 49.7403 63.5118 50.4316C63.632 50.5868 63.7622 50.7371 63.8925 50.8874C63.9175 50.9174 63.9426 50.9425 63.9676 50.9725C64.0878 51.1078 64.2131 51.243 64.3383 51.3783C64.3734 51.4134 64.4084 51.4534 64.4435 51.4885C64.5587 51.6087 64.6789 51.7239 64.7941 51.8391C64.8442 51.8892 64.8993 51.9393 64.9494 51.9894C65.0346 52.0696 65.1147 52.1447 65.1999 52.2248C65.3552 52.3701 65.5105 52.5104 65.6657 52.6506C66.2017 53.1265 66.7427 53.5924 67.2687 54.0682C67.2887 54.0883 67.3038 54.1033 67.3238 54.1183C67.3639 54.1584 67.409 54.1935 67.449 54.2335C67.4791 54.2586 67.5041 54.2836 67.5342 54.3087C67.5743 54.3437 67.6143 54.3788 67.6544 54.4139C67.6744 54.4339 67.6995 54.4539 67.7245 54.474C67.7696 54.5141 67.8197 54.5591 67.8648 54.5992C67.8848 54.6142 67.8999 54.6293 67.9199 54.6493C67.98 54.7044 68.0401 54.7545 68.1002 54.8096C68.1253 54.8346 68.1553 54.8597 68.1804 54.8797C68.2054 54.8998 68.2305 54.9248 68.2555 54.9448C68.2655 54.9549 68.2806 54.9649 68.2906 54.9749C68.3156 55 68.3457 55.025 68.3707 55.045C68.4058 55.0751 68.4409 55.1102 68.4759 55.1402C68.501 55.1653 68.531 55.1903 68.5611 55.2153C68.6011 55.2504 68.6412 55.2855 68.6813 55.3255C68.7013 55.3456 68.7214 55.3606 68.7414 55.3756C68.8015 55.4257 68.8566 55.4808 68.9167 55.5309C68.9368 55.551 68.9568 55.566 68.9768 55.581C69.0169 55.6161 69.057 55.6511 69.0971 55.6862C69.1171 55.7062 69.1421 55.7213 69.1622 55.7413C69.2023 55.7764 69.2373 55.8064 69.2774 55.8415C69.2974 55.8615 69.3225 55.8816 69.3425 55.9016C69.3475 55.9066 69.3575 55.9166 69.3625 55.9216C69.3976 55.9517 69.4377 55.9868 69.4728 56.0168C69.4828 56.0268 69.4978 56.0369 69.5078 56.0469C69.5629 56.097 69.618 56.142 69.6681 56.1871C69.6881 56.2022 69.7032 56.2172 69.7182 56.2322C69.7533 56.2623 69.7883 56.2973 69.8284 56.3274C69.8484 56.3474 69.8685 56.3625 69.8935 56.3825C69.9286 56.4125 69.9586 56.4426 69.9937 56.4676C70.0137 56.4827 70.0288 56.4977 70.0438 56.5127C70.0889 56.5528 70.134 56.5879 70.174 56.6229C70.179 56.6229 70.1841 56.633 70.1941 56.638C70.2392 56.678 70.2892 56.7181 70.3343 56.7532C70.3494 56.7682 70.3644 56.7782 70.3794 56.7882C70.4095 56.8133 70.4395 56.8383 70.4696 56.8634C70.4846 56.8784 70.4996 56.8884 70.5197 56.9035C70.5497 56.9285 70.5798 56.9535 70.6048 56.9736C70.6199 56.9836 70.6299 56.9986 70.6449 57.0086C70.7251 57.0738 70.8002 57.1389 70.8753 57.194C70.8853 57.204 70.8954 57.214 70.9054 57.219C70.9304 57.2391 70.9505 57.2541 70.9755 57.2741C70.9855 57.2842 71.0006 57.2942 71.0106 57.2992C71.0306 57.3142 71.0507 57.3292 71.0757 57.3493C71.0857 57.3543 71.0957 57.3643 71.1058 57.3693C71.1358 57.3893 71.1609 57.4094 71.1859 57.4294C71.2911 57.5046 71.3913 57.5797 71.4965 57.6699C71.5967 57.755 71.6968 57.8402 71.797 57.9303C71.8571 57.9804 71.9122 58.0355 71.9673 58.0906C71.9824 58.1057 71.9974 58.1207 72.0124 58.1357C72.0725 58.1958 72.1326 58.2509 72.1928 58.311C72.2028 58.3211 72.2178 58.3311 72.2278 58.3461C72.2929 58.4112 72.353 58.4763 72.4182 58.5415C72.4232 58.5515 72.4332 58.5565 72.4382 58.5615C72.5033 58.6316 72.5684 58.7018 72.6336 58.7719C72.6336 58.7719 72.6336 58.7719 72.6386 58.7819C73.1595 59.358 73.5753 60.0292 74.1163 60.5802C74.4369 60.9008 74.8176 61.1513 75.2033 61.3917C76.6209 62.2683 78.1237 63.0147 79.6865 63.5907C80.3077 63.8212 80.9789 64.0366 81.6852 64.2219C82.3765 64.4072 83.0978 64.5575 83.8241 64.6577C84.1047 64.6978 84.3802 64.7278 84.6607 64.7479C84.6857 64.7479 84.7108 64.7479 84.7308 64.7529C85.0314 64.7729 85.3319 64.7879 85.6275 64.7879H85.6375C85.7928 64.7879 85.948 64.7879 86.0983 64.7779C86.4039 64.7629 86.7094 64.7379 87.005 64.6978C87.3005 64.6577 87.5961 64.5976 87.8816 64.5275C88.3875 64.3972 88.8634 64.2119 89.3142 63.9714C89.6398 63.7961 89.9504 63.5907 90.2409 63.3453C90.7318 62.9295 91.2478 62.4587 91.4331 61.8225C91.4782 61.6672 91.5133 61.4919 91.5283 61.2915C91.5383 61.1713 91.5383 61.0411 91.5283 60.9008L91.5083 60.9258Z" fill="#DF1278"/>
</svg>
