<svg width="320" height="240" viewBox="0 0 320 240" fill="none" xmlns="http://www.w3.org/2000/svg">
<path d="M130.352 144.456H33.9433C26.384 144.456 19.1343 147.459 13.789 152.804C8.4438 158.15 5.44092 165.399 5.44092 172.959C5.44092 180.518 8.4438 187.768 13.789 193.113C19.1343 198.458 26.384 201.461 33.9433 201.461H130.392C137.952 201.461 145.201 198.458 150.547 193.113C155.892 187.768 158.895 180.518 158.895 172.959C158.895 165.399 155.892 158.15 150.547 152.804C145.201 147.459 137.952 144.456 130.392 144.456H130.352Z" fill="#EBF8FF"/>
<path d="M165.474 172.749H69.0149C61.5493 172.889 54.4366 175.953 49.2063 181.282C43.9761 186.611 41.0459 193.779 41.0459 201.246C41.0459 208.713 43.9761 215.882 49.2063 221.211C54.4366 226.54 61.5493 229.604 69.0149 229.744H165.474C172.939 229.604 180.052 226.54 185.282 221.211C190.513 215.882 193.443 208.713 193.443 201.246C193.443 193.779 190.513 186.611 185.282 181.282C180.052 175.953 172.939 172.889 165.474 172.749Z" fill="#EBF8FF"/>
<path d="M290.964 93.9306H194.515C190.728 93.8597 186.965 94.5444 183.445 95.9447C179.926 97.345 176.721 99.4328 174.017 102.086C171.314 104.739 169.166 107.905 167.7 111.398C166.235 114.89 165.479 118.64 165.479 122.428C165.479 126.216 166.235 129.966 167.7 133.458C169.166 136.951 171.314 140.117 174.017 142.77C176.721 145.423 179.926 147.511 183.445 148.911C186.965 150.312 190.728 150.996 194.515 150.925H290.964C294.752 150.996 298.515 150.312 302.034 148.911C305.554 147.511 308.759 145.423 311.463 142.77C314.166 140.117 316.313 136.951 317.779 133.458C319.245 129.966 320 126.216 320 122.428C320 118.64 319.245 114.89 317.779 111.398C316.313 107.905 314.166 104.739 311.463 102.086C308.759 99.4328 305.554 97.345 302.034 95.9447C298.515 94.5444 294.752 93.8597 290.964 93.9306Z" fill="#EBF8FF"/>
<path d="M219.084 41.8975H37.767C27.7505 41.8975 18.1444 45.8765 11.0617 52.9591C3.979 60.0418 0 69.648 0 79.6644C0 89.6808 3.979 99.287 11.0617 106.37C18.1444 113.452 27.7505 117.431 37.767 117.431H219.084C229.101 117.431 238.707 113.452 245.789 106.37C252.872 99.287 256.851 89.6808 256.851 79.6644C256.851 69.648 252.872 60.0418 245.789 52.9591C238.707 45.8765 229.101 41.8975 219.084 41.8975Z" fill="#EBF8FF"/>
<path d="M108.646 142.225C108.646 141.121 109.541 140.225 110.646 140.225H129.421C130.525 140.225 131.421 141.121 131.421 142.225V157.34C131.421 158.445 130.525 159.34 129.421 159.34H110.646C109.541 159.34 108.646 158.445 108.646 157.34V142.225Z" fill="white"/>
<path fill-rule="evenodd" clip-rule="evenodd" d="M110.646 137.225H129.421C132.182 137.225 134.421 139.464 134.421 142.225V157.34C134.421 160.102 132.182 162.34 129.421 162.34H110.646C107.885 162.34 105.646 160.102 105.646 157.34V142.225C105.646 139.464 107.885 137.225 110.646 137.225ZM110.646 140.225C109.541 140.225 108.646 141.121 108.646 142.225V157.34C108.646 158.445 109.541 159.34 110.646 159.34H129.421C130.525 159.34 131.421 158.445 131.421 157.34V142.225C131.421 141.121 130.525 140.225 129.421 140.225H110.646Z" fill="#00144A"/>
<path d="M150.301 142.225C150.301 141.121 151.197 140.225 152.301 140.225H171.076C172.181 140.225 173.076 141.121 173.076 142.225V157.34C173.076 158.445 172.181 159.34 171.076 159.34H152.301C151.197 159.34 150.301 158.445 150.301 157.34V142.225Z" fill="white"/>
<path fill-rule="evenodd" clip-rule="evenodd" d="M152.301 137.225H171.076C173.838 137.225 176.076 139.464 176.076 142.225V157.34C176.076 160.102 173.838 162.34 171.076 162.34H152.301C149.54 162.34 147.301 160.102 147.301 157.34V142.225C147.301 139.464 149.54 137.225 152.301 137.225ZM152.301 140.225C151.197 140.225 150.301 141.121 150.301 142.225V157.34C150.301 158.445 151.197 159.34 152.301 159.34H171.076C172.181 159.34 173.076 158.445 173.076 157.34V142.225C173.076 141.121 172.181 140.225 171.076 140.225H152.301Z" fill="#00144A"/>
<path d="M191.957 142.225C191.957 141.121 192.852 140.225 193.957 140.225H212.731C213.836 140.225 214.731 141.121 214.731 142.225V157.34C214.731 158.445 213.836 159.34 212.731 159.34H193.957C192.852 159.34 191.957 158.445 191.957 157.34V142.225Z" fill="white"/>
<path fill-rule="evenodd" clip-rule="evenodd" d="M193.957 137.225H212.731C215.493 137.225 217.731 139.464 217.731 142.225V157.34C217.731 160.102 215.493 162.34 212.731 162.34H193.957C191.195 162.34 188.957 160.102 188.957 157.34V142.225C188.957 139.464 191.195 137.225 193.957 137.225ZM193.957 140.225C192.852 140.225 191.957 141.121 191.957 142.225V157.34C191.957 158.445 192.852 159.34 193.957 159.34H212.731C213.836 159.34 214.731 158.445 214.731 157.34V142.225C214.731 141.121 213.836 140.225 212.731 140.225H193.957Z" fill="#00144A"/>
<path d="M94.3511 154.053H229.026V195.536H94.3511V154.053Z" fill="white"/>
<path fill-rule="evenodd" clip-rule="evenodd" d="M91.3511 151.053H232.026V198.536H91.3511V151.053ZM94.3511 154.053V195.536H229.026V154.053H94.3511Z" fill="#00144A"/>
<rect x="200.296" y="95.5821" width="22.7749" height="19.115" rx="3" fill="#004DA5"/>
<rect x="241.951" y="95.5821" width="22.7749" height="19.115" rx="3" fill="#004DA5"/>
<rect x="186.001" y="109.41" width="92.835" height="41.4831" fill="#0070F2"/>
<path d="M153.878 56.0989C153.878 54.9944 154.773 54.0989 155.878 54.0989H174.653C175.757 54.0989 176.653 54.9944 176.653 56.0989V71.2139C176.653 72.3185 175.757 73.2139 174.653 73.2139H155.878C154.773 73.2139 153.878 72.3185 153.878 71.2139V56.0989Z" fill="white"/>
<path fill-rule="evenodd" clip-rule="evenodd" d="M155.878 51.0989H174.653C177.414 51.0989 179.653 53.3375 179.653 56.0989V71.2139C179.653 73.9754 177.414 76.2139 174.653 76.2139H155.878C153.117 76.2139 150.878 73.9754 150.878 71.2139V56.0989C150.878 53.3375 153.117 51.0989 155.878 51.0989ZM155.878 54.0989C154.773 54.0989 153.878 54.9944 153.878 56.0989V71.2139C153.878 72.3185 154.773 73.2139 155.878 73.2139H174.653C175.757 73.2139 176.653 72.3185 176.653 71.2139V56.0989C176.653 54.9944 175.757 54.0989 174.653 54.0989H155.878Z" fill="#00144A"/>
<path d="M195.533 56.0989C195.533 54.9944 196.429 54.0989 197.533 54.0989H216.308C217.413 54.0989 218.308 54.9944 218.308 56.0989V71.2139C218.308 72.3185 217.413 73.2139 216.308 73.2139H197.533C196.429 73.2139 195.533 72.3185 195.533 71.2139V56.0989Z" fill="white"/>
<path fill-rule="evenodd" clip-rule="evenodd" d="M197.533 51.0989H216.308C219.069 51.0989 221.308 53.3375 221.308 56.0989V71.2139C221.308 73.9754 219.069 76.2139 216.308 76.2139H197.533C194.772 76.2139 192.533 73.9754 192.533 71.2139V56.0989C192.533 53.3375 194.772 51.0989 197.533 51.0989ZM197.533 54.0989C196.429 54.0989 195.533 54.9944 195.533 56.0989V71.2139C195.533 72.3185 196.429 73.2139 197.533 73.2139H216.308C217.413 73.2139 218.308 72.3185 218.308 71.2139V56.0989C218.308 54.9944 217.413 54.0989 216.308 54.0989H197.533Z" fill="#00144A"/>
<path d="M139.583 67.9267H232.418V109.41H139.583V67.9267Z" fill="white"/>
<path fill-rule="evenodd" clip-rule="evenodd" d="M136.583 64.9267H235.418V112.41H136.583V64.9267ZM139.583 67.9267V109.41H232.418V67.9267H139.583Z" fill="#00144A"/>
<rect x="20.5869" y="85.0211" width="22.7749" height="19.115" rx="3" transform="rotate(-40.3434 20.5869 85.0211)" fill="#CC7400"/>
<rect x="18.6431" y="104.815" width="51.2085" height="41.4831" transform="rotate(-40.3434 18.6431 104.815)" fill="#F58B00"/>
</svg>
