<svg width="46" height="47" viewBox="0 0 46 47" fill="none" xmlns="http://www.w3.org/2000/svg">
<g clip-path="url(#clip0_14765_9599)">
<path fill-rule="evenodd" clip-rule="evenodd" d="M17.8643 14.6833C17.3787 14.6833 16.9189 14.9024 16.6128 15.2797L9.56047 23.9715C9.09739 24.5423 9.07857 25.3541 9.51472 25.9457L23.6194 45.0779C23.9233 45.4901 24.4047 45.7333 24.9166 45.7333C25.4285 45.7333 25.9099 45.4901 26.2138 45.0779L40.3185 25.9457C40.7547 25.3541 40.7358 24.5423 40.2728 23.9715L33.2204 15.2797C32.9143 14.9024 32.4546 14.6833 31.969 14.6833H17.8643ZM33.8578 24.8567C30.5298 24.2953 29.4648 21.6788 29.1129 20.0422C29.0749 19.8805 28.8657 19.89 28.8372 20.0517C28.2762 23.3819 25.6612 24.4476 24.0257 24.7996C23.8641 24.8377 23.8736 25.047 24.0352 25.0756C27.3633 25.6369 28.4283 28.2535 28.7801 29.8901C28.8182 30.0518 29.0274 30.0423 29.0559 29.8805C29.6169 26.5504 32.2318 25.4847 33.8673 25.1327C34.029 25.0946 34.0195 24.8853 33.8578 24.8567Z" fill="url(#paint0_linear_14765_9599)"/>
<path d="M38.9246 8.2822C39.1616 9.36499 39.8788 11.0962 42.1201 11.4676C42.229 11.4865 42.2354 11.625 42.1265 11.6502C41.0251 11.8831 39.264 12.5882 38.8862 14.7915C38.867 14.8986 38.7261 14.9049 38.7005 14.7978C38.4635 13.715 37.7463 11.9838 35.505 11.6124C35.3961 11.5935 35.3897 11.455 35.4986 11.4298C36.6 11.1969 38.3611 10.4919 38.7389 8.2885C38.7581 8.18148 38.899 8.17518 38.9246 8.2822Z" fill="url(#paint1_linear_14765_9599)"/>
<path d="M16.2078 0.61578C16.5572 2.23997 17.6148 4.83677 20.9198 5.39391C21.0803 5.42224 21.0898 5.62998 20.9293 5.66775C19.3051 6.01714 16.7083 7.07475 16.1511 10.3798C16.1228 10.5403 15.9151 10.5498 15.8773 10.3892C15.5279 8.76504 14.4703 6.16823 11.1653 5.61109C11.0047 5.58277 10.9953 5.37502 11.1558 5.33725C12.78 4.98786 15.3768 3.93025 15.9339 0.625223C15.9623 0.464693 16.17 0.45525 16.2078 0.61578Z" fill="url(#paint2_linear_14765_9599)"/>
<path d="M6.43516 10.5835C6.66808 11.685 7.37316 13.446 9.57651 13.8239C9.68353 13.8431 9.68982 13.984 9.5828 14.0096C8.50001 14.2465 6.76881 14.9637 6.39739 17.2051C6.3785 17.3139 6.24 17.3204 6.21482 17.2115C5.9819 16.11 5.27682 14.349 3.07347 13.9711C2.96645 13.9519 2.96016 13.8111 3.06718 13.7854C4.14997 13.5485 5.88117 12.8313 6.25259 10.5899C6.27148 10.4811 6.40998 10.4747 6.43516 10.5835Z" fill="url(#paint3_linear_14765_9599)"/>
</g>
<defs>
<linearGradient id="paint0_linear_14765_9599" x1="24.9166" y1="14.6833" x2="24.9166" y2="45.7334" gradientUnits="userSpaceOnUse">
<stop stop-color="#5D36FF"/>
<stop offset="1" stop-color="#A100C2"/>
</linearGradient>
<linearGradient id="paint1_linear_14765_9599" x1="38.8125" y1="8.20502" x2="38.8125" y2="14.875" gradientUnits="userSpaceOnUse">
<stop stop-color="#5D36FF"/>
<stop offset="1" stop-color="#A100C2"/>
</linearGradient>
<linearGradient id="paint2_linear_14765_9599" x1="16.0425" y1="0.5" x2="16.0425" y2="10.505" gradientUnits="userSpaceOnUse">
<stop stop-color="#5D36FF"/>
<stop offset="1" stop-color="#A100C2"/>
</linearGradient>
<linearGradient id="paint3_linear_14765_9599" x1="6.32499" y1="10.505" x2="6.32499" y2="17.29" gradientUnits="userSpaceOnUse">
<stop stop-color="#5D36FF"/>
<stop offset="1" stop-color="#A100C2"/>
</linearGradient>
<clipPath id="clip0_14765_9599">
<rect width="46" height="46" fill="white" transform="translate(0 0.5)"/>
</clipPath>
</defs>
</svg>
