<svg width="320" height="240" viewBox="0 0 320 240" fill="none" xmlns="http://www.w3.org/2000/svg">
<path d="M130.352 144.456H33.9433C26.384 144.456 19.1343 147.459 13.789 152.804C8.4438 158.149 5.44092 165.399 5.44092 172.958C5.44092 180.518 8.4438 187.767 13.789 193.113C19.1343 198.458 26.384 201.461 33.9433 201.461H130.392C137.952 201.461 145.201 198.458 150.547 193.113C155.892 187.767 158.895 180.518 158.895 172.958C158.895 165.399 155.892 158.149 150.547 152.804C145.201 147.459 137.952 144.456 130.392 144.456H130.352Z" fill="#EBF8FF"/>
<path d="M165.474 172.749H69.0146C61.549 172.889 54.4364 175.953 49.2061 181.282C43.9758 186.611 41.0457 193.78 41.0457 201.246C41.0457 208.713 43.9758 215.882 49.2061 221.211C54.4364 226.54 61.549 229.604 69.0146 229.744H165.474C172.939 229.604 180.052 226.54 185.282 221.211C190.512 215.882 193.443 208.713 193.443 201.246C193.443 193.78 190.512 186.611 185.282 181.282C180.052 175.953 172.939 172.889 165.474 172.749Z" fill="#EBF8FF"/>
<path d="M290.964 93.9308H194.515C190.728 93.8599 186.965 94.5446 183.445 95.9449C179.925 97.3452 176.72 99.433 174.017 102.086C171.314 104.739 169.166 107.905 167.7 111.398C166.234 114.89 165.479 118.64 165.479 122.428C165.479 126.216 166.234 129.966 167.7 133.459C169.166 136.951 171.314 140.117 174.017 142.77C176.72 145.423 179.925 147.511 183.445 148.911C186.965 150.312 190.728 150.997 194.515 150.926H290.964C294.751 150.997 298.515 150.312 302.034 148.911C305.554 147.511 308.759 145.423 311.462 142.77C314.166 140.117 316.313 136.951 317.779 133.459C319.245 129.966 320 126.216 320 122.428C320 118.64 319.245 114.89 317.779 111.398C316.313 107.905 314.166 104.739 311.462 102.086C308.759 99.433 305.554 97.3452 302.034 95.9449C298.515 94.5446 294.751 93.8599 290.964 93.9308Z" fill="#EBF8FF"/>
<path d="M219.084 41.8975H37.767C27.7505 41.8975 18.1444 45.8765 11.0617 52.9591C3.979 60.0418 0 69.648 0 79.6644C0 89.6808 3.979 99.287 11.0617 106.37C18.1444 113.452 27.7505 117.431 37.767 117.431H219.084C229.101 117.431 238.707 113.452 245.789 106.37C252.872 99.287 256.851 89.6808 256.851 79.6644C256.851 69.648 252.872 60.0418 245.789 52.9591C238.707 45.8765 229.101 41.8975 219.084 41.8975Z" fill="#EBF8FF"/>
<ellipse cx="14.2596" cy="17.6255" rx="14.2596" ry="17.6255" transform="matrix(-0.877901 -0.478843 -0.478843 0.877901 102.917 124.036)" fill="#A9B4BE"/>
<path fill-rule="evenodd" clip-rule="evenodd" d="M117.302 61.4116C118.959 61.4116 120.302 62.7548 120.302 64.4116L120.302 101.996C120.302 103.653 118.959 104.996 117.302 104.996C115.645 104.996 114.302 103.653 114.302 101.996L114.302 64.4116C114.302 62.7548 115.645 61.4116 117.302 61.4116Z" fill="#D5DADD"/>
<circle cx="116.951" cy="57.6611" r="10.3931" fill="#A9B4BE"/>
<mask id="path-8-inside-1_10440_67804" fill="white">
<path fill-rule="evenodd" clip-rule="evenodd" d="M64.0094 178.587C63.8274 181.896 66.5311 184.588 69.8448 184.588H251.041C254.354 184.588 257.058 181.896 256.876 178.587C253.933 125.076 211.883 82.6396 160.443 82.6396C109.002 82.6396 66.9527 125.076 64.0094 178.587Z"/>
</mask>
<path fill-rule="evenodd" clip-rule="evenodd" d="M64.0094 178.587C63.8274 181.896 66.5311 184.588 69.8448 184.588H251.041C254.354 184.588 257.058 181.896 256.876 178.587C253.933 125.076 211.883 82.6396 160.443 82.6396C109.002 82.6396 66.9527 125.076 64.0094 178.587Z" fill="white"/>
<path d="M256.876 178.587L259.871 178.422L256.876 178.587ZM69.8448 187.588H251.041V181.588H69.8448V187.588ZM160.443 85.6396C210.143 85.6396 251.016 126.68 253.88 178.752L259.871 178.422C256.849 123.472 213.623 79.6396 160.443 79.6396V85.6396ZM67.0049 178.752C69.869 126.68 110.742 85.6396 160.443 85.6396V79.6396C107.262 79.6396 64.0364 123.472 61.0139 178.422L67.0049 178.752ZM251.041 187.588C255.967 187.588 260.154 183.557 259.871 178.422L253.88 178.752C253.962 180.235 252.741 181.588 251.041 181.588V187.588ZM69.8448 181.588C68.144 181.588 66.9233 180.235 67.0049 178.752L61.0139 178.422C60.7315 183.557 64.9183 187.588 69.8448 187.588V181.588Z" fill="#A9B4BE" mask="url(#path-8-inside-1_10440_67804)"/>
<path fill-rule="evenodd" clip-rule="evenodd" d="M99.3965 160.87C99.0904 163.169 100.934 165.14 103.253 165.14H217.631C219.95 165.14 221.794 163.169 221.488 160.87C217.283 129.293 191.554 104.996 160.442 104.996C129.33 104.996 103.601 129.293 99.3965 160.87Z" fill="#A9B4BE"/>
<ellipse cx="238.927" cy="132.682" rx="14.2596" ry="17.6255" transform="rotate(-28.6099 238.927 132.682)" fill="#A9B4BE"/>
<path fill-rule="evenodd" clip-rule="evenodd" d="M204.617 61.4116C206.274 61.4116 207.617 62.7548 207.617 64.4116L207.617 101.996C207.617 103.653 206.274 104.996 204.617 104.996C202.96 104.996 201.617 103.653 201.617 101.996L201.617 64.4116C201.617 62.7548 202.96 61.4116 204.617 61.4116Z" fill="#D5DADD"/>
<circle cx="204.266" cy="57.6611" r="10.3931" fill="#A9B4BE"/>
<mask id="path-14-inside-2_10440_67804" fill="white">
<path fill-rule="evenodd" clip-rule="evenodd" d="M131.633 184.588V87.251C140.732 84.2543 150.408 82.6396 160.443 82.6396C211.883 82.6396 253.933 125.076 256.876 178.587C257.058 181.896 254.354 184.588 251.041 184.588H131.633Z"/>
</mask>
<path fill-rule="evenodd" clip-rule="evenodd" d="M131.633 184.588V87.251C140.732 84.2543 150.408 82.6396 160.443 82.6396C211.883 82.6396 253.933 125.076 256.876 178.587C257.058 181.896 254.354 184.588 251.041 184.588H131.633Z" fill="white"/>
<path d="M131.633 184.588H128.633V187.588H131.633V184.588ZM131.633 87.251L130.694 84.4015L128.633 85.0805V87.251H131.633ZM256.876 178.587L253.88 178.752V178.752L256.876 178.587ZM134.633 184.588V87.251H128.633V184.588H134.633ZM160.443 79.6396C150.084 79.6396 140.091 81.3068 130.694 84.4015L132.571 90.1004C141.372 87.2019 150.733 85.6396 160.443 85.6396V79.6396ZM259.871 178.422C256.849 123.472 213.623 79.6396 160.443 79.6396V85.6396C210.143 85.6396 251.016 126.68 253.88 178.752L259.871 178.422ZM251.041 187.588C255.967 187.588 260.154 183.557 259.871 178.422L253.88 178.752C253.962 180.235 252.741 181.588 251.041 181.588V187.588ZM131.633 187.588H251.041V181.588H131.633V187.588Z" fill="#00144A" mask="url(#path-14-inside-2_10440_67804)"/>
<path fill-rule="evenodd" clip-rule="evenodd" d="M131.633 165.14V112.515C140.231 107.715 150.035 104.996 160.442 104.996C191.554 104.996 217.283 129.293 221.488 160.87C221.794 163.169 219.95 165.14 217.631 165.14H131.633Z" fill="#00144A"/>
<path fill-rule="evenodd" clip-rule="evenodd" d="M131.633 142.018V128.659C133.224 127.226 135.331 126.354 137.642 126.354C142.604 126.354 146.627 130.376 146.627 135.338C146.627 140.301 142.604 144.323 137.642 144.323C135.331 144.323 133.224 143.451 131.633 142.018ZM192.228 135.338C192.228 140.301 188.206 144.323 183.243 144.323C178.281 144.323 174.259 140.301 174.259 135.338C174.259 130.376 178.281 126.354 183.243 126.354C188.206 126.354 192.228 130.376 192.228 135.338Z" fill="#64EDD2"/>
<path fill-rule="evenodd" clip-rule="evenodd" d="M148.632 153.017C148.93 152.244 149.798 151.858 150.571 152.156C156.371 154.388 162.794 154.388 168.595 152.156C169.368 151.858 170.236 152.244 170.533 153.017C170.831 153.79 170.445 154.658 169.672 154.955C163.178 157.455 155.987 157.455 149.493 154.955C148.72 154.658 148.335 153.79 148.632 153.017Z" fill="#D5DADD"/>
<rect x="127.657" y="202.321" width="140.909" height="7.42788" rx="3.71394" transform="rotate(-90 127.657 202.321)" fill="#F58B00"/>
</svg>
