<svg width="320" height="272" viewBox="0 0 320 272" fill="none" xmlns="http://www.w3.org/2000/svg">
<path fill-rule="evenodd" clip-rule="evenodd" d="M250.915 220.006C252.9 205.862 253.955 191.041 253.955 175.773V175.772H57.6388V175.773C57.6388 191.041 58.6939 205.862 60.6789 220.006H250.915Z" fill="#2A4259"/>
<path fill-rule="evenodd" clip-rule="evenodd" d="M250.915 220.006C252.9 205.862 253.955 191.041 253.955 175.773V175.772H235.007C234.962 191.048 233.86 205.869 231.828 220.006H250.915Z" fill="#324E6B"/>
<ellipse cx="155.797" cy="175.773" rx="98.1583" ry="19.2227" fill="#3B5B7C"/>
<ellipse cx="13.908" cy="17.191" rx="13.908" ry="17.191" transform="matrix(-0.877901 -0.478843 -0.478843 0.877901 95.8833 86.0156)" fill="#324E6B"/>
<path fill-rule="evenodd" clip-rule="evenodd" d="M57.639 145.075H57.6389C57.6391 92.019 101.586 49.0088 155.797 49.0088C210.001 49.0088 253.943 92.0072 253.956 145.053C253.956 145.06 253.956 145.068 253.956 145.075C253.956 155.691 210.009 164.298 155.797 164.298C101.586 164.298 57.639 155.691 57.639 145.075C57.639 145.075 57.639 145.075 57.639 145.075Z" fill="#2A4259"/>
<path fill-rule="evenodd" clip-rule="evenodd" d="M218.442 132.559C218.442 132.651 218.442 132.742 218.441 132.833H218.426C217.684 139.482 189.928 144.827 155.798 144.827C121.668 144.827 93.9125 139.482 93.1698 132.833H93.1557C93.1554 132.759 93.1552 132.686 93.1551 132.612C93.1547 132.595 93.1545 132.577 93.1545 132.559C93.1545 132.542 93.1547 132.524 93.1551 132.506C93.1845 98.6709 121.22 71.251 155.799 71.251C190.396 71.251 218.442 98.6997 218.442 132.559Z" fill="#3B5B7C"/>
<rect x="110.463" y="13.4248" width="8.60785" height="57.8257" rx="4.30393" fill="#3B5B7C"/>
<rect x="192.524" y="8.70068" width="8.60785" height="62.5498" rx="4.30393" fill="#3B5B7C"/>
<circle cx="114.767" cy="21.2787" r="12.578" fill="#2A4259"/>
<path fill-rule="evenodd" clip-rule="evenodd" d="M109.843 30.4172C116.79 30.4172 122.421 24.7858 122.421 17.8391C122.421 14.6594 121.241 11.7552 119.295 9.54053C124.004 11.3585 127.345 15.9285 127.345 21.2786C127.345 28.2252 121.713 33.8566 114.767 33.8566C111 33.8566 107.62 32.2007 105.315 29.5772C106.72 30.1197 108.247 30.4172 109.843 30.4172Z" fill="#324E6B"/>
<circle cx="196.828" cy="21.2787" r="12.578" fill="#5D36FF"/>
<circle cx="133.559" cy="108.039" r="8.76333" fill="#CEDBE8"/>
<circle cx="178.036" cy="108.039" r="8.76333" fill="#64EDD2"/>
<line x1="146.816" y1="131.448" x2="164.778" y2="131.448" stroke="white" stroke-width="3.59392" stroke-linecap="round"/>
<ellipse cx="235.191" cy="94.4478" rx="13.908" ry="17.191" transform="rotate(-28.6099 235.191 94.4478)" fill="#4098FF"/>
<path fill-rule="evenodd" clip-rule="evenodd" d="M128.245 163.53V52.8447C136.986 50.3478 146.232 49.0088 155.797 49.0088C210.001 49.0088 253.943 92.0072 253.956 145.053L253.956 145.075C253.956 155.691 210.009 164.298 155.797 164.298C146.232 164.298 136.986 164.03 128.245 163.53Z" fill="#4098FF"/>
<path fill-rule="evenodd" clip-rule="evenodd" d="M234.27 156.624C234.959 152.045 235.316 147.36 235.316 142.595C235.316 96.7516 202.297 58.4322 158.196 49.0366C211.291 50.2829 253.943 92.7916 253.955 145.053L253.955 145.075C253.955 149.409 246.629 153.409 234.27 156.624Z" fill="#1782FF"/>
<path fill-rule="evenodd" clip-rule="evenodd" d="M128.245 143.58V77.4844C136.56 73.4924 145.912 71.251 155.799 71.251C190.396 71.251 218.442 98.6997 218.442 132.559C218.442 132.651 218.442 132.742 218.441 132.833H218.426C217.684 139.482 189.928 144.827 155.798 144.827C145.912 144.827 136.56 144.378 128.245 143.58Z" fill="#688FB7"/>
<rect x="192.524" y="13.4248" width="8.60785" height="57.8257" rx="4.30393" fill="white"/>
<circle cx="196.828" cy="21.2787" r="12.578" fill="#4098FF"/>
<path fill-rule="evenodd" clip-rule="evenodd" d="M191.09 30.8568C198.037 30.8568 203.668 25.2254 203.668 18.2788C203.668 14.6076 202.095 11.3038 199.587 9.00439C205.206 10.2621 209.406 15.28 209.406 21.2788C209.406 28.2255 203.774 33.8569 196.828 33.8569C193.552 33.8569 190.569 32.6048 188.331 30.5532C189.219 30.7519 190.142 30.8568 191.09 30.8568Z" fill="#1782FF"/>
<path fill-rule="evenodd" clip-rule="evenodd" d="M128.245 115.008V101.069C129.719 99.9438 131.561 99.2754 133.558 99.2754C138.398 99.2754 142.322 103.199 142.322 108.039C142.322 112.879 138.398 116.802 133.558 116.802C131.561 116.802 129.719 116.134 128.245 115.008Z" fill="#64EDD2"/>
<circle cx="178.036" cy="108.039" r="8.76333" fill="#64EDD2"/>
<path fill-rule="evenodd" clip-rule="evenodd" d="M145.277 128.263C145.82 127.301 147.04 126.961 148.002 127.504C152.84 130.234 158.754 130.234 163.592 127.504C164.554 126.961 165.774 127.301 166.317 128.263C166.86 129.225 166.52 130.445 165.558 130.987C159.5 134.406 152.094 134.406 146.036 130.987C145.074 130.445 144.734 129.225 145.277 128.263Z" fill="white"/>
<rect x="121.652" y="174.755" width="137.435" height="7.24475" rx="3.62237" transform="rotate(-90 121.652 174.755)" fill="#F58B00"/>
<path d="M39.6139 138.298C39.6139 137.216 36.4748 136.351 32.2806 136.154C32.0408 131.965 31.1175 128.851 30.036 128.853C28.9544 128.855 28.0552 131.994 27.825 136.205C23.6187 136.492 20.4916 137.432 20.506 138.516C20.5204 139.6 23.6451 140.465 27.8393 140.66C28.0911 144.849 29.0024 147.963 30.0815 147.961C31.1607 147.959 32.0647 144.82 32.2949 140.609C36.5012 140.322 39.6258 139.382 39.6139 138.298Z" fill="#2A4259"/>
<path d="M297.169 172.858C297.169 171.952 294.54 171.228 291.028 171.063C290.828 167.555 290.054 164.947 289.149 164.949C288.243 164.951 287.49 167.579 287.297 171.105C283.775 171.346 281.157 172.133 281.169 173.041C281.181 173.948 283.798 174.673 287.31 174.836C287.52 178.343 288.283 180.951 289.187 180.949C290.091 180.947 290.848 178.319 291.04 174.793C294.562 174.552 297.179 173.765 297.169 172.858Z" fill="#2A4259"/>
<path d="M261.602 55.8351C261.602 54.4769 257.66 53.3897 252.392 53.1427C252.09 47.8813 250.931 43.9692 249.572 43.9722C248.214 43.9752 247.084 47.9175 246.795 53.2059C241.512 53.5673 237.584 54.7479 237.602 56.1092C237.621 57.4705 241.545 58.5577 246.813 58.8016C247.13 64.063 248.274 67.9752 249.63 67.9722C250.985 67.9692 252.12 64.0269 252.41 58.7384C257.693 58.377 261.617 57.1964 261.602 55.8351Z" fill="#2A4259"/>
</svg>