<svg width="320" height="240" viewBox="0 0 320 240" fill="none" xmlns="http://www.w3.org/2000/svg">
<path d="M87.638 192.905L221.378 169.025C222.208 168.875 222.238 167.705 221.428 167.505L137.568 146.615C136.568 146.365 135.518 146.315 134.498 146.475L28.908 162.745C27.038 163.035 26.678 165.565 28.398 166.365L56.508 179.445L77.028 188.985L84.598 192.505C85.548 192.945 86.608 193.085 87.638 192.905Z" fill="#1B90FF"/>
<path d="M225.994 45.1225C226.524 45.0925 227.064 45.1925 227.564 45.3725C228.064 45.5525 228.554 45.8425 228.994 46.2025C229.434 46.5625 229.814 46.9925 230.114 47.4725C230.424 47.9625 230.654 48.5025 230.794 49.0725L233.284 59.9025L71.3541 69.6525L69.2641 57.6125C69.1541 56.9725 69.1741 56.3625 69.3241 55.8025C69.4641 55.2425 69.7241 54.7325 70.0741 54.2925C70.4241 53.8525 70.8741 53.4925 71.3941 53.2325C71.9141 52.9725 72.5041 52.8125 73.1541 52.7725L225.994 45.1225Z" fill="#0070F2"/>
<path d="M71.3438 69.6521L233.264 59.9121L254.074 150.402C254.214 151.012 254.234 151.612 254.174 152.162C254.104 152.712 253.924 153.232 253.664 153.682C253.394 154.132 253.054 154.512 252.634 154.792C252.214 155.072 251.734 155.262 251.184 155.332L94.6237 174.952C93.9537 175.042 93.3038 174.972 92.6838 174.802C92.0638 174.632 91.4738 174.332 90.9638 173.922C90.4538 173.522 90.0038 173.042 89.6538 172.472C89.3038 171.902 89.0538 171.272 88.9438 170.592L71.3538 69.6521H71.3438Z" fill="white"/>
<path d="M80.0537 57.0413C80.5637 57.0113 81.0737 57.0913 81.5537 57.2513C82.0437 57.4113 82.4737 57.6613 82.8737 57.9713C83.2737 58.2813 83.6037 58.6613 83.8737 59.0913C84.1437 59.5213 84.3337 59.9913 84.4137 60.5013C84.5037 61.0013 84.4937 61.4913 84.3737 61.9412C84.2637 62.3912 84.0637 62.8013 83.7837 63.1513C83.5037 63.5013 83.1537 63.8012 82.7437 64.0112C82.3337 64.2212 81.8637 64.3513 81.3437 64.3813C80.8337 64.4113 80.3237 64.3312 79.8437 64.1712C79.3537 64.0112 78.9137 63.7613 78.5237 63.4513C78.1337 63.1413 77.7837 62.7612 77.5137 62.3312C77.2437 61.9012 77.0537 61.4313 76.9737 60.9113C76.8837 60.4013 76.9037 59.9113 77.0137 59.4613C77.1137 59.0113 77.3237 58.5913 77.6037 58.2513C77.8837 57.9113 78.2337 57.6113 78.6537 57.3913C79.0737 57.1713 79.5337 57.0512 80.0537 57.0312V57.0413Z" fill="#89D1FF"/>
<path d="M94.6337 174.953C93.9637 175.033 93.3137 174.973 92.6937 174.803C92.0737 174.623 91.4837 174.323 90.9737 173.923C90.4637 173.523 90.0137 173.043 89.6637 172.463C89.3137 171.903 89.0637 171.263 88.9537 170.583L71.3637 69.6533L69.2737 57.6133C69.2137 57.3133 69.1937 57.0033 69.2037 56.7133C69.2037 56.4233 69.2537 56.1333 69.3137 55.8533C69.3837 55.5733 69.4737 55.3133 69.5937 55.0633C69.7037 54.8133 69.8637 54.5733 70.0237 54.3633L67.3737 57.8133C67.2137 58.0333 67.0737 58.2633 66.9437 58.5033C66.8337 58.7533 66.7337 59.0033 66.6637 59.2833C66.5937 59.5633 66.5637 59.8333 66.5537 60.1333C66.5537 60.4233 66.5537 60.7233 66.6237 61.0233L68.6837 72.9333L85.9737 172.753C86.0837 173.433 86.3337 174.053 86.6737 174.613C87.0137 175.173 87.4637 175.663 87.9637 176.053C88.4737 176.443 89.0437 176.733 89.6637 176.923C90.2837 177.103 90.9337 177.163 91.5837 177.073L246.734 157.473L251.194 155.323L94.6337 174.943V174.953Z" fill="#0040B0"/>
<path d="M190.033 125.122C191.605 124.975 192.999 126.13 193.147 127.701C193.294 129.273 192.138 130.667 190.567 130.815L165.894 133.131C164.323 133.278 162.929 132.122 162.78 130.551C162.633 128.979 163.788 127.584 165.36 127.437L190.033 125.122ZM136.861 90.8053C137.833 89.5612 139.627 89.3411 140.872 90.3129L159.466 104.831C160.743 105.83 160.924 107.753 159.854 108.972L144.288 126.714C143.246 127.9 141.442 128.017 140.255 126.977C139.068 125.935 138.951 124.131 139.992 122.944L153.558 107.472L137.353 94.8164C136.109 93.8444 135.889 92.0497 136.861 90.8053Z" fill="#DF1278"/>
</svg>
